<svg width="0" height="0" class="hidden">
  <symbol viewBox="0 0 511.999 511.999" xmlns="http://www.w3.org/2000/svg" id="almond2">
    <path d="M240.383 409.486c-5.292-1.582-10.863 1.43-12.441 6.723-13.313 44.607-55.158 75.762-101.762 75.762C67.632 491.97 20 444.338 20 385.79c0-78.521 27.642-155.019 77.832-215.402l16.903-20.336c2.836-3.412 7.008-5.369 11.444-5.369s8.608 1.957 11.444 5.368l16.903 20.337a337.284 337.284 0 0 1 73.372 160.754c.895 5.448 6.033 9.146 11.489 8.245 5.449-.896 9.142-6.039 8.245-11.489a357.283 357.283 0 0 0-77.726-170.293l-16.903-20.338c-6.648-7.997-16.426-12.584-26.825-12.584s-20.177 4.587-26.825 12.585L82.45 157.604C29.282 221.571 0 302.61 0 385.79c0 69.575 56.604 126.18 126.18 126.18 27.715 0 54.018-8.816 76.064-25.496 21.322-16.132 37.254-39.055 44.861-64.547 1.581-5.292-1.43-10.862-6.722-12.441z"></path>
    <path d="M121.449 252.915c-4.865 2.612-6.692 8.675-4.08 13.541 16.498 30.729 26.637 65.315 29.317 100.02.405 5.244 4.786 9.23 9.96 9.23.258 0 .52-.011.781-.03 5.506-.426 9.625-5.234 9.2-10.741-2.936-37.989-13.58-74.306-31.638-107.939-2.612-4.866-8.673-6.693-13.54-4.081zm4.731 174.128c5.522 0 10-4.478 10-10s-4.478-10-10-10c-11.719 0-21.253-9.534-21.253-21.253 0-12.47.944-25.058 2.807-37.413.822-5.461-2.938-10.556-8.398-11.379-5.454-.821-10.556 2.937-11.379 8.398a271.98 271.98 0 0 0-3.029 40.394c-.001 22.747 18.505 41.253 41.252 41.253zm0 42.463c46.161 0 83.717-37.555 83.717-83.716 0-5.522-4.478-10-10-10s-10 4.478-10 10c0 35.133-28.583 63.716-63.717 63.716-5.522 0-10 4.478-10 10s4.477 10 10 10zm65.189-145.11c.777 0 1.567-.091 2.356-.281 5.368-1.298 8.669-6.701 7.371-12.069a315.478 315.478 0 0 0-32.329-81.712c-2.728-4.803-8.831-6.485-13.634-3.757-4.802 2.727-6.484 8.831-3.757 13.634a295.55 295.55 0 0 1 30.28 76.532c1.108 4.578 5.201 7.653 9.713 7.653zM87.663 243.373c-4.962-2.417-10.95-.354-13.368 4.612-20.824 42.762-31.831 90.413-31.831 137.805 0 5.522 4.478 10 10 10s10-4.478 10-10c0-44.375 10.309-88.999 29.812-129.049 2.417-4.964.353-10.95-4.613-13.368zm424.188 39.541l-2.428-26.333c-7.636-82.829-44.233-160.837-103.05-219.654-49.198-49.197-129.25-49.196-178.446 0-49.196 49.198-49.196 129.248.001 178.445 58.818 58.817 136.826 95.415 219.654 103.05l26.332 2.428c1.081.1 2.158.148 3.231.148 9.213 0 18.05-3.632 24.636-10.218a34.783 34.783 0 0 0 10.07-27.866zm-24.211 13.724a14.826 14.826 0 0 1-11.89 4.296l-26.332-2.428c-78.188-7.207-151.825-41.753-207.349-97.276-41.398-41.399-41.398-108.761.001-150.16 20.054-20.055 46.718-31.1 75.08-31.1 28.361 0 55.025 11.045 75.08 31.1 55.521 55.521 90.068 129.159 97.276 207.348l2.428 26.333a14.837 14.837 0 0 1-4.294 11.887z"></path>
    <path d="M317.149 104.911c5.687 0 11.023 2.206 15.028 6.211a251.917 251.917 0 0 1 24.471 28.439 9.988 9.988 0 0 0 8.054 4.063 9.962 9.962 0 0 0 5.931-1.955c4.443-3.279 5.387-9.54 2.107-13.984a271.853 271.853 0 0 0-26.42-30.705c-7.782-7.782-18.142-12.068-29.17-12.068h-.001c-11.028 0-21.389 4.286-29.17 12.069-3.905 3.905-3.905 10.236.001 14.142 3.904 3.904 10.237 3.905 14.142-.001 4.005-4.005 9.342-6.211 15.027-6.211zm90.613 99.391c-33.393-10.063-65.018-27.35-91.456-49.993-4.196-3.594-10.508-3.105-14.1 1.09-3.593 4.194-3.104 10.507 1.09 14.1 28.94 24.788 62.146 42.94 98.696 53.954.962.289 1.933.428 2.889.428 4.297 0 8.268-2.792 9.571-7.118 1.593-5.288-1.402-10.867-6.69-12.461zM376.347 66.953c-3.906-3.904-10.236-3.904-14.143 0-3.905 3.905-3.905 10.237 0 14.143 31.377 31.377 55.642 70.22 70.171 112.331a10.004 10.004 0 0 0 9.452 6.741 9.982 9.982 0 0 0 3.263-.55c5.221-1.802 7.993-7.494 6.191-12.715-15.512-44.961-41.425-86.44-74.934-119.95zm25.927 179.953a295.472 295.472 0 0 1-75.529-32.705c-4.714-2.88-10.867-1.391-13.746 3.322s-1.392 10.867 3.322 13.746a315.464 315.464 0 0 0 80.639 34.918c.89.245 1.783.362 2.663.362 4.388 0 8.412-2.911 9.635-7.346 1.467-5.324-1.659-10.83-6.984-12.297zM272.096 66.953c-3.906-3.904-10.236-3.904-14.143 0-32.641 32.642-32.641 85.752 0 118.394 1.953 1.952 4.512 2.929 7.071 2.929s5.118-.977 7.071-2.929c3.905-3.905 3.905-10.237 0-14.143-24.844-24.843-24.844-65.266 0-90.108 3.906-3.905 3.906-10.237.001-14.143zM242.17 364.3c-2.63 0-5.21 1.069-7.07 2.93a10.08 10.08 0 0 0-2.93 7.07c0 2.64 1.07 5.21 2.93 7.069 1.86 1.87 4.44 2.931 7.07 2.931s5.21-1.061 7.07-2.931c1.859-1.859 2.93-4.439 2.93-7.069s-1.07-5.21-2.93-7.07a10.071 10.071 0 0 0-7.07-2.93z"></path>
  </symbol>
  <symbol viewBox="0 0 60 60" xmlns="http://www.w3.org/2000/svg" id="apitherapy">
    <path d="M.47 53.848C9.168 59.285 8.592 59 9 59s-.1.239 8-4.821C25.117 59.252 24.6 59 25 59s0 .177 6.54-3.912a1.002 1.002 0 0 0-1.061-1.7L25 56.821l-7-4.375v-6.892l3.651-2.286a1.002 1.002 0 0 0-1.062-1.7L17 43.82l-7-4.374v-6.892l7-4.374c3.9 2.443 3.643 2.316 3.922 2.373a1 1 0 0 0 .729-1.821L18 26.446v-6.892l7-4.375 7 4.375V21a1 1 0 0 0 2 0v-1.446l7-4.375 7 4.375V27a1 1 0 0 0 2 0v-8a1 1 0 0 0-.47-.848L42 13.446V6a1 1 0 0 0-.47-.848l-8-5a1 1 0 0 0-1.06 0L25 4.821 17.53.152a1 1 0 0 0-1.06 0l-8 5A1 1 0 0 0 8 6v7.446L.47 18.152A1 1 0 0 0 0 19v8a1 1 0 0 0 .47.848L8 32.554v6.892L.47 44.152A1 1 0 0 0 0 45v8a1 1 0 0 0 .47.848zM33 2.179l7 4.375v6.892l-7 4.375-7-4.375V6.554zm-16 0l7 4.375v6.892l-7 4.375-7-4.375V6.554zM2 19.554l7-4.375 7 4.375v6.892l-7 4.375-7-4.375zm0 26l7-4.375 7 4.375v6.892l-7 4.375-7-4.375z"></path>
    <path d="M46 30.012V29a5.987 5.987 0 0 0-2.1-4.553l1-2a1 1 0 0 0-1.79-.892l-.927 1.861a5.925 5.925 0 0 0-4.356 0l-.927-1.862a1 1 0 1 0-1.79.892l1 2A5.987 5.987 0 0 0 34 29v1.009C33.09 30 32.1 30 31 30c-5.312 0-11 2.411-11 6 0 4.308 8.125 6.579 12.167 5.891-.092.8-.167 1.89-.167 2.609 0 7 3 12.581 7 13.389V59a1 1 0 0 0 2 0v-1.111c4-.808 7-6.393 7-13.389 0-.715-.076-1.812-.166-2.6C51.929 42.577 60 40.3 60 36c0-3.589-5.688-6-11-6-1.05 0-2.061 0-3 .012zM36 29a4 4 0 1 1 8 0v1.052a12.671 12.671 0 0 0-3.993.576A11.966 11.966 0 0 0 36 30.049zm4.006 6.381A13.316 13.316 0 0 0 41.727 38H38.27a14.211 14.211 0 0 0 1.736-2.619zM22 36c0-1.8 4.153-4 9-4 2 0 6.731-.036 7.973.358C38.631 34.763 35.146 40 31 40c-4.847 0-9-2.2-9-4zm14.214 4h7.555c.606.479 1.262.89 1.957 1.225.04.257.075.516.106.775H39a1 1 0 0 0 0 2h6.977c.044.667.031 1.336-.037 2H34.06a12.533 12.533 0 0 1-.037-2H35a1 1 0 0 0 0-2h-.832c.032-.265.067-.53.109-.793.688-.33 1.337-.735 1.937-1.207zM35.5 52H40a1 1 0 0 0 0-2h-5.241a18.416 18.416 0 0 1-.46-2H45.7c-.116.675-.27 1.342-.46 2H44a1 1 0 0 0 0 2h.5c-2.434 5.33-6.567 5.328-9 0zM58 36c0 2.487-7.435 4.99-10.992 3.61a11.025 11.025 0 0 1-5.978-7.237c1.437-.433 5.77-.358 7.97-.373 4.847 0 9 2.2 9 4z"></path>
  </symbol>
  <symbol xmlns="http://www.w3.org/2000/svg" viewBox="0 0 512.001 512.001" id="beans">
    <path d="M242.488 120.593c-3.526-4.394-9.945-5.097-14.337-1.571-5.263 4.224-11.622 6.457-18.39 6.457-6.768 0-13.127-2.232-18.39-6.457-4.392-3.527-10.811-2.823-14.337 1.571-3.526 4.392-2.823 10.811 1.571 14.337 8.795 7.058 19.859 10.946 31.156 10.946 11.297 0 22.361-3.888 31.156-10.946 4.394-3.526 5.097-9.944 1.571-14.337z"></path>
    <path d="M504.631 264.492c-8.163-22.526-22.391-41.812-41.147-55.774-13.269-9.878-28.419-16.679-44.683-20.203 3.462-32.092-6.464-65.395-27.393-90.697-22.63-27.358-55.115-42.424-91.47-42.424h-5.942c-25.451 0-50.164 9.038-71.469 26.135-3.653 2.932-8.068 4.482-12.766 4.482s-9.113-1.55-12.766-4.482c-21.304-17.099-46.018-26.135-71.469-26.135h-5.942c-26.268 0-50.843 7.958-71.069 23.014C29.76 92.37 15.532 111.657 7.369 134.182c-8.129 22.435-9.564 46.232-4.149 68.822 5.843 24.371 19.547 46.11 39.632 62.866a261.144 261.144 0 0 0 49.861 32.725c-.727 11.66.258 23.342 2.985 34.719 5.843 24.371 19.547 46.11 39.632 62.866 46.708 38.966 105.984 60.427 166.909 60.427s120.202-21.459 166.909-60.427c20.085-16.756 33.789-38.495 39.631-62.866 5.416-22.588 3.982-46.387-4.148-68.822zM95.972 277.276a240.883 240.883 0 0 1-40.053-27.067c-39.007-32.542-40.749-77.682-29.372-109.077 11.446-31.588 41.898-65.34 93.039-65.34h5.942c20.758 0 41.057 7.485 58.702 21.646 7.208 5.786 16.276 8.971 25.533 8.971s18.325-3.186 25.533-8.971c17.644-14.162 37.944-21.646 58.702-21.646h5.942c30.165 0 57.068 12.44 75.754 35.029 17.351 20.974 25.637 48.509 22.887 75.049a128.576 128.576 0 0 0-6.163-.165h-5.942c-25.451 0-50.164 9.038-71.469 26.135-3.653 2.932-8.067 4.481-12.766 4.481s-9.113-1.55-12.766-4.481c-21.305-17.099-46.018-26.135-71.469-26.135h-5.942c-26.268 0-50.843 7.958-71.069 23.014-18.756 13.962-32.985 33.249-41.147 55.774a124.227 124.227 0 0 0-3.876 12.783zm360.11 103.242c-43.047 35.914-97.683 55.692-153.843 55.692s-110.796-19.779-153.843-55.692c-39.007-32.541-40.749-77.682-29.373-109.077 11.447-31.588 41.898-65.34 93.039-65.34h5.942c20.758 0 41.057 7.485 58.702 21.646 7.208 5.785 16.276 8.971 25.533 8.971s18.324-3.186 25.533-8.971c17.645-14.161 37.944-21.646 58.702-21.646h5.942c51.141 0 81.592 33.753 93.039 65.34 11.376 31.395 9.633 76.536-29.373 109.077z"></path>
    <path d="M333.342 249.52c-3.526-4.393-9.944-5.096-14.337-1.571-5.263 4.224-11.622 6.457-18.39 6.457-6.768 0-13.126-2.232-18.39-6.457-4.392-3.526-10.811-2.823-14.337 1.571-3.526 4.392-2.823 10.811 1.571 14.337 8.795 7.058 19.86 10.946 31.156 10.946s22.361-3.887 31.156-10.946c4.393-3.525 5.097-9.944 1.571-14.337zm78.732 135.412c-2.57-5.011-8.718-6.991-13.729-4.419-29.909 15.341-62.244 23.12-96.106 23.12-5.633 0-10.198 4.566-10.198 10.198 0 5.633 4.566 10.198 10.198 10.198 37.131 0 72.598-8.535 105.415-25.369 5.011-2.57 6.99-8.717 4.42-13.728zm39.534-28.871c-3.608-4.327-10.038-4.909-14.363-1.3a214.734 214.734 0 0 1-7.237 5.774c-4.479 3.417-5.34 9.816-1.924 14.294a10.18 10.18 0 0 0 8.116 4.014c2.157 0 4.33-.681 6.177-2.09a231.852 231.852 0 0 0 7.932-6.329c4.325-3.608 4.907-10.039 1.299-14.363z"></path>
  </symbol>
  <symbol viewBox="0 -4 511.997 511" xmlns="http://www.w3.org/2000/svg" id="grape">
    <path d="M350.8 271.742c46.083-31.781 35.243-110.89-19.94-126.097-3.919-1.083-19.442-.493-21.325-2.282-3.144-2.984-4.996-17.289-7.418-21.734-6.906-12.688-17.902-22.899-30.89-29.16-27.036-13.031-59.72-7.41-79.856 15.144-19.398-26.258-53.281-34.222-82.586-20.097-12.98 6.257-24.207 16.328-31.5 28.785a66.83 66.83 0 0 0-7.87 20.633c-1.75 8.738.476 16.734-.204 25.242-.473 5.879.883 4.691-5.543 7.156a66.306 66.306 0 0 0-10.508 5.156c-7.402 4.477-13.82 10.38-19 17.301-9.914 13.246-15.035 29.926-14.492 46.45.25 7.542 1.672 15.073 4.281 22.156a69.045 69.045 0 0 0 5.75 11.918c.965 1.59 3.309 4.042 3.817 5.613 1.472 4.566 1.547.949-.692 5.304-4.207 8.188-11.879 14.122-15.617 23.192a73.353 73.353 0 0 0-5.52 28.855c.114 9.282 1.965 18.543 5.583 27.102 1.722 4.078 4.511 7.629 6.293 11.598 1.5 3.347 2.722 2.964 1.921 5.843-.363 1.313-5.988 5.45-6.812 6.332C6.39 399.332-.128 417.242 0 435.187c.281 38.739 32.188 71.262 71.46 69.215 17.638-.918 34.716-8.703 46.747-21.672 1.781-1.918 6.723-11.242 8.797-11.875 1.691-.52 10.437 4.008 12.207 4.473 9.258 2.414 18.926 2.7 28.336 1.031 17.488-3.105 33.535-13.132 43.969-27.507 2.863-3.946 4.488-8.778 7.27-12.641.655-.906 1.175-4.738 2.066-5.203.437-.23 6.539 1.785 7.773 2.027 10.25 2.012 20.977 1.504 31.023-1.316 10.657-2.989 20.532-8.574 28.61-16.125 2.219-2.078 8.922-12.953 11.36-13.785 2.75-.942 11.859 3.152 15.066 3.507 21.214 2.344 42.8-6.078 57.367-21.558 31.804-33.801 20.949-92.274-21.25-112.016 2.71-1.87 5.422-3.738 8.133-5.61-2.711 1.872-5.422 3.74-8.133 5.61zm-56.327-71.715c2.468-2.886 4.968-6.304 6.668-9.714a56.47 56.47 0 0 0 1.64-3.075c2.426-4.863 4.36-9.922 5.625-15.218 1.746-7.286.176-8.356 7.45-8.977 6.874-.586 15.187 2.766 20.976 6.242 11.523 6.914 19.05 18.969 22.02 31.906 2.882 12.582 1.64 26.414-4.364 37.934-3.226 6.188-7.804 11.613-13.46 15.719-1.876 1.363-18.622 9.394-18.622 7.629.02-.328.032-.66.032-.996.058-2.352.011-4.793-.208-7.141-.02-.356-.05-.711-.09-1.066 0-.047-.007-.098-.007-.157-2.149-20.437-12.485-39.195-29.418-51l1.758-2.086c.297-.347-.559.707 0 0 2.527-2.957-.559.707 0 0zm-1.426 29.68c.156.195.297.383.422.582 2.476 3.473 4.453 7.29 5.969 11.27.175.453.343.906.492 1.367.078.187.136.375.195.562.11.305.207.61.297.926 1.101 3.195 1.59 6.586 2.066 9.918.047.473.098.945.125 1.422.032.226.04.453.051.68.04.453.059.906.078 1.359.012.105.012.227.012.332.203 4.273.086 9.457-1.277 13.555-.09.386-.149.761-.18 1.144-7.16 17.227-18.168 32.535-37.43 36.625-.012 0-.031.012-.039.012-12.039 2.57-26.516.398-36.527-7.121a35.358 35.358 0 0 1-2.29-1.625c-.011-.012-.03-.024-.038-.031-20.551-15.622-24.305-43.797-12.09-65.836 12.66-22.836 35.668-29.559 59.527-21.582a42.14 42.14 0 0 1 1.543.691c.012 0 .024 0 .031.008.5.238 1.004.472 1.496.73.086.04.176.09.266.13a45.138 45.138 0 0 1 4.149 2.41 49.584 49.584 0 0 1 3.57 2.535 42.216 42.216 0 0 1 3.152 2.687c.188.156.367.324.543.504 1.297 1.125 5.45 6.137 5.887 6.746.156.195-.57-.797 0 0zM188.05 240.563a66.479 66.479 0 0 0-1.547 6.746c-14.211.386-26.781-5.95-36.606-15.82-6.125-6.68-10.351-14.934-12.222-23.868-9.356-24.418 13.308-54.101 36.094-59.824-2.575 24.976 8.878 50.527 29.41 65.035-7.082 7.988-12.325 17.598-15.18 27.887.398-1.426.813-2.848 1.203-4.278-.383 1.375-.77 2.75-1.152 4.121-.633 2.215 2.887-10.304 0 0zm14.59 65.98h-.012v.012c-11.336 7.996-21.535 20.425-25.395 33.976h-.011a59.829 59.829 0 0 1-4.79-1.379c-4.523-1.511-9.413-1.847-14.156-1.933a81.46 81.46 0 0 0-5.695.082 25.903 25.903 0 0 1-4.422.383 18.06 18.06 0 0 0-3.55.53c-.079.013-.169.02-.247.04-.504.2-1.02.297-1.543.297-16.37-8.946-27.152-27.352-26.222-46.063v-.129c.023-.515.047-1.03.066-1.546 0-.06 0-.118.012-.168.02-.383.05-.758.078-1.133 0-.047.012-.098.012-.149.125-1.414.246-3.27.609-4.726a46.744 46.744 0 0 1 1.328-5.606c.02-.058.04-.129.059-.187.02-.117.058-.227.097-.344.973-3.453 2.461-6.41 4.04-9.574a51.202 51.202 0 0 1 2.558-4.168c2.617-4.008 5.93-7.602 9.676-10.582a12.771 12.771 0 0 1 3.578-2.66c.41-.286.824-.559 1.246-.817.297-.195.594-.375.887-.55l.011.007c12.407 10.887 28.149 16.867 44.57 16.867h.294c.316 3.813.746 9.344 2.476 12.817.203.722.422 1.441.66 2.156.02.066.051.129.07.195a83.4 83.4 0 0 0 .747 2.168c2.95 8.125 7.344 15.61 12.969 22.184zm-3.461-176.004c.039-.09.086-.18.129-.266.007-.02.027-.05.039-.07 23.855-43.656 90.925-24.195 91.457 24.293 0 .106 0 .227.011.336v.145c0 11.613-3.996 22.808-11.05 31.957-.059.07-.11.136-.168.207-1.641 2.078-3.496 4.011-5.446 5.793-13.254-4.348-31.418-5.102-44.257 1.34-1.856.69-9.208 5.398-10.856 5.308-2.586-.14-6.59-4.363-8.371-5.895a50.42 50.42 0 0 1-13.406-18.21c-.032-.079-.059-.157-.098-.235-6.047-14.27-4.586-32.512 1.695-44.117-.57 1.059-.464.86.32-.586.04-.09-1.523 2.816 0 0zm-62.465-31.05c17.972 0 34.375 10.187 42.898 26.28a6.78 6.78 0 0 0-.218.485c-.106.226-.208.453-.305.687-34.934 3.262-61.77 34.563-62.2 69.204-4.027-1.7-7.953-4.211-11.206-7.133a21.71 21.71 0 0 1-1.063-.926c-36.133-27.125-10.605-88.598 32.094-88.598zm-59.043 86.163c.058.11.129.23.195.328 1.203 2.09 3.016 5.418 4.828 7.23.266.364.551.727.836 1.083.176.238.364.465.563.691.261.336.527.66.812.996 0 .008 0 .008.012.008 5.32 6.43 12.371 12.551 19.957 16.188 3.96 2.133 12.105 3.148 15.215 5.898 3.16 2.801 5.297 12.965 7.836 16.965-3.453 2.125-6.684 4.86-9.551 7.73-.156.141-.313.29-.46.446-.274.254-.54.52-.798.797-4.633 4.64-8.441 9.968-11.601 15.703-.047.078-.086.168-.125.246-.98.84-1.47 1.8-1.465 2.875a31.494 31.494 0 0 1-.719 1.547c-.012.02-.02.031-.02.05a62.739 62.739 0 0 0-1.93 4.727c-.464 1.281-1.054 2.723-1.347 4.078-.12.395-.234.793-.344 1.192-.117.383-.222.77-.312 1.164-.04.125-.07.254-.098.383-.09.304-.168.609-.238.914-.008.058-.027.109-.04.168-.538 2.226-.726 4.543-1.276 6.757-.008.051-.008.09-.02.141-.012.035-.012.078-.012.117-.02.078-.02.156-.027.235l-.031.238h-.008c-.535.078-1.067.18-1.594.305-3.851.64-7.926.949-11.808.543-.04 0-.09-.012-.13-.012-.472-.04-.945-.078-1.406-.13a1.38 1.38 0 0 0-.273-.026 52.051 52.051 0 0 1-11.82-2.957 48.279 48.279 0 0 1-5.239-2.434 27.759 27.759 0 0 0-2.683-1.547c-.5-.309-.992-.629-1.477-.965-.375-.254-.758-.511-1.133-.777a.17.17 0 0 0-.058-.04 92.006 92.006 0 0 0-2.93-2.284c-30.484-25.618-18.883-79.899 20.719-88.57-.164-.301-8.637 1.874-9.805 2.171 3.242-.82 6.543-1.457 9.805-2.172.058.11-22.184 4.86 0 0zM50.445 293.914c3.45 2.293 10.075 7.25 14.317 7.25 6.058 2.16 12.68 3.754 19.133 3.961h.011c3.223.21 6.989.465 10.188-.176 2.422-1.508 3.629-1.648 3.625-.426 1.586 10.325 5.508 22.82 12.527 30.856 0 .008.012.02.012.02 3.082 4.296 6.578 8.265 10.605 11.703.04.027.07.066.121.097-10.066 6.164-29.027 22.676-29.027 35.906-2.344.586-4.777 1.079-7.195 1.282-.2.031-.395.047-.59.058-48.23 4.403-70.79-61.472-33.727-90.53.082.054-4.5 4.78-5.183 4.327-.117-.078 6.648-5.476 5.183-4.328 1.621 1.078-12.074 9.469 0 0zm17.778 191.277c-25.399 0-44.797-20.144-47.828-44.695-1.418-11.516.777-23.445 6.878-33.383 2.508-4.082 7.153-11.394 11.809-12.976 5.48-1.864 15.688 5.355 22.27 7.558 7.23 2.067 15.125 3.2 22.66 2.512 1.273-.11 2.543-.219 3.816-.324-.5 8.488.559 17.734 3.461 25.738 1.094 3.477 2.402 7.313 4.336 10.41 2.621 5.156 5.883 10.485 9.988 14.602 5.043 5.828 5.586 5.527.575 11.922a49 49 0 0 1-10.024 9.586c-8.14 5.847-17.902 9.05-27.941 9.05zm136.234-69.343c0 .02-.008.03-.008.05-6.219 37.97-52.851 55.196-81.02 28.325-12.667-12.078-20.038-30-15.413-47.32 4.37-16.372 17.836-35.817 36.12-38.434 9.079-2.41 27.536-3.188 34.966 4.254.02.011.03.02.05.03h.008c.012 0 .012.013.02.013 18.82 10.324 28.511 33.73 25.382 52.476.168-1.027.137-.824-.105.606 0 .02.465-2.766 0 0zm37.316-1.192c-5.84 0-11.64-1.082-17.082-3.172.157-2.699.286-5.816-.02-8.55-.171-2.93-.648-5.786-1.062-8.688a94.884 94.884 0 0 0-.363-1.832c-.008-.02-.008-.039-.02-.059a39.178 39.178 0 0 0-.355-1.585c-.008-.051-.02-.09-.027-.141-2.461-9.25-7.524-24.965-16.008-30.645a35.375 35.375 0 0 0-1.219-1.332 11.932 11.932 0 0 0-.648-.68c-2.969-3.202-6.418-5.988-9.961-8.519.031-.11.058-.207.097-.305.079-.296.168-.582.266-.867a43.245 43.245 0 0 1 3.863-8.984 45.503 45.503 0 0 1 8.555-11.406c.266-.278.54-.543.816-.797.254-.258.512-.496.778-.73.215-.208.441-.403.668-.59.117-.122.234-.227.355-.317.235-.207.461-.402.696-.59 2.148-1.879 4.609-3.547 7.109-4.937 10.84 6.789 23.082 10.195 35.86 10.265-.012.13-.02.266-.04.407-.648 9.984.805 20.027 4.207 29.43 1.903 5.257 7.082 19.085 12.606 21.863.148.175.297.355.46.53 0 .013.012.032.04.04l.011.012c.305.355.618.707.946 1.05v.012a63.405 63.405 0 0 0 6.422 6.207c4.273 1.469 4.648 3.492 1.129 6.067-1.461 3.683-6.993 7.433-10.102 9.675-8.137 5.871-17.91 9.168-27.977 9.168zm80.633-28.554c-30.46 0-52.781-29.754-48.168-59.047 8.887-2.805 20.192-8.047 26.164-15.535a61.774 61.774 0 0 0 2.036-2.012c.117-.106.226-.215.324-.332a53.862 53.862 0 0 0 2.652-2.938c.266-.297.512-.59.758-.894a5.42 5.42 0 0 0 .305-.367c1.464-1.766 3.55-4.2 4.62-6.344 2.551-3.863 4.81-8.13 6.43-12.469.121-.266.22-.543.325-.82 27.906-2.739 52.414 20.898 53.363 48.39.937 27.192-21.078 52.368-48.809 52.368zm113.758-241.637c-5.43 0-9.836-4.41-9.836-9.852 0-5.437 4.399-9.847 9.828-9.847h.008c5.434 0 9.832 4.41 9.832 9.847 0 5.442-4.398 9.852-9.832 9.852zm0 0"></path>
    <path d="M507.773 167.695c-8.789-36.222-35.16-67.203-78.43-92.183 6.223-9.453 38.348-71.063 15.485-74.86-13.91-2.308-13.836 21.903-16.43 30.493-4.378 14.5-10.918 28.492-20.304 40.437-.008 0-.008 0-.02.008-18.23 23.918-48.547 37.472-78.312 37.472-8.422-.457-13.559 10.086-7.871 16.395 3.921 4.352 10.558 3.426 15.78 3.094 19.243-1.211 38.54-7.29 54.977-17.36-18.984 70.297 27.625 122.895 83.114 158.52 0 0 .008.012.02.012.097.058.187.117.292.175 1.621 1.004 3.903 1.543 5.762 1.332a2.3 2.3 0 0 0 .453-.05c.36-.035.711-.098 1.063-.188.605-.12 1.226-.367 1.789-.62.07-.02.136-.06.199-.09a1.14 1.14 0 0 0 .195-.098c1.371-.688 2.563-1.727 3.473-2.965l.117-.157c1.293-1.863 31.578-46.093 18.648-99.367-8.789-36.222 12.93 53.274 0 0zm-24.511 67.578c-5.246-16.757-10.543-33.507-16.219-50.125-2.734-8.02-6.074-27.601-16.594-28.785-17.172-1.925-7.844 18.512-5.054 26.317 6.39 17.87 12.035 36.03 17.73 54.129-22.129-17.11-43.281-38.657-51.746-66.043-8.176-26.457-1.586-53.082 8.336-78.086 52.07 30.136 87.254 81.43 63.547 142.593-8.2-26.195 0 0 0 0zm0 0"></path>
  </symbol>
  <symbol xmlns="http://www.w3.org/2000/svg" viewBox="0 0 498.613 498.613" id="nut">
    <path d="M450.231 117.215a7.498 7.498 0 0 0-10.449-1.816 7.499 7.499 0 0 0-1.816 10.45c26.108 37.095 39.908 79.786 39.908 123.458 0 56.535-23.323 111.31-65.674 154.235-31.918 32.351-73.081 56.518-118.814 70.244-9.156-7.448-14.702-22.076-17.242-46.35 9.316 8.669 21.791 13.987 35.491 13.987a52.068 52.068 0 0 0 40.613-19.436c1.26.092 2.518.139 3.766.139 28.758 0 52.154-23.396 52.154-52.154a52.13 52.13 0 0 0-1.57-12.759c13.721-5.632 25.921-14.997 34.891-26.901 10.885-14.445 16.638-31.664 16.638-49.797 0-18.059-5.844-35.444-16.592-49.738a52.116 52.116 0 0 0 16.5-38.064c0-25.479-18.113-46.705-42.434-51.248-.579-23.15-16.217-42.899-38.24-48.937-7.174-25.679-30.74-43.838-57.825-43.838-13.35 0-25.692 4.383-35.674 11.78 5.504-13.186 13.173-24.236 22.343-31.533 44.329 15.451 83.52 40.857 113.623 74.218a7.499 7.499 0 0 0 10.593.543 7.5 7.5 0 0 0 .544-10.592C385.935 43.205 321.794 10.166 250.356.074a7.447 7.447 0 0 0-2.098 0c-66.83 9.441-128.1 39.438-172.522 84.463C30.598 130.287 5.74 188.803 5.74 249.307s24.858 119.02 69.996 164.77c44.423 45.025 105.692 75.021 172.522 84.463a7.518 7.518 0 0 0 2.098 0c66.83-9.441 128.099-39.438 172.521-84.463 45.138-45.75 69.996-104.266 69.996-164.77 0-46.78-14.745-92.456-42.642-132.092zM319.534 63.69c21.584 0 40.188 15.365 44.238 36.535a7.5 7.5 0 0 0 6.085 5.98c17.172 2.978 29.802 17.374 30.702 34.622-11.921 1.2-22.974 6.42-31.56 15.006a7.498 7.498 0 0 0-.001 10.606 7.476 7.476 0 0 0 5.304 2.197 7.474 7.474 0 0 0 5.303-2.197c7.019-7.018 16.35-10.882 26.273-10.882.178 0 .35-.038.519-.092.354.067.712.118 1.077.134 19.939.841 35.559 17.143 35.559 37.113a37.118 37.118 0 0 1-11.58 26.93c-15.343-14.185-35.155-21.97-56.17-21.97-4.143 0-7.5 3.358-7.5 7.5s3.357 7.5 7.5 7.5c18.121 0 35.158 7.057 47.971 19.871.372.372.774.696 1.198.974.26.44.565.858.916 1.243a67.663 67.663 0 0 1 17.758 45.756c0 14.849-4.709 28.947-13.617 40.77-7.365 9.773-17.385 17.447-28.646 22.056a52.062 52.062 0 0 0-44.849-25.524c-13.931 0-27.027 5.425-36.879 15.276a7.5 7.5 0 0 0 10.607 10.606c7.018-7.018 16.348-10.882 26.271-10.882a37.107 37.107 0 0 1 34.238 22.695l.003.005.006.017a36.93 36.93 0 0 1 2.907 14.438c0 18.879-14.157 34.503-32.412 36.841a52.09 52.09 0 0 0 3.034-17.544c0-4.142-3.357-7.5-7.5-7.5s-7.5 3.358-7.5 7.5a36.977 36.977 0 0 1-6.204 20.561c-.01.014-.022.026-.032.041-6.922 10.364-18.48 16.552-30.919 16.552-20.486 0-37.153-16.667-37.153-37.154 0-10.333 4.151-19.936 11.688-27.039a7.501 7.501 0 0 0 .772-10.069c-8.152-10.459-12.461-22.999-12.461-36.261 0-18.289 8.286-35.255 22.734-46.549.067-.052.126-.113.191-.167 10.42-8.076 22.909-12.347 36.137-12.347 4.143 0 7.5-3.358 7.5-7.5s-3.357-7.5-7.5-7.5c-14.464 0-28.224 4.077-40.178 11.837-12.054-12.865-18.884-29.913-18.884-47.655 0-18.473 7.16-35.881 20.162-49.018.026-.026.047-.055.072-.082 13.184-13.282 30.744-20.597 49.462-20.597 4.143 0 7.5-3.358 7.5-7.5s-3.357-7.5-7.5-7.5c-20.503 0-39.851 7.241-55.204 20.486-9.158-8.477-14.493-20.45-14.493-33.065.002-24.843 20.213-45.054 45.055-45.054zM20.739 249.306c0-56.535 23.323-111.31 65.674-154.235 28.917-29.309 65.419-51.906 106.035-66.105 9.151 7.297 16.803 18.334 22.299 31.498-9.981-7.393-22.321-11.775-35.667-11.775-27.086 0-50.652 18.159-57.825 43.838-22.023 6.038-37.661 25.786-38.24 48.937-24.319 4.543-42.434 25.769-42.434 51.248a52.112 52.112 0 0 0 16.5 38.064c-10.749 14.294-16.593 31.679-16.593 49.738 0 1.78.057 3.576.17 5.339.264 4.135 3.861 7.275 7.962 7.007a7.5 7.5 0 0 0 7.007-7.962 69.4 69.4 0 0 1-.139-4.384 67.657 67.657 0 0 1 17.758-45.755c.352-.385.657-.803.917-1.245a7.544 7.544 0 0 0 1.195-.972c12.814-12.813 29.852-19.871 47.973-19.871 4.143 0 7.5-3.358 7.5-7.5s-3.357-7.5-7.5-7.5c-21.015 0-40.827 7.786-56.17 21.971a37.119 37.119 0 0 1-11.58-26.931c0-19.97 15.618-36.271 35.558-37.113a7.317 7.317 0 0 0 1.078-.134c.169.054.341.092.519.092 9.924 0 19.254 3.865 26.272 10.882 1.464 1.465 3.384 2.197 5.303 2.197s3.839-.732 5.304-2.197a7.498 7.498 0 0 0-.001-10.606c-8.586-8.586-19.639-13.807-31.559-15.006.9-17.248 13.53-31.645 30.702-34.622a7.5 7.5 0 0 0 6.085-5.981c4.049-21.169 22.653-36.534 44.238-36.534 24.843 0 45.054 20.211 45.054 45.054 0 12.615-5.335 24.588-14.492 33.065-15.354-13.245-34.702-20.486-55.204-20.486-4.143 0-7.5 3.358-7.5 7.5s3.357 7.5 7.5 7.5c18.719 0 36.282 7.318 49.468 20.603.023.024.043.051.066.075 13.002 13.138 20.162 30.546 20.162 49.018 0 17.741-6.83 34.79-18.884 47.656-11.956-7.76-25.715-11.837-40.179-11.837-4.143 0-7.5 3.358-7.5 7.5s3.357 7.5 7.5 7.5c13.229 0 25.719 4.272 36.141 12.35.063.053.121.112.187.164 14.448 11.294 22.734 28.26 22.734 46.549 0 13.263-4.309 25.802-12.461 36.261a7.5 7.5 0 0 0 .771 10.069c7.538 7.103 11.689 16.705 11.689 27.039 0 20.487-16.667 37.154-37.154 37.154-12.438 0-23.996-6.188-30.918-16.552-.011-.017-.025-.031-.037-.047a36.97 36.97 0 0 1-6.2-20.555c0-4.142-3.357-7.5-7.5-7.5s-7.5 3.358-7.5 7.5a52.11 52.11 0 0 0 3.033 17.544c-18.254-2.337-32.412-17.962-32.412-36.841 0-5.01.979-9.867 2.908-14.437l.008-.021.001-.002a37.106 37.106 0 0 1 34.237-22.694c9.925 0 19.255 3.865 26.272 10.882a7.5 7.5 0 0 0 10.607-10.606c-9.852-9.851-22.948-15.276-36.88-15.276a52.058 52.058 0 0 0-44.849 25.524c-15.431-6.293-28.182-18.159-35.518-33.299a7.5 7.5 0 0 0-13.499 6.541c8.941 18.454 24.471 32.942 43.279 40.634a52.13 52.13 0 0 0-1.569 12.753c0 28.758 23.396 52.154 52.154 52.154 1.248 0 2.506-.046 3.767-.139a52.067 52.067 0 0 0 40.612 19.436c13.699 0 26.174-5.317 35.49-13.985-2.541 24.27-8.085 38.9-17.241 46.348-45.733-13.727-86.895-37.893-118.814-70.244-42.346-42.925-65.67-97.699-65.67-154.235zm228.568 234.23a306.968 306.968 0 0 1-27.594-5.303c12.227-15.78 17.42-43.284 17.42-88.965 0-12.089-4.272-23.845-11.892-33.125 7.799-11.979 11.892-25.768 11.892-40.243 0-20.102-7.977-38.925-22.14-52.8 14.157-15.53 22.14-35.908 22.14-57.081 0-19.694-6.695-38.391-19.006-53.462 12.023-11.278 19.006-27.129 19.006-43.813 0-18.854-3.677-37.605-10.632-54.229-5.116-12.229-11.776-22.654-19.59-30.78a306.154 306.154 0 0 1 40.396-8.659 308.567 308.567 0 0 1 40.409 8.644c-7.82 8.128-14.485 18.557-19.604 30.794-6.955 16.623-10.631 35.375-10.631 54.229 0 16.685 6.982 32.535 19.005 43.813-12.31 15.071-19.005 33.767-19.005 53.462 0 21.174 7.982 41.551 22.139 57.081-14.162 13.875-22.139 32.699-22.139 52.8 0 14.476 4.092 28.263 11.892 40.243-7.619 9.281-11.892 21.037-11.892 33.125 0 45.681 5.193 73.185 17.42 88.965a306.338 306.338 0 0 1-27.594 5.304z"></path>
  </symbol>
  <symbol viewBox="0 0 511 511" xmlns="http://www.w3.org/2000/svg" id="washing-powder">
    <circle cx="135.5" cy="175.5" r="7.5"></circle>
    <circle cx="183.5" cy="175.5" r="7.5"></circle>
    <circle cx="159.5" cy="207" r="7.5"></circle>
    <circle cx="207.5" cy="207" r="7.5"></circle>
    <circle cx="63" cy="207" r="7.5"></circle>
    <circle cx="111.5" cy="207" r="7.5"></circle>
    <circle cx="159.5" cy="144" r="7.5"></circle>
    <circle cx="111.5" cy="144" r="7.5"></circle>
    <circle cx="88" cy="175.5" r="7.5"></circle>
    <path d="M487.5 224h-71.392c-4.143 0-7.5 3.358-7.5 7.5s3.357 7.5 7.5 7.5H487.5c4.687 0 8.5 3.813 8.5 8.5v2.446a8.474 8.474 0 0 1-7.103 8.385l-226.631 37.771a7.5 7.5 0 0 0-6.267 7.398v40c0 31.154-25.346 56.5-56.5 56.5h-128C40.346 400 15 374.654 15 343.5V239h364.326c4.143 0 7.5-3.358 7.5-7.5s-3.357-7.5-7.5-7.5H268.581c-4.269-10.311-15.456-35.376-32.9-60.749C205.433 119.255 170.791 96 135.5 96s-69.933 23.255-100.181 67.251C13.056 195.635.98 227.525.478 228.867c-.015.04-.023.081-.037.121a7.54 7.54 0 0 0-.19.62c-.019.073-.04.146-.056.219-.05.219-.088.441-.119.666-.008.059-.021.118-.027.177a7.34 7.34 0 0 0-.049.83v112C0 382.925 32.075 415 71.5 415h128c39.425 0 71.5-32.075 71.5-71.5v-33.646l220.364-36.727A23.428 23.428 0 0 0 511 249.946V247.5c0-12.958-10.542-23.5-23.5-23.5zm-352-113c61.131 0 103.635 83.529 116.725 113H18.768C31.837 194.529 74.29 111 135.5 111z"></path>
  </symbol>
</svg>