<svg width="0" height="0" class="hidden">
  <symbol  xmlns="http://www.w3.org/2000/svg" viewBox="0 0 36.7 36.7" id="in">
    <path d="M32.3 0H4.4C2 0 0 1.9 0 4.3v28.1c0 2.4 2 4.3 4.4 4.3h27.9c2.4 0 4.4-1.9 4.4-4.3V4.3c0-2.4-2-4.3-4.4-4.3m-5.9 5.7c0-.6.5-1.1 1.1-1.1H31c.6 0 1.1.5 1.1 1.1v3.4c0 .6-.5 1.1-1.1 1.1h-3.4c-.6 0-1.1-.5-1.1-1.1l-.1-3.4zm-8 5.6c3.9 0 7.1 3.1 7.1 7s-3.2 7-7.1 7-7.1-3.1-7.1-7c0-3.8 3.2-7 7.1-7m14.8 20.8c0 .6-.5 1.1-1.1 1.1H4.6c-.6 0-1.1-.5-1.1-1.1V14.9H8c-.6.9-.8 2.5-.8 3.5 0 6.1 5 11.1 11.2 11.1s11.2-5 11.2-11.1c0-1-.1-2.6-.9-3.5h4.6l-.1 17.2z"
      ></path>
  </symbol>
  <symbol  xmlns="http://www.w3.org/2000/svg" viewBox="0 0 36.7 36.7" id="tv">
    <path d="M35.7 3.7c-1.5.9-3.1 1.5-4.8 1.9-1.4-1.5-3.3-2.4-5.5-2.4-4.2 0-7.5 3.5-7.5 7.7 0 .6.1 1.2.2 1.8-6.3-.4-11.8-3.5-15.5-8.2-.6 1.1-1 2.5-1 3.9 0 2.7 1.3 5 3.4 6.4-1.2 0-2.4-.4-3.4-1v.2c0 3.7 2.6 6.9 6 7.6-.6.2-1.3.3-2 .3-.5 0-1 0-1.4-.1 1 3.1 3.7 5.3 7 5.4-2.6 2.1-5.8 3.3-9.4 3.3-.6 0-1.2 0-1.8-.1 3.3 2.2 7.3 3.5 11.5 3.5 13.9 0 21.4-11.8 21.4-22v-1c1.5-1.1 2.8-2.4 3.8-4-1.3.6-2.8 1-4.3 1.2 1.5-1.1 2.7-2.6 3.3-4.4"
     ></path>
  </symbol>
  <symbol  xmlns="http://www.w3.org/2000/svg" viewBox="0 0 36.7 36.7" id="vk">
    <path d="M36.5 26.8c0-.1-.1-.2-.1-.2-.6-1.1-1.9-2.6-3.7-4.2-.8-.8-1.3-1.3-1.5-1.6-.4-.5-.5-1-.3-1.5.2-.4.7-1.2 1.7-2.5.5-.7.9-1.2 1.2-1.6 2.2-2.9 3.2-4.8 2.9-5.6l-.1-.2c-.1-.3-.3-.4-.6-.5-.3-.1-.7-.1-1.2 0h-5.9c-.2 0-.2.1-.2.1h-.1l-.1.1c-.1 0-.1.1-.2.2s-.1.2-.2.3c-.6 1.5-1.3 3-2 4.3-.5.8-.9 1.5-1.3 2.1-.4.6-.7 1-1 1.3l-.7.7c-.2.2-.4.2-.5.2-.1 0-.2-.1-.3-.1-.2-.1-.3-.3-.4-.5-.1-.2-.2-.4-.2-.7 0-.3-.1-.6-.1-.8v-5.7c0-.4 0-.7-.1-.9 0-.2-.1-.4-.2-.6-.1-.2-.2-.4-.4-.5l-.6-.3c-.7-.2-1.5-.2-2.6-.2-2.4 0-3.9.1-4.6.5-.3.1-.5.3-.7.6-.2.3-.3.4-.1.5.8.1 1.3.4 1.6.8l.1.2c.1.2.2.5.3.9.1.4.1.9.2 1.4.1.9.1 1.7 0 2.4s-.1 1.2-.2 1.5c-.1.4-.1.7-.3.9l-.2.4c0 .1-.1.1-.1.1-.2.1-.3.1-.5.1s-.4-.1-.6-.3c-.3-.2-.5-.4-.8-.7-.3-.3-.6-.7-.9-1.3-.3-.6-.7-1.2-1.1-2l-.3-.6c-.2-.4-.5-.9-.8-1.6-.3-.7-.6-1.3-.9-2-.1-.2-.3-.4-.5-.6h-.1C7.1 9 7 9 6.9 8.9c-.1 0-.3-.1-.4-.1H1.3c-.6 0-1 .2-1.2.4v.1c-.1.1-.1.2-.1.3 0 .1 0 .3.1.5.8 1.8 1.6 3.5 2.5 5.2.9 1.7 1.7 3 2.3 4 .7 1 1.3 2 2 2.9.7.9 1.1 1.5 1.4 1.7.2.3.4.4.5.6l.5.5c.3.3.8.7 1.3 1.1.6.4 1.2.8 2 1.3.7.4 1.6.8 2.5 1 1 .3 1.9.4 2.8.3h2.2c.4 0 .8-.2 1-.4l.1-.1c.1-.1.1-.2.1-.4s.1-.3.1-.5c0-.5 0-1 .1-1.5.1-.4.2-.8.3-1 .1-.2.3-.4.4-.6.2-.2.3-.2.3-.3.1 0 .1-.1.2-.1.3-.1.7 0 1.1.3.4.3.8.7 1.2 1.1.4.4.8.9 1.3 1.5.5.5 1 1 1.3 1.2l.4.2c.3.2.6.3 1 .4.4.1.8.2 1.1.1l4.9-.1c.5 0 .9-.1 1.1-.2.3-.2.4-.3.5-.5.1-.2.1-.4 0-.7 0 0 0-.2-.1-.3zm0 0"
     ></path>
  </symbol>
  <symbol  xmlns="http://www.w3.org/2000/svg" viewBox="0 0 36.7 36.7" id="f">
    <path d="M36.7 34.7c0 1.1-.9 2-2 2h-9.4V22.5h4.8l.7-5.5h-5.5v-3.5c0-1.6.4-2.7 2.7-2.7h2.9v-5c-.5-.1-2.2-.2-4.3-.2-4.2 0-7.1 2.6-7.1 7.3V17h-4.8v5.5h4.8v14.2H2c-1.1 0-2-.9-2-2V2C0 .9.9 0 2 0h32.7c1.1 0 2 .9 2 2v32.7z" ></path>
  </symbol>
</svg>