
<svg version="1.1" id="Слой_1" xmlns="http://www.w3.org/2000/svg" xmlns:xlink="http://www.w3.org/1999/xlink" x="0px" y="0px"
	 viewBox="0 0 18 18" style="enable-background:new 0 0 18 18;" xml:space="preserve">
<symbol  id="close">
<path class="st0" d="M12.2,9l5.2-5.2c0.8-0.8,0.8-2,0-2.7l-0.4-0.4c-0.8-0.8-2-0.8-2.7,0L9,5.8L3.8,0.6C3-0.2,1.8-0.2,1,0.6L0.6,1
	c-0.8,0.8-0.8,2,0,2.7L5.8,9l-5.2,5.2c-0.8,0.8-0.8,2,0,2.7L1,17.4c0.8,0.8,2,0.8,2.7,0L9,12.2l5.2,5.2c0.8,0.8,2,0.8,2.7,0l0.4-0.4
	c0.8-0.8,0.8-2,0-2.7L12.2,9z"/>
</symbol>

	<symbol  id="phone" viewBox="0 0 401.998 401.998">
<g>
	<path class="phone" d="M401.129,311.475c-1.137-3.426-8.371-8.473-21.697-15.129c-3.61-2.098-8.754-4.949-15.41-8.566
		c-6.662-3.617-12.709-6.95-18.13-9.996c-5.432-3.045-10.521-5.995-15.276-8.846c-0.76-0.571-3.139-2.234-7.136-5
		c-4.001-2.758-7.375-4.805-10.14-6.14c-2.759-1.327-5.473-1.995-8.138-1.995c-3.806,0-8.56,2.714-14.268,8.135
		c-5.708,5.428-10.944,11.324-15.7,17.706c-4.757,6.379-9.802,12.275-15.126,17.7c-5.332,5.427-9.713,8.138-13.135,8.138
		c-1.718,0-3.86-0.479-6.427-1.424c-2.566-0.951-4.518-1.766-5.858-2.423c-1.328-0.671-3.607-1.999-6.845-4.004
		c-3.244-1.999-5.048-3.094-5.428-3.285c-26.075-14.469-48.438-31.029-67.093-49.676c-18.649-18.658-35.211-41.019-49.676-67.097
		c-0.19-0.381-1.287-2.19-3.284-5.424c-2-3.237-3.333-5.518-3.999-6.854c-0.666-1.331-1.475-3.283-2.425-5.852
		s-1.427-4.709-1.427-6.424c0-3.424,2.713-7.804,8.138-13.134c5.424-5.327,11.326-10.373,17.7-15.128
		c6.379-4.755,12.275-9.991,17.701-15.699c5.424-5.711,8.136-10.467,8.136-14.273c0-2.663-0.666-5.378-1.997-8.137
		c-1.332-2.765-3.378-6.139-6.139-10.138c-2.762-3.997-4.427-6.374-4.999-7.139c-2.852-4.755-5.799-9.846-8.848-15.271
		c-3.049-5.424-6.377-11.47-9.995-18.131c-3.615-6.658-6.468-11.799-8.564-15.415C98.986,9.233,93.943,1.997,90.516,0.859
		C89.183,0.288,87.183,0,84.521,0c-5.142,0-11.85,0.95-20.129,2.856c-8.282,1.903-14.799,3.899-19.558,5.996
		c-9.517,3.995-19.604,15.605-30.264,34.826C4.863,61.566,0.01,79.271,0.01,96.78c0,5.135,0.333,10.131,0.999,14.989
		c0.666,4.853,1.856,10.326,3.571,16.418c1.712,6.09,3.093,10.614,4.137,13.56c1.045,2.948,2.996,8.229,5.852,15.845
		c2.852,7.614,4.567,12.275,5.138,13.988c6.661,18.654,14.56,35.307,23.695,49.964c15.03,24.362,35.541,49.539,61.521,75.521
		c25.981,25.98,51.153,46.49,75.517,61.526c14.655,9.134,31.314,17.032,49.965,23.698c1.714,0.568,6.375,2.279,13.986,5.141
		c7.614,2.854,12.897,4.805,15.845,5.852c2.949,1.048,7.474,2.43,13.559,4.145c6.098,1.715,11.566,2.905,16.419,3.576
		c4.856,0.657,9.853,0.996,14.989,0.996c17.508,0,35.214-4.856,53.105-14.562c19.219-10.656,30.826-20.745,34.823-30.269
		c2.102-4.754,4.093-11.273,5.996-19.555c1.909-8.278,2.857-14.985,2.857-20.126C401.99,314.814,401.703,312.819,401.129,311.475z"
		/>
</g>
</symbol>

	<symbol  id="burger"  viewBox="0 0 24 22.1">
<g>
	<path class="st0" d="M22.1,0H1.9C0.8,0,0,0.8,0,1.9v0.3C0,3.2,0.8,4,1.9,4h20.3c1,0,1.9-0.8,1.9-1.9V1.9C24,0.8,23.2,0,22.1,0z"/>
	<path class="st0" d="M22.1,9H1.9C0.8,9,0,9.9,0,10.9v0.3c0,1,0.8,1.9,1.9,1.9h20.3c1,0,1.9-0.8,1.9-1.9v-0.3C24,9.9,23.2,9,22.1,9z
		"/>
	<path class="st0" d="M22.1,18H1.9c-1,0-1.9,0.8-1.9,1.9v0.3c0,1,0.8,1.9,1.9,1.9h20.3c1,0,1.9-0.8,1.9-1.9v-0.3
		C24,18.9,23.2,18,22.1,18z"/>
</g>
</symbol>

	 <symbol xmlns="http://www.w3.org/2000/svg" viewBox="0 0 442.326 442.326" id="chocolate-bar">
    <path d="M430.024 68.87l-56.568-56.568C365.523 4.369 354.976 0 343.757 0c-11.218 0-21.766 4.369-29.699 12.302a41.962 41.962 0 0 0-12.3 30.598 41.91 41.91 0 0 0-30.597 12.301 41.949 41.949 0 0 0-12.3 30.598c-11.206-.274-22.305 4.008-30.598 12.3a41.962 41.962 0 0 0-12.3 30.597c-11.214-.228-22.305 4.008-30.597 12.301h-.001L45.358 281.003l-.023.023-42.279 42.278a9.955 9.955 0 0 0-2.729 4.671 9.952 9.952 0 0 0 .556 6.629l.002.003c.214.475.463.93.746 1.362a9.968 9.968 0 0 0 5.583 4.135l.019.005c.01.005.016.006.023.007l34.258 9.789 9.789 34.258a10 10 0 0 0 6.868 6.868l34.254 9.785 9.787 34.255a.328.328 0 0 0 .006.022l.003.01.003.013.004.013.001.005a9.963 9.963 0 0 0 5.436 6.284l.012.005a9.978 9.978 0 0 0 4.144.904c.909 0 1.834-.125 2.752-.388a9.95 9.95 0 0 0 4.451-2.671l42.276-42.276a.25.25 0 0 0 .023-.023l60.658-60.658a10 10 0 0 0 14.142 0l72.278-72.278c3.905-3.905 3.905-10.237 0-14.143l-.85-.85a41.99 41.99 0 0 0 6.08-22.677 42 42 0 0 0 30.597-12.3 41.949 41.949 0 0 0 12.3-30.598c11.2.261 22.305-4.008 30.598-12.3a41.95 41.95 0 0 0 12.3-30.598c11.205.209 22.305-4.009 30.597-12.301 7.933-7.933 12.302-18.479 12.302-29.698.001-11.217-4.368-21.764-12.301-29.698zM116.773 413.234l-6.644-23.255a10 10 0 0 0-6.868-6.868l-34.254-9.785-9.789-34.258a10 10 0 0 0-6.868-6.868l-23.259-6.646 23.338-23.338 87.681 87.682-23.337 23.336zm118.18-104.038L211.46 200.459c-1.167-5.398-6.488-8.825-11.886-7.662-5.398 1.166-8.829 6.488-7.663 11.886l23.703 109.71-61.362 61.362-87.681-87.681 125.865-125.865 94.752 94.752-52.235 52.235zm180.93-195.071a21.985 21.985 0 0 1-25.349 4.145 10 10 0 0 0-13.406 13.406 21.98 21.98 0 0 1-4.144 25.348 21.978 21.978 0 0 1-25.348 4.144 9.999 9.999 0 0 0-13.406 13.406 21.98 21.98 0 0 1-4.144 25.348 21.98 21.98 0 0 1-25.348 4.144 10 10 0 0 0-13.406 13.406 21.972 21.972 0 0 1 1.231 16.581l-84.289-84.289a21.97 21.97 0 0 1 16.58 1.231 9.999 9.999 0 0 0 13.406-13.406 21.978 21.978 0 0 1 4.144-25.348 21.974 21.974 0 0 1 25.348-4.143 9.999 9.999 0 0 0 13.406-13.406 21.981 21.981 0 0 1 4.144-25.349 21.981 21.981 0 0 1 25.348-4.144 10 10 0 0 0 13.406-13.406 21.976 21.976 0 0 1 4.144-25.348 21.857 21.857 0 0 1 15.556-6.444 21.857 21.857 0 0 1 15.556 6.444l56.569 56.568a21.857 21.857 0 0 1 6.444 15.557 21.854 21.854 0 0 1-6.442 15.555z"></path>
  </symbol>

	<symbol xmlns="http://www.w3.org/2000/svg" viewBox="0 0 14.2 25.5" id="arrow">
    <path fill="#0d0e0f" d="M14.2 12.7L1.5 0 0 1.5l11.3 11.2L0 24l1.5 1.5 12.7-12.8z"></path>
  </symbol>

</svg>
