<?xml version="1.0" encoding="utf-8"?><svg xmlns="http://www.w3.org/2000/svg" xmlns:xlink="http://www.w3.org/1999/xlink"><symbol id="4" viewBox="0 0 15.2 15.2" xml:space="preserve" xmlns="http://www.w3.org/2000/svg"><style>.aast0{fill:#c6f7ff}</style><path class="aast0" d="M4.3 3c0 .2.4.4 1 .4s1-.2 1-.4-.4-.4-1-.4c-.5 0-1 .1-1 .4z"/><path class="aast0" d="M15.1 6.7c0-1-.8-1.8-1.8-1.8H4.1S1.7 5 .6 3.1C.7 1.7 1.8.7 3.2.7h4c1.5 0 2.6 1.2 2.6 2.6v.5h.5v-.4C10.3 1.6 8.9.2 7.1.2H3.3C1.5.2.1 1.6.1 3.4v4.7c0 1.8 1.4 3.2 3.2 3.2H4v-.5h-.8C1.7 10.8.6 9.6.6 8.2V4c.3.4 1.3 1.4 3.4 1.4h9.3c.7 0 1.2.5 1.2 1.2v.8c0 .7-.5 1.2-1.2 1.2H6.9c-1 0-1.8.8-1.8 1.8v2.7c0 1 .8 1.8 1.8 1.8h6.4c1 0 1.8-.8 1.8-1.8V6.7zm-.6 6.6c0 .7-.5 1.2-1.2 1.2H6.8c-.7 0-1.2-.5-1.2-1.2v-2.9c0-.7.5-1.2 1.2-1.2h1.9v1.7h.5V9.2h3.2v1.7h.5V9.2h.4c.5 0 1-.2 1.3-.5v4.6z"/></symbol><symbol id="5" viewBox="0 0 16 15.2" xml:space="preserve" xmlns="http://www.w3.org/2000/svg"><style>.abst0{fill:#c6f7ff}</style><path class="abst0" d="M2.3 9.3c0 .2.1.4.1.6 0 .8.1 2.1.1 2.1H3s0-2.1-.3-3.2c-.3-1.2-.4-3.4.3-5l-.5-.2s-.6 1.2-.6 3.1c0 1.2.1 1.7.2 2.2C1.7 8.6.6 7.6.7 5.5.9 3.1 3 .9 3 .9s3.7 3.5.4 7.4l.4.3S5.3 6.9 5.3 5c0-1.9-.8-3.5-2.3-4.8C3 .2.4 2.7.2 5.7c-.1 2.8 2 3.8 2 3.8l.1-.2z"/><path class="abst0" d="M7.5 6.7C3.8 7.8 4 11.4 4.1 12.2c-1.3 1.3-1.9 2.5-1.9 2.5l.4.2c3.8-6.3 9.7-5.1 9.7-5.1v-.5c-3.6-.4-6.1 1-7.8 2.4-.1-1.3.5-4.4 4.3-4.7 4.4-.1 6.5 2.5 6.5 2.5-2.3 3.7-4.9 4.2-6.5 4.4C7.1 14.2 5 13 5 13l-.2.4s1.8 1.2 4.1 1c5-.6 6.9-5 6.9-5-.5-1-4.2-3.7-8.3-2.7z"/></symbol><symbol id="6" viewBox="0 0 18.2 14.8" xml:space="preserve" xmlns="http://www.w3.org/2000/svg"><style>.acst0{fill:#c6f7ff}</style><path class="acst0" d="M2.9 5.7l1-.8H4c.3 0 .5-.2.5-.5 0-.2-.1-.3-.2-.4V1.9h-.5V4c-.2.1-.3.2-.3.4v.1l-1 .8.4.4z"/><path class="acst0" d="M18.1 11.1V7.9c0-1-.4-1.4-.4-1.4s-1-1.3-1.6-2.1-1.4-.8-1.4-.8h-3.4v-.5c0-.7-.5-1.2-1.2-1.2H7.2C6.5.9 5.3.2 4 .2 1.8.2.1 2 .1 4.2c0 .9.3 1.7.8 2.4V11c0 .7.5 1.2 1.2 1.2h.5v.1c0 1.2 1 2.2 2.2 2.2 1.2 0 2.2-1 2.2-2.2v-.1h5v.1c0 1.2 1 2.2 2.2 2.2 1.2 0 2.2-1 2.2-2.2v-.1h.2c1.7.1 1.5-1.1 1.5-1.1zm-.5-3.5v.3h-3.9c-.2 0-.4-.2-.4-.4V5.9c0-.2.2-.4.4-.4h2.6c.3.3.6.7.8 1 .5.6.5 1.1.5 1.1zM4 .8c1.9 0 3.5 1.5 3.5 3.5S5.9 7.7 4 7.7.6 6.1.6 4.2 2.1.8 4 .8zM4.7 14c-.9 0-1.6-.7-1.6-1.6s.7-1.6 1.6-1.6 1.6.7 1.6 1.6S5.6 14 4.7 14zm2-2.3c-.3-.8-1.1-1.5-2-1.5-.9 0-1.7.6-2 1.5H2c-.3 0-.6-.3-.6-.6v-4c.7.6 1.6 1 2.6 1 2.2 0 3.9-1.8 3.9-3.9 0-.6-.2-1.2-.4-1.7h2.6c.3 0 .6.3.6.6v8c0 .3-.3.6-.6.6H6.7zm7.4 2.3c-.9 0-1.6-.7-1.6-1.6s.7-1.6 1.6-1.6 1.6.7 1.6 1.6S15 14 14.1 14zm2.5-2.2h-.4c-.3-.9-1.1-1.5-2-1.5-1 0-1.8.6-2 1.5h-1c.2-.2.3-.4.3-.7V4h3.1c.9 0 1.3.6 1.3.6s-.1.2.1.4h-2.3c-.5 0-.8.4-.8.8v1.6c0 .5.4.8.8.8h4v2.6c-.1 1.1-1.1 1-1.1 1z"/></symbol><symbol viewBox="0 0 511.999 511.999" id="almond2" xmlns="http://www.w3.org/2000/svg"><path d="M240.383 409.486c-5.292-1.582-10.863 1.43-12.441 6.723-13.313 44.607-55.158 75.762-101.762 75.762C67.632 491.97 20 444.338 20 385.79c0-78.521 27.642-155.019 77.832-215.402l16.903-20.336c2.836-3.412 7.008-5.369 11.444-5.369s8.608 1.957 11.444 5.368l16.903 20.337a337.284 337.284 0 0173.372 160.754c.895 5.448 6.033 9.146 11.489 8.245 5.449-.896 9.142-6.039 8.245-11.489a357.283 357.283 0 00-77.726-170.293l-16.903-20.338c-6.648-7.997-16.426-12.584-26.825-12.584s-20.177 4.587-26.825 12.585L82.45 157.604C29.282 221.571 0 302.61 0 385.79c0 69.575 56.604 126.18 126.18 126.18 27.715 0 54.018-8.816 76.064-25.496 21.322-16.132 37.254-39.055 44.861-64.547 1.581-5.292-1.43-10.862-6.722-12.441z"/><path d="M121.449 252.915c-4.865 2.612-6.692 8.675-4.08 13.541 16.498 30.729 26.637 65.315 29.317 100.02.405 5.244 4.786 9.23 9.96 9.23.258 0 .52-.011.781-.03 5.506-.426 9.625-5.234 9.2-10.741-2.936-37.989-13.58-74.306-31.638-107.939-2.612-4.866-8.673-6.693-13.54-4.081zm4.731 174.128c5.522 0 10-4.478 10-10s-4.478-10-10-10c-11.719 0-21.253-9.534-21.253-21.253 0-12.47.944-25.058 2.807-37.413.822-5.461-2.938-10.556-8.398-11.379-5.454-.821-10.556 2.937-11.379 8.398a271.98 271.98 0 00-3.029 40.394c-.001 22.747 18.505 41.253 41.252 41.253zm0 42.463c46.161 0 83.717-37.555 83.717-83.716 0-5.522-4.478-10-10-10s-10 4.478-10 10c0 35.133-28.583 63.716-63.717 63.716-5.522 0-10 4.478-10 10s4.477 10 10 10zm65.189-145.11c.777 0 1.567-.091 2.356-.281 5.368-1.298 8.669-6.701 7.371-12.069a315.478 315.478 0 00-32.329-81.712c-2.728-4.803-8.831-6.485-13.634-3.757-4.802 2.727-6.484 8.831-3.757 13.634a295.55 295.55 0 0130.28 76.532c1.108 4.578 5.201 7.653 9.713 7.653zM87.663 243.373c-4.962-2.417-10.95-.354-13.368 4.612-20.824 42.762-31.831 90.413-31.831 137.805 0 5.522 4.478 10 10 10s10-4.478 10-10c0-44.375 10.309-88.999 29.812-129.049 2.417-4.964.353-10.95-4.613-13.368zm424.188 39.541l-2.428-26.333c-7.636-82.829-44.233-160.837-103.05-219.654-49.198-49.197-129.25-49.196-178.446 0-49.196 49.198-49.196 129.248.001 178.445 58.818 58.817 136.826 95.415 219.654 103.05l26.332 2.428c1.081.1 2.158.148 3.231.148 9.213 0 18.05-3.632 24.636-10.218a34.783 34.783 0 0010.07-27.866zm-24.211 13.724a14.826 14.826 0 01-11.89 4.296l-26.332-2.428c-78.188-7.207-151.825-41.753-207.349-97.276-41.398-41.399-41.398-108.761.001-150.16 20.054-20.055 46.718-31.1 75.08-31.1 28.361 0 55.025 11.045 75.08 31.1 55.521 55.521 90.068 129.159 97.276 207.348l2.428 26.333a14.837 14.837 0 01-4.294 11.887z"/><path d="M317.149 104.911c5.687 0 11.023 2.206 15.028 6.211a251.917 251.917 0 0124.471 28.439 9.988 9.988 0 008.054 4.063 9.962 9.962 0 005.931-1.955c4.443-3.279 5.387-9.54 2.107-13.984a271.853 271.853 0 00-26.42-30.705c-7.782-7.782-18.142-12.068-29.17-12.068h-.001c-11.028 0-21.389 4.286-29.17 12.069-3.905 3.905-3.905 10.236.001 14.142 3.904 3.904 10.237 3.905 14.142-.001 4.005-4.005 9.342-6.211 15.027-6.211zm90.613 99.391c-33.393-10.063-65.018-27.35-91.456-49.993-4.196-3.594-10.508-3.105-14.1 1.09-3.593 4.194-3.104 10.507 1.09 14.1 28.94 24.788 62.146 42.94 98.696 53.954.962.289 1.933.428 2.889.428 4.297 0 8.268-2.792 9.571-7.118 1.593-5.288-1.402-10.867-6.69-12.461zM376.347 66.953c-3.906-3.904-10.236-3.904-14.143 0-3.905 3.905-3.905 10.237 0 14.143 31.377 31.377 55.642 70.22 70.171 112.331a10.004 10.004 0 009.452 6.741 9.982 9.982 0 003.263-.55c5.221-1.802 7.993-7.494 6.191-12.715-15.512-44.961-41.425-86.44-74.934-119.95zm25.927 179.953a295.472 295.472 0 01-75.529-32.705c-4.714-2.88-10.867-1.391-13.746 3.322s-1.392 10.867 3.322 13.746a315.464 315.464 0 0080.639 34.918c.89.245 1.783.362 2.663.362 4.388 0 8.412-2.911 9.635-7.346 1.467-5.324-1.659-10.83-6.984-12.297zM272.096 66.953c-3.906-3.904-10.236-3.904-14.143 0-32.641 32.642-32.641 85.752 0 118.394 1.953 1.952 4.512 2.929 7.071 2.929s5.118-.977 7.071-2.929c3.905-3.905 3.905-10.237 0-14.143-24.844-24.843-24.844-65.266 0-90.108 3.906-3.905 3.906-10.237.001-14.143zM242.17 364.3c-2.63 0-5.21 1.069-7.07 2.93a10.08 10.08 0 00-2.93 7.07c0 2.64 1.07 5.21 2.93 7.069 1.86 1.87 4.44 2.931 7.07 2.931s5.21-1.061 7.07-2.931c1.859-1.859 2.93-4.439 2.93-7.069s-1.07-5.21-2.93-7.07a10.071 10.071 0 00-7.07-2.93z"/></symbol><symbol viewBox="0 0 60 60" id="apitherapy" xmlns="http://www.w3.org/2000/svg"><path d="M.47 53.848C9.168 59.285 8.592 59 9 59s-.1.239 8-4.821C25.117 59.252 24.6 59 25 59s0 .177 6.54-3.912a1.002 1.002 0 00-1.061-1.7L25 56.821l-7-4.375v-6.892l3.651-2.286a1.002 1.002 0 00-1.062-1.7L17 43.82l-7-4.374v-6.892l7-4.374c3.9 2.443 3.643 2.316 3.922 2.373a1 1 0 00.729-1.821L18 26.446v-6.892l7-4.375 7 4.375V21a1 1 0 002 0v-1.446l7-4.375 7 4.375V27a1 1 0 002 0v-8a1 1 0 00-.47-.848L42 13.446V6a1 1 0 00-.47-.848l-8-5a1 1 0 00-1.06 0L25 4.821 17.53.152a1 1 0 00-1.06 0l-8 5A1 1 0 008 6v7.446L.47 18.152A1 1 0 000 19v8a1 1 0 00.47.848L8 32.554v6.892L.47 44.152A1 1 0 000 45v8a1 1 0 00.47.848zM33 2.179l7 4.375v6.892l-7 4.375-7-4.375V6.554zm-16 0l7 4.375v6.892l-7 4.375-7-4.375V6.554zM2 19.554l7-4.375 7 4.375v6.892l-7 4.375-7-4.375zm0 26l7-4.375 7 4.375v6.892l-7 4.375-7-4.375z"/><path d="M46 30.012V29a5.987 5.987 0 00-2.1-4.553l1-2a1 1 0 00-1.79-.892l-.927 1.861a5.925 5.925 0 00-4.356 0l-.927-1.862a1 1 0 10-1.79.892l1 2A5.987 5.987 0 0034 29v1.009C33.09 30 32.1 30 31 30c-5.312 0-11 2.411-11 6 0 4.308 8.125 6.579 12.167 5.891-.092.8-.167 1.89-.167 2.609 0 7 3 12.581 7 13.389V59a1 1 0 002 0v-1.111c4-.808 7-6.393 7-13.389 0-.715-.076-1.812-.166-2.6C51.929 42.577 60 40.3 60 36c0-3.589-5.688-6-11-6-1.05 0-2.061 0-3 .012zM36 29a4 4 0 118 0v1.052a12.671 12.671 0 00-3.993.576A11.966 11.966 0 0036 30.049zm4.006 6.381A13.316 13.316 0 0041.727 38H38.27a14.211 14.211 0 001.736-2.619zM22 36c0-1.8 4.153-4 9-4 2 0 6.731-.036 7.973.358C38.631 34.763 35.146 40 31 40c-4.847 0-9-2.2-9-4zm14.214 4h7.555c.606.479 1.262.89 1.957 1.225.04.257.075.516.106.775H39a1 1 0 000 2h6.977c.044.667.031 1.336-.037 2H34.06a12.533 12.533 0 01-.037-2H35a1 1 0 000-2h-.832c.032-.265.067-.53.109-.793.688-.33 1.337-.735 1.937-1.207zM35.5 52H40a1 1 0 000-2h-5.241a18.416 18.416 0 01-.46-2H45.7c-.116.675-.27 1.342-.46 2H44a1 1 0 000 2h.5c-2.434 5.33-6.567 5.328-9 0zM58 36c0 2.487-7.435 4.99-10.992 3.61a11.025 11.025 0 01-5.978-7.237c1.437-.433 5.77-.358 7.97-.373 4.847 0 9 2.2 9 4z"/></symbol><symbol viewBox="0 0 14.2 25.5" id="arrow" xmlns="http://www.w3.org/2000/svg"><path d="M14.2 12.7L1.5 0 0 1.5l11.3 11.2L0 24l1.5 1.5 12.7-12.8z"/></symbol><symbol viewBox="0 0 512.001 512.001" id="beans" xmlns="http://www.w3.org/2000/svg"><path d="M242.488 120.593c-3.526-4.394-9.945-5.097-14.337-1.571-5.263 4.224-11.622 6.457-18.39 6.457-6.768 0-13.127-2.232-18.39-6.457-4.392-3.527-10.811-2.823-14.337 1.571-3.526 4.392-2.823 10.811 1.571 14.337 8.795 7.058 19.859 10.946 31.156 10.946 11.297 0 22.361-3.888 31.156-10.946 4.394-3.526 5.097-9.944 1.571-14.337z"/><path d="M504.631 264.492c-8.163-22.526-22.391-41.812-41.147-55.774-13.269-9.878-28.419-16.679-44.683-20.203 3.462-32.092-6.464-65.395-27.393-90.697-22.63-27.358-55.115-42.424-91.47-42.424h-5.942c-25.451 0-50.164 9.038-71.469 26.135-3.653 2.932-8.068 4.482-12.766 4.482s-9.113-1.55-12.766-4.482c-21.304-17.099-46.018-26.135-71.469-26.135h-5.942c-26.268 0-50.843 7.958-71.069 23.014C29.76 92.37 15.532 111.657 7.369 134.182c-8.129 22.435-9.564 46.232-4.149 68.822 5.843 24.371 19.547 46.11 39.632 62.866a261.144 261.144 0 0049.861 32.725c-.727 11.66.258 23.342 2.985 34.719 5.843 24.371 19.547 46.11 39.632 62.866 46.708 38.966 105.984 60.427 166.909 60.427s120.202-21.459 166.909-60.427c20.085-16.756 33.789-38.495 39.631-62.866 5.416-22.588 3.982-46.387-4.148-68.822zM95.972 277.276a240.883 240.883 0 01-40.053-27.067c-39.007-32.542-40.749-77.682-29.372-109.077 11.446-31.588 41.898-65.34 93.039-65.34h5.942c20.758 0 41.057 7.485 58.702 21.646 7.208 5.786 16.276 8.971 25.533 8.971s18.325-3.186 25.533-8.971c17.644-14.162 37.944-21.646 58.702-21.646h5.942c30.165 0 57.068 12.44 75.754 35.029 17.351 20.974 25.637 48.509 22.887 75.049a128.576 128.576 0 00-6.163-.165h-5.942c-25.451 0-50.164 9.038-71.469 26.135-3.653 2.932-8.067 4.481-12.766 4.481s-9.113-1.55-12.766-4.481c-21.305-17.099-46.018-26.135-71.469-26.135h-5.942c-26.268 0-50.843 7.958-71.069 23.014-18.756 13.962-32.985 33.249-41.147 55.774a124.227 124.227 0 00-3.876 12.783zm360.11 103.242c-43.047 35.914-97.683 55.692-153.843 55.692s-110.796-19.779-153.843-55.692c-39.007-32.541-40.749-77.682-29.373-109.077 11.447-31.588 41.898-65.34 93.039-65.34h5.942c20.758 0 41.057 7.485 58.702 21.646 7.208 5.785 16.276 8.971 25.533 8.971s18.324-3.186 25.533-8.971c17.645-14.161 37.944-21.646 58.702-21.646h5.942c51.141 0 81.592 33.753 93.039 65.34 11.376 31.395 9.633 76.536-29.373 109.077z"/><path d="M333.342 249.52c-3.526-4.393-9.944-5.096-14.337-1.571-5.263 4.224-11.622 6.457-18.39 6.457-6.768 0-13.126-2.232-18.39-6.457-4.392-3.526-10.811-2.823-14.337 1.571-3.526 4.392-2.823 10.811 1.571 14.337 8.795 7.058 19.86 10.946 31.156 10.946s22.361-3.887 31.156-10.946c4.393-3.525 5.097-9.944 1.571-14.337zm78.732 135.412c-2.57-5.011-8.718-6.991-13.729-4.419-29.909 15.341-62.244 23.12-96.106 23.12-5.633 0-10.198 4.566-10.198 10.198 0 5.633 4.566 10.198 10.198 10.198 37.131 0 72.598-8.535 105.415-25.369 5.011-2.57 6.99-8.717 4.42-13.728zm39.534-28.871c-3.608-4.327-10.038-4.909-14.363-1.3a214.734 214.734 0 01-7.237 5.774c-4.479 3.417-5.34 9.816-1.924 14.294a10.18 10.18 0 008.116 4.014c2.157 0 4.33-.681 6.177-2.09a231.852 231.852 0 007.932-6.329c4.325-3.608 4.907-10.039 1.299-14.363z"/></symbol><symbol viewBox="0 0 10.9 8.7" id="checkmark" xmlns="http://www.w3.org/2000/svg"><path d="M10.3.6C9.6-.2 8.4-.2 7.7.5L4 4.2l-.8-.8c-.7-.7-1.9-.7-2.6 0H.5c-.7.7-.7 1.9 0 2.6l2.2 2.2c.4.4.9.5 1.3.5.5 0 .9-.2 1.3-.5l5-5c.7-.7.7-1.9 0-2.6z"/></symbol><symbol viewBox="0 0 442.326 442.326" id="chocolate-bar" xmlns="http://www.w3.org/2000/svg"><path d="M430.024 68.87l-56.568-56.568C365.523 4.369 354.976 0 343.757 0c-11.218 0-21.766 4.369-29.699 12.302a41.962 41.962 0 00-12.3 30.598 41.91 41.91 0 00-30.597 12.301 41.949 41.949 0 00-12.3 30.598c-11.206-.274-22.305 4.008-30.598 12.3a41.962 41.962 0 00-12.3 30.597c-11.214-.228-22.305 4.008-30.597 12.301h-.001L45.358 281.003l-.023.023-42.279 42.278a9.955 9.955 0 00-2.729 4.671 9.952 9.952 0 00.556 6.629l.002.003c.214.475.463.93.746 1.362a9.968 9.968 0 005.583 4.135l.019.005c.01.005.016.006.023.007l34.258 9.789 9.789 34.258a10 10 0 006.868 6.868l34.254 9.785 9.787 34.255a.328.328 0 00.006.022l.003.01.003.013.004.013.001.005a9.963 9.963 0 005.436 6.284l.012.005a9.978 9.978 0 004.144.904c.909 0 1.834-.125 2.752-.388a9.95 9.95 0 004.451-2.671l42.276-42.276a.25.25 0 00.023-.023l60.658-60.658a10 10 0 0014.142 0l72.278-72.278c3.905-3.905 3.905-10.237 0-14.143l-.85-.85a41.99 41.99 0 006.08-22.677 42 42 0 0030.597-12.3 41.949 41.949 0 0012.3-30.598c11.2.261 22.305-4.008 30.598-12.3a41.95 41.95 0 0012.3-30.598c11.205.209 22.305-4.009 30.597-12.301 7.933-7.933 12.302-18.479 12.302-29.698.001-11.217-4.368-21.764-12.301-29.698zM116.773 413.234l-6.644-23.255a10 10 0 00-6.868-6.868l-34.254-9.785-9.789-34.258a10 10 0 00-6.868-6.868l-23.259-6.646 23.338-23.338 87.681 87.682-23.337 23.336zm118.18-104.038L211.46 200.459c-1.167-5.398-6.488-8.825-11.886-7.662-5.398 1.166-8.829 6.488-7.663 11.886l23.703 109.71-61.362 61.362-87.681-87.681 125.865-125.865 94.752 94.752-52.235 52.235zm180.93-195.071a21.985 21.985 0 01-25.349 4.145 10 10 0 00-13.406 13.406 21.98 21.98 0 01-4.144 25.348 21.978 21.978 0 01-25.348 4.144 9.999 9.999 0 00-13.406 13.406 21.98 21.98 0 01-4.144 25.348 21.98 21.98 0 01-25.348 4.144 10 10 0 00-13.406 13.406 21.972 21.972 0 011.231 16.581l-84.289-84.289a21.97 21.97 0 0116.58 1.231 9.999 9.999 0 0013.406-13.406 21.978 21.978 0 014.144-25.348 21.974 21.974 0 0125.348-4.143 9.999 9.999 0 0013.406-13.406 21.981 21.981 0 014.144-25.349 21.981 21.981 0 0125.348-4.144 10 10 0 0013.406-13.406 21.976 21.976 0 014.144-25.348 21.857 21.857 0 0115.556-6.444 21.857 21.857 0 0115.556 6.444l56.569 56.568a21.857 21.857 0 016.444 15.557 21.854 21.854 0 01-6.442 15.555z"/></symbol><symbol viewBox="0 0 18 18" id="close" xmlns="http://www.w3.org/2000/svg"><path class="ajst0" d="M12.2 9l5.2-5.2c.8-.8.8-2 0-2.7L17 .7c-.8-.8-2-.8-2.7 0L9 5.8 3.8.6C3-.2 1.8-.2 1 .6L.6 1c-.8.8-.8 2 0 2.7L5.8 9 .6 14.2c-.8.8-.8 2 0 2.7l.4.5c.8.8 2 .8 2.7 0L9 12.2l5.2 5.2c.8.8 2 .8 2.7 0l.4-.4c.8-.8.8-2 0-2.7L12.2 9z"/></symbol><symbol viewBox="0 0 36.7 36.7" id="f" xmlns="http://www.w3.org/2000/svg"><path d="M36.7 34.7c0 1.1-.9 2-2 2h-9.4V22.5h4.8l.7-5.5h-5.5v-3.5c0-1.6.4-2.7 2.7-2.7h2.9v-5c-.5-.1-2.2-.2-4.3-.2-4.2 0-7.1 2.6-7.1 7.3V17h-4.8v5.5h4.8v14.2H2c-1.1 0-2-.9-2-2V2C0 .9.9 0 2 0h32.7c1.1 0 2 .9 2 2v32.7z"/></symbol><symbol viewBox="0 -4 511.997 511" id="grape" xmlns="http://www.w3.org/2000/svg"><path d="M350.8 271.742c46.083-31.781 35.243-110.89-19.94-126.097-3.919-1.083-19.442-.493-21.325-2.282-3.144-2.984-4.996-17.289-7.418-21.734-6.906-12.688-17.902-22.899-30.89-29.16-27.036-13.031-59.72-7.41-79.856 15.144-19.398-26.258-53.281-34.222-82.586-20.097-12.98 6.257-24.207 16.328-31.5 28.785a66.83 66.83 0 00-7.87 20.633c-1.75 8.738.476 16.734-.204 25.242-.473 5.879.883 4.691-5.543 7.156a66.306 66.306 0 00-10.508 5.156c-7.402 4.477-13.82 10.38-19 17.301-9.914 13.246-15.035 29.926-14.492 46.45.25 7.542 1.672 15.073 4.281 22.156a69.045 69.045 0 005.75 11.918c.965 1.59 3.309 4.042 3.817 5.613 1.472 4.566 1.547.949-.692 5.304-4.207 8.188-11.879 14.122-15.617 23.192a73.353 73.353 0 00-5.52 28.855c.114 9.282 1.965 18.543 5.583 27.102 1.722 4.078 4.511 7.629 6.293 11.598 1.5 3.347 2.722 2.964 1.921 5.843-.363 1.313-5.988 5.45-6.812 6.332C6.39 399.332-.128 417.242 0 435.187c.281 38.739 32.188 71.262 71.46 69.215 17.638-.918 34.716-8.703 46.747-21.672 1.781-1.918 6.723-11.242 8.797-11.875 1.691-.52 10.437 4.008 12.207 4.473 9.258 2.414 18.926 2.7 28.336 1.031 17.488-3.105 33.535-13.132 43.969-27.507 2.863-3.946 4.488-8.778 7.27-12.641.655-.906 1.175-4.738 2.066-5.203.437-.23 6.539 1.785 7.773 2.027 10.25 2.012 20.977 1.504 31.023-1.316 10.657-2.989 20.532-8.574 28.61-16.125 2.219-2.078 8.922-12.953 11.36-13.785 2.75-.942 11.859 3.152 15.066 3.507 21.214 2.344 42.8-6.078 57.367-21.558 31.804-33.801 20.949-92.274-21.25-112.016 2.71-1.87 5.422-3.738 8.133-5.61-2.711 1.872-5.422 3.74-8.133 5.61zm-56.327-71.715c2.468-2.886 4.968-6.304 6.668-9.714a56.47 56.47 0 001.64-3.075c2.426-4.863 4.36-9.922 5.625-15.218 1.746-7.286.176-8.356 7.45-8.977 6.874-.586 15.187 2.766 20.976 6.242 11.523 6.914 19.05 18.969 22.02 31.906 2.882 12.582 1.64 26.414-4.364 37.934-3.226 6.188-7.804 11.613-13.46 15.719-1.876 1.363-18.622 9.394-18.622 7.629.02-.328.032-.66.032-.996.058-2.352.011-4.793-.208-7.141-.02-.356-.05-.711-.09-1.066 0-.047-.007-.098-.007-.157-2.149-20.437-12.485-39.195-29.418-51l1.758-2.086c.297-.347-.559.707 0 0 2.527-2.957-.559.707 0 0zm-1.426 29.68c.156.195.297.383.422.582 2.476 3.473 4.453 7.29 5.969 11.27.175.453.343.906.492 1.367.078.187.136.375.195.562.11.305.207.61.297.926 1.101 3.195 1.59 6.586 2.066 9.918.047.473.098.945.125 1.422.032.226.04.453.051.68.04.453.059.906.078 1.359.012.105.012.227.012.332.203 4.273.086 9.457-1.277 13.555-.09.386-.149.761-.18 1.144-7.16 17.227-18.168 32.535-37.43 36.625-.012 0-.031.012-.039.012-12.039 2.57-26.516.398-36.527-7.121a35.358 35.358 0 01-2.29-1.625c-.011-.012-.03-.024-.038-.031-20.551-15.622-24.305-43.797-12.09-65.836 12.66-22.836 35.668-29.559 59.527-21.582a42.14 42.14 0 011.543.691c.012 0 .024 0 .031.008.5.238 1.004.472 1.496.73.086.04.176.09.266.13a45.138 45.138 0 014.149 2.41 49.584 49.584 0 013.57 2.535 42.216 42.216 0 013.152 2.687c.188.156.367.324.543.504 1.297 1.125 5.45 6.137 5.887 6.746.156.195-.57-.797 0 0zM188.05 240.563a66.479 66.479 0 00-1.547 6.746c-14.211.386-26.781-5.95-36.606-15.82-6.125-6.68-10.351-14.934-12.222-23.868-9.356-24.418 13.308-54.101 36.094-59.824-2.575 24.976 8.878 50.527 29.41 65.035-7.082 7.988-12.325 17.598-15.18 27.887.398-1.426.813-2.848 1.203-4.278-.383 1.375-.77 2.75-1.152 4.121-.633 2.215 2.887-10.304 0 0zm14.59 65.98h-.012v.012c-11.336 7.996-21.535 20.425-25.395 33.976h-.011a59.829 59.829 0 01-4.79-1.379c-4.523-1.511-9.413-1.847-14.156-1.933a81.46 81.46 0 00-5.695.082 25.903 25.903 0 01-4.422.383 18.06 18.06 0 00-3.55.53c-.079.013-.169.02-.247.04-.504.2-1.02.297-1.543.297-16.37-8.946-27.152-27.352-26.222-46.063v-.129c.023-.515.047-1.03.066-1.546 0-.06 0-.118.012-.168.02-.383.05-.758.078-1.133 0-.047.012-.098.012-.149.125-1.414.246-3.27.609-4.726a46.744 46.744 0 011.328-5.606c.02-.058.04-.129.059-.187.02-.117.058-.227.097-.344.973-3.453 2.461-6.41 4.04-9.574a51.202 51.202 0 012.558-4.168c2.617-4.008 5.93-7.602 9.676-10.582a12.771 12.771 0 013.578-2.66c.41-.286.824-.559 1.246-.817.297-.195.594-.375.887-.55l.011.007c12.407 10.887 28.149 16.867 44.57 16.867h.294c.316 3.813.746 9.344 2.476 12.817.203.722.422 1.441.66 2.156.02.066.051.129.07.195a83.4 83.4 0 00.747 2.168c2.95 8.125 7.344 15.61 12.969 22.184zm-3.461-176.004c.039-.09.086-.18.129-.266.007-.02.027-.05.039-.07 23.855-43.656 90.925-24.195 91.457 24.293 0 .106 0 .227.011.336v.145c0 11.613-3.996 22.808-11.05 31.957-.059.07-.11.136-.168.207-1.641 2.078-3.496 4.011-5.446 5.793-13.254-4.348-31.418-5.102-44.257 1.34-1.856.69-9.208 5.398-10.856 5.308-2.586-.14-6.59-4.363-8.371-5.895a50.42 50.42 0 01-13.406-18.21c-.032-.079-.059-.157-.098-.235-6.047-14.27-4.586-32.512 1.695-44.117-.57 1.059-.464.86.32-.586.04-.09-1.523 2.816 0 0zm-62.465-31.05c17.972 0 34.375 10.187 42.898 26.28a6.78 6.78 0 00-.218.485c-.106.226-.208.453-.305.687-34.934 3.262-61.77 34.563-62.2 69.204-4.027-1.7-7.953-4.211-11.206-7.133a21.71 21.71 0 01-1.063-.926c-36.133-27.125-10.605-88.598 32.094-88.598zm-59.043 86.163c.058.11.129.23.195.328 1.203 2.09 3.016 5.418 4.828 7.23.266.364.551.727.836 1.083.176.238.364.465.563.691.261.336.527.66.812.996 0 .008 0 .008.012.008 5.32 6.43 12.371 12.551 19.957 16.188 3.96 2.133 12.105 3.148 15.215 5.898 3.16 2.801 5.297 12.965 7.836 16.965-3.453 2.125-6.684 4.86-9.551 7.73-.156.141-.313.29-.46.446-.274.254-.54.52-.798.797-4.633 4.64-8.441 9.968-11.601 15.703-.047.078-.086.168-.125.246-.98.84-1.47 1.8-1.465 2.875a31.494 31.494 0 01-.719 1.547c-.012.02-.02.031-.02.05a62.739 62.739 0 00-1.93 4.727c-.464 1.281-1.054 2.723-1.347 4.078-.12.395-.234.793-.344 1.192-.117.383-.222.77-.312 1.164-.04.125-.07.254-.098.383-.09.304-.168.609-.238.914-.008.058-.027.109-.04.168-.538 2.226-.726 4.543-1.276 6.757-.008.051-.008.09-.02.141-.012.035-.012.078-.012.117-.02.078-.02.156-.027.235l-.031.238h-.008c-.535.078-1.067.18-1.594.305-3.851.64-7.926.949-11.808.543-.04 0-.09-.012-.13-.012-.472-.04-.945-.078-1.406-.13a1.38 1.38 0 00-.273-.026 52.051 52.051 0 01-11.82-2.957 48.279 48.279 0 01-5.239-2.434 27.759 27.759 0 00-2.683-1.547c-.5-.309-.992-.629-1.477-.965-.375-.254-.758-.511-1.133-.777a.17.17 0 00-.058-.04 92.006 92.006 0 00-2.93-2.284c-30.484-25.618-18.883-79.899 20.719-88.57-.164-.301-8.637 1.874-9.805 2.171 3.242-.82 6.543-1.457 9.805-2.172.058.11-22.184 4.86 0 0zM50.445 293.914c3.45 2.293 10.075 7.25 14.317 7.25 6.058 2.16 12.68 3.754 19.133 3.961h.011c3.223.21 6.989.465 10.188-.176 2.422-1.508 3.629-1.648 3.625-.426 1.586 10.325 5.508 22.82 12.527 30.856 0 .008.012.02.012.02 3.082 4.296 6.578 8.265 10.605 11.703.04.027.07.066.121.097-10.066 6.164-29.027 22.676-29.027 35.906-2.344.586-4.777 1.079-7.195 1.282-.2.031-.395.047-.59.058-48.23 4.403-70.79-61.472-33.727-90.53.082.054-4.5 4.78-5.183 4.327-.117-.078 6.648-5.476 5.183-4.328 1.621 1.078-12.074 9.469 0 0zm17.778 191.277c-25.399 0-44.797-20.144-47.828-44.695-1.418-11.516.777-23.445 6.878-33.383 2.508-4.082 7.153-11.394 11.809-12.976 5.48-1.864 15.688 5.355 22.27 7.558 7.23 2.067 15.125 3.2 22.66 2.512 1.273-.11 2.543-.219 3.816-.324-.5 8.488.559 17.734 3.461 25.738 1.094 3.477 2.402 7.313 4.336 10.41 2.621 5.156 5.883 10.485 9.988 14.602 5.043 5.828 5.586 5.527.575 11.922a49 49 0 01-10.024 9.586c-8.14 5.847-17.902 9.05-27.941 9.05zm136.234-69.343c0 .02-.008.03-.008.05-6.219 37.97-52.851 55.196-81.02 28.325-12.667-12.078-20.038-30-15.413-47.32 4.37-16.372 17.836-35.817 36.12-38.434 9.079-2.41 27.536-3.188 34.966 4.254.02.011.03.02.05.03h.008c.012 0 .012.013.02.013 18.82 10.324 28.511 33.73 25.382 52.476.168-1.027.137-.824-.105.606 0 .02.465-2.766 0 0zm37.316-1.192c-5.84 0-11.64-1.082-17.082-3.172.157-2.699.286-5.816-.02-8.55-.171-2.93-.648-5.786-1.062-8.688a94.884 94.884 0 00-.363-1.832c-.008-.02-.008-.039-.02-.059a39.178 39.178 0 00-.355-1.585c-.008-.051-.02-.09-.027-.141-2.461-9.25-7.524-24.965-16.008-30.645a35.375 35.375 0 00-1.219-1.332 11.932 11.932 0 00-.648-.68c-2.969-3.202-6.418-5.988-9.961-8.519.031-.11.058-.207.097-.305.079-.296.168-.582.266-.867a43.245 43.245 0 013.863-8.984 45.503 45.503 0 018.555-11.406c.266-.278.54-.543.816-.797.254-.258.512-.496.778-.73.215-.208.441-.403.668-.59.117-.122.234-.227.355-.317.235-.207.461-.402.696-.59 2.148-1.879 4.609-3.547 7.109-4.937 10.84 6.789 23.082 10.195 35.86 10.265-.012.13-.02.266-.04.407-.648 9.984.805 20.027 4.207 29.43 1.903 5.257 7.082 19.085 12.606 21.863.148.175.297.355.46.53 0 .013.012.032.04.04l.011.012c.305.355.618.707.946 1.05v.012a63.405 63.405 0 006.422 6.207c4.273 1.469 4.648 3.492 1.129 6.067-1.461 3.683-6.993 7.433-10.102 9.675-8.137 5.871-17.91 9.168-27.977 9.168zm80.633-28.554c-30.46 0-52.781-29.754-48.168-59.047 8.887-2.805 20.192-8.047 26.164-15.535a61.774 61.774 0 002.036-2.012c.117-.106.226-.215.324-.332a53.862 53.862 0 002.652-2.938c.266-.297.512-.59.758-.894a5.42 5.42 0 00.305-.367c1.464-1.766 3.55-4.2 4.62-6.344 2.551-3.863 4.81-8.13 6.43-12.469.121-.266.22-.543.325-.82 27.906-2.739 52.414 20.898 53.363 48.39.937 27.192-21.078 52.368-48.809 52.368zm113.758-241.637c-5.43 0-9.836-4.41-9.836-9.852 0-5.437 4.399-9.847 9.828-9.847h.008c5.434 0 9.832 4.41 9.832 9.847 0 5.442-4.398 9.852-9.832 9.852zm0 0"/><path d="M507.773 167.695c-8.789-36.222-35.16-67.203-78.43-92.183 6.223-9.453 38.348-71.063 15.485-74.86-13.91-2.308-13.836 21.903-16.43 30.493-4.378 14.5-10.918 28.492-20.304 40.437-.008 0-.008 0-.02.008-18.23 23.918-48.547 37.472-78.312 37.472-8.422-.457-13.559 10.086-7.871 16.395 3.921 4.352 10.558 3.426 15.78 3.094 19.243-1.211 38.54-7.29 54.977-17.36-18.984 70.297 27.625 122.895 83.114 158.52 0 0 .008.012.02.012.097.058.187.117.292.175 1.621 1.004 3.903 1.543 5.762 1.332a2.3 2.3 0 00.453-.05c.36-.035.711-.098 1.063-.188.605-.12 1.226-.367 1.789-.62.07-.02.136-.06.199-.09a1.14 1.14 0 00.195-.098c1.371-.688 2.563-1.727 3.473-2.965l.117-.157c1.293-1.863 31.578-46.093 18.648-99.367-8.789-36.222 12.93 53.274 0 0zm-24.511 67.578c-5.246-16.757-10.543-33.507-16.219-50.125-2.734-8.02-6.074-27.601-16.594-28.785-17.172-1.925-7.844 18.512-5.054 26.317 6.39 17.87 12.035 36.03 17.73 54.129-22.129-17.11-43.281-38.657-51.746-66.043-8.176-26.457-1.586-53.082 8.336-78.086 52.07 30.136 87.254 81.43 63.547 142.593-8.2-26.195 0 0 0 0zm0 0"/></symbol><symbol id="hamburger" viewBox="0 0 24 22.1" xml:space="preserve" xmlns="http://www.w3.org/2000/svg"><style>.amst0{fill:#0d0e0f}</style><path class="amst0" d="M22.1 0H1.9C.8 0 0 .8 0 1.9v.3C0 3.2.8 4 1.9 4h20.3c1 0 1.9-.8 1.9-1.9v-.2C24 .8 23.2 0 22.1 0zm0 9H1.9C.8 9 0 9.9 0 10.9v.3c0 1 .8 1.9 1.9 1.9h20.3c1 0 1.9-.8 1.9-1.9v-.3c-.1-1-.9-1.9-2-1.9zm0 9H1.9c-1 0-1.9.8-1.9 1.9v.3c0 1 .8 1.9 1.9 1.9h20.3c1 0 1.9-.8 1.9-1.9v-.3c-.1-1-.9-1.9-2-1.9z"/></symbol><symbol viewBox="0 0 36.7 36.7" id="in" xmlns="http://www.w3.org/2000/svg"><path d="M32.3 0H4.4C2 0 0 1.9 0 4.3v28.1c0 2.4 2 4.3 4.4 4.3h27.9c2.4 0 4.4-1.9 4.4-4.3V4.3c0-2.4-2-4.3-4.4-4.3m-5.9 5.7c0-.6.5-1.1 1.1-1.1H31c.6 0 1.1.5 1.1 1.1v3.4c0 .6-.5 1.1-1.1 1.1h-3.4c-.6 0-1.1-.5-1.1-1.1l-.1-3.4zm-8 5.6c3.9 0 7.1 3.1 7.1 7s-3.2 7-7.1 7-7.1-3.1-7.1-7c0-3.8 3.2-7 7.1-7m14.8 20.8c0 .6-.5 1.1-1.1 1.1H4.6c-.6 0-1.1-.5-1.1-1.1V14.9H8c-.6.9-.8 2.5-.8 3.5 0 6.1 5 11.1 11.2 11.1s11.2-5 11.2-11.1c0-1-.1-2.6-.9-3.5h4.6l-.1 17.2z"/></symbol><symbol id="logo" viewBox="0 0 53.6 39" xml:space="preserve" xmlns="http://www.w3.org/2000/svg"><style>.aost0{fill:#fff}</style><path class="aost0" d="M.4 8.8c0-2.5.8-4.5 2.4-6.2C4.5 1 6.5.1 9 .1c2.6 0 4.6.7 6.2 2.2L14 4.1c-.6-.6-1.4-1-2.3-1.3s-1.7-.5-2.6-.5c-1.9 0-3.4.6-4.6 1.8-1.1 1.3-1.6 2.8-1.6 4.7 0 1.9.6 3.5 1.7 4.8 1.2 1.3 2.7 1.9 4.6 1.9.9 0 1.9-.2 2.8-.6s1.7-.9 2.4-1.6l1.3 1.7c-1.8 1.8-4 2.7-6.6 2.7-2.6 0-4.7-.8-6.3-2.5C1.2 13.4.4 11.3.4 8.8zm18.3 8.6V.4H21v7.4h8.8V.4h2.4v16.9h-2.4V9.9H21v7.4h-2.3zm16.9-8.6c0-2.4.8-4.5 2.5-6.2C39.7.9 41.8.1 44.3.1s4.6.8 6.2 2.5C52.2 4.3 53 6.3 53 8.8s-.8 4.6-2.5 6.3-3.7 2.6-6.2 2.6-4.6-.9-6.2-2.6c-1.7-1.7-2.5-3.8-2.5-6.3zm2.5 0c0 1.9.6 3.5 1.8 4.8 1.2 1.3 2.7 1.9 4.5 1.9 1.8 0 3.3-.6 4.5-1.9 1.2-1.3 1.8-2.9 1.8-4.8 0-1.8-.6-3.4-1.8-4.6-1.2-1.2-2.7-1.9-4.5-1.9-1.8 0-3.3.6-4.5 1.9-1.3 1.2-1.8 2.7-1.8 4.6zM.4 29.8c0-2.5.8-4.5 2.4-6.2C4.5 22 6.5 21.1 9 21.1c2.6 0 4.6.7 6.2 2.2L14 25.1c-.6-.6-1.4-1-2.3-1.3s-1.8-.5-2.6-.5c-1.9 0-3.4.6-4.6 1.8-1.1 1.2-1.7 2.8-1.7 4.6 0 1.9.6 3.5 1.7 4.8 1.2 1.3 2.7 1.9 4.6 1.9.9 0 1.9-.2 2.8-.6s1.7-.9 2.4-1.6l1.3 1.7c-1.8 1.8-4 2.7-6.6 2.7-2.6 0-4.7-.8-6.3-2.5C1.2 34.4.4 32.3.4 29.8zm16.8 0c0-2.5.8-4.5 2.4-6.2 1.6-1.6 3.7-2.5 6.2-2.5 2.6 0 4.6.7 6.2 2.2l-1.2 1.8c-.6-.6-1.4-1-2.3-1.3s-1.8-.5-2.6-.5c-1.9 0-3.4.6-4.6 1.8-1.1 1.2-1.7 2.8-1.7 4.6 0 1.9.6 3.5 1.7 4.8 1.2 1.3 2.7 1.9 4.6 1.9.9 0 1.9-.2 2.8-.6s1.7-.9 2.4-1.6l1.3 1.7c-1.8 1.8-4 2.7-6.6 2.7-2.6 0-4.7-.8-6.3-2.5-1.5-1.7-2.3-3.8-2.3-6.3zm16.8 0c0-2.4.8-4.5 2.5-6.2 1.6-1.7 3.7-2.5 6.2-2.5s4.6.8 6.2 2.5c1.6 1.7 2.5 3.7 2.5 6.2s-.8 4.6-2.5 6.3-3.7 2.6-6.2 2.6-4.6-.9-6.2-2.6c-1.7-1.7-2.5-3.8-2.5-6.3zm2.4 0c0 1.9.6 3.5 1.8 4.8 1.2 1.3 2.7 1.9 4.5 1.9 1.8 0 3.3-.6 4.5-1.9 1.2-1.3 1.8-2.9 1.8-4.8 0-1.8-.6-3.4-1.8-4.6-1.2-1.2-2.7-1.9-4.5-1.9-1.8 0-3.3.6-4.5 1.9-1.2 1.2-1.8 2.7-1.8 4.6z"/></symbol><symbol viewBox="0 0 18.8 20" id="man" xmlns="http://www.w3.org/2000/svg"><path d="M17.4 5.8c.2-.2.4-.4.5-.6.7-.9.6-1.3-.1-1.9s-1.8.3-1.8.3l-.2.2c-1.1-1-2.5-1.8-4.1-2.2C11.1.7 10.2.1 9.2.1c-1.1 0-2 .7-2.6 1.6a9.4 9.4 0 00-3.5 2c-.2-.1-.6-.5-1.1-.6C1.3 3 .6 3.5.5 4.2c0 .4.4 1 .9 1.6C.5 7.2 0 8.8 0 10.6c0 5.1 4.2 9.3 9.4 9.3 1.8 0 3.6-.5 5-1.4l-.3-.7c-1.3-3.3-1-5.4-.9-6.4.3-1.1 1.4-2.6 2-3.4.4-.5 1-1 1.6-1.6.8 1.2 1.2 2.6 1.2 4.2 0 2.3-1 4.4-2.5 6l.6.5c1.7-1.7 2.7-4 2.7-6.5 0-1.8-.5-3.4-1.4-4.8zM9.2.9c1.3 0 2.3 1.2 2.3 2.7s-1 2.7-2.3 2.7-2.3-1.1-2.3-2.7S7.9.9 9.2.9zm0 6.2c1.7 0 3.1-1.6 3.1-3.5 0-.4-.1-.7-.2-1.1 1.2.4 2.2 1 3.1 1.8-.8.7-2 1.6-2.6 2-.9.7-2.4 1.4-3.6 1.4-1.2 0-1.8-.5-2.7-.9-.8-.4-2.1-1.9-2.7-2.5.8-.7 1.7-1.2 2.6-1.6 0 .3-.1.6-.1.9 0 2 1.4 3.5 3.1 3.5zM.8 10.6c0-1.5.4-2.9 1.1-4.2l.3.3s2.5 2.9 3 3.6c.5.7-.1 1.2-.5 3-.3 1.4-.3 3.3-.3 4.2C2.2 15.9.8 13.4.8 10.6zm15.5-4.8c-.4.4-1.8 1.6-3 3.5s-1 3.4-.9 4.5c.1 1.1.4 2.1.5 2.5.1.3.5 1.4.6 1.7-1.2.6-2.6 1-4 1-1.6 0-3-.4-4.3-1.1 0-3.4.2-3.9.3-4.4 0-.5.3-1.5.6-2.3.2-.7-.1-1.3-.4-1.6-.3-.3-3.2-3.8-3.7-4.5-.6-.7-.7-1-.2-1.2.5-.3 1.8 1.3 2.4 2 .5.7 2.8 2.6 4.9 2.5s3.6-1.2 4.2-1.6c.5-.4 3.1-2.5 3.5-2.8.4-.3.9 0 .8.3-.1.3-.9 1.1-1.3 1.5z"/></symbol><symbol viewBox="0 0 498.613 498.613" id="nut" xmlns="http://www.w3.org/2000/svg"><path d="M450.231 117.215a7.498 7.498 0 00-10.449-1.816 7.499 7.499 0 00-1.816 10.45c26.108 37.095 39.908 79.786 39.908 123.458 0 56.535-23.323 111.31-65.674 154.235-31.918 32.351-73.081 56.518-118.814 70.244-9.156-7.448-14.702-22.076-17.242-46.35 9.316 8.669 21.791 13.987 35.491 13.987a52.068 52.068 0 0040.613-19.436c1.26.092 2.518.139 3.766.139 28.758 0 52.154-23.396 52.154-52.154a52.13 52.13 0 00-1.57-12.759c13.721-5.632 25.921-14.997 34.891-26.901 10.885-14.445 16.638-31.664 16.638-49.797 0-18.059-5.844-35.444-16.592-49.738a52.116 52.116 0 0016.5-38.064c0-25.479-18.113-46.705-42.434-51.248-.579-23.15-16.217-42.899-38.24-48.937-7.174-25.679-30.74-43.838-57.825-43.838-13.35 0-25.692 4.383-35.674 11.78 5.504-13.186 13.173-24.236 22.343-31.533 44.329 15.451 83.52 40.857 113.623 74.218a7.499 7.499 0 0010.593.543 7.5 7.5 0 00.544-10.592C385.935 43.205 321.794 10.166 250.356.074a7.447 7.447 0 00-2.098 0c-66.83 9.441-128.1 39.438-172.522 84.463C30.598 130.287 5.74 188.803 5.74 249.307s24.858 119.02 69.996 164.77c44.423 45.025 105.692 75.021 172.522 84.463a7.518 7.518 0 002.098 0c66.83-9.441 128.099-39.438 172.521-84.463 45.138-45.75 69.996-104.266 69.996-164.77 0-46.78-14.745-92.456-42.642-132.092zM319.534 63.69c21.584 0 40.188 15.365 44.238 36.535a7.5 7.5 0 006.085 5.98c17.172 2.978 29.802 17.374 30.702 34.622-11.921 1.2-22.974 6.42-31.56 15.006a7.498 7.498 0 00-.001 10.606 7.476 7.476 0 005.304 2.197 7.474 7.474 0 005.303-2.197c7.019-7.018 16.35-10.882 26.273-10.882.178 0 .35-.038.519-.092.354.067.712.118 1.077.134 19.939.841 35.559 17.143 35.559 37.113a37.118 37.118 0 01-11.58 26.93c-15.343-14.185-35.155-21.97-56.17-21.97-4.143 0-7.5 3.358-7.5 7.5s3.357 7.5 7.5 7.5c18.121 0 35.158 7.057 47.971 19.871.372.372.774.696 1.198.974.26.44.565.858.916 1.243a67.663 67.663 0 0117.758 45.756c0 14.849-4.709 28.947-13.617 40.77-7.365 9.773-17.385 17.447-28.646 22.056a52.062 52.062 0 00-44.849-25.524c-13.931 0-27.027 5.425-36.879 15.276a7.5 7.5 0 0010.607 10.606c7.018-7.018 16.348-10.882 26.271-10.882a37.107 37.107 0 0134.238 22.695l.003.005.006.017a36.93 36.93 0 012.907 14.438c0 18.879-14.157 34.503-32.412 36.841a52.09 52.09 0 003.034-17.544c0-4.142-3.357-7.5-7.5-7.5s-7.5 3.358-7.5 7.5a36.977 36.977 0 01-6.204 20.561c-.01.014-.022.026-.032.041-6.922 10.364-18.48 16.552-30.919 16.552-20.486 0-37.153-16.667-37.153-37.154 0-10.333 4.151-19.936 11.688-27.039a7.501 7.501 0 00.772-10.069c-8.152-10.459-12.461-22.999-12.461-36.261 0-18.289 8.286-35.255 22.734-46.549.067-.052.126-.113.191-.167 10.42-8.076 22.909-12.347 36.137-12.347 4.143 0 7.5-3.358 7.5-7.5s-3.357-7.5-7.5-7.5c-14.464 0-28.224 4.077-40.178 11.837-12.054-12.865-18.884-29.913-18.884-47.655 0-18.473 7.16-35.881 20.162-49.018.026-.026.047-.055.072-.082 13.184-13.282 30.744-20.597 49.462-20.597 4.143 0 7.5-3.358 7.5-7.5s-3.357-7.5-7.5-7.5c-20.503 0-39.851 7.241-55.204 20.486-9.158-8.477-14.493-20.45-14.493-33.065.002-24.843 20.213-45.054 45.055-45.054zM20.739 249.306c0-56.535 23.323-111.31 65.674-154.235 28.917-29.309 65.419-51.906 106.035-66.105 9.151 7.297 16.803 18.334 22.299 31.498-9.981-7.393-22.321-11.775-35.667-11.775-27.086 0-50.652 18.159-57.825 43.838-22.023 6.038-37.661 25.786-38.24 48.937-24.319 4.543-42.434 25.769-42.434 51.248a52.112 52.112 0 0016.5 38.064c-10.749 14.294-16.593 31.679-16.593 49.738 0 1.78.057 3.576.17 5.339.264 4.135 3.861 7.275 7.962 7.007a7.5 7.5 0 007.007-7.962 69.4 69.4 0 01-.139-4.384 67.657 67.657 0 0117.758-45.755c.352-.385.657-.803.917-1.245a7.544 7.544 0 001.195-.972c12.814-12.813 29.852-19.871 47.973-19.871 4.143 0 7.5-3.358 7.5-7.5s-3.357-7.5-7.5-7.5c-21.015 0-40.827 7.786-56.17 21.971a37.119 37.119 0 01-11.58-26.931c0-19.97 15.618-36.271 35.558-37.113a7.317 7.317 0 001.078-.134c.169.054.341.092.519.092 9.924 0 19.254 3.865 26.272 10.882 1.464 1.465 3.384 2.197 5.303 2.197s3.839-.732 5.304-2.197a7.498 7.498 0 00-.001-10.606c-8.586-8.586-19.639-13.807-31.559-15.006.9-17.248 13.53-31.645 30.702-34.622a7.5 7.5 0 006.085-5.981c4.049-21.169 22.653-36.534 44.238-36.534 24.843 0 45.054 20.211 45.054 45.054 0 12.615-5.335 24.588-14.492 33.065-15.354-13.245-34.702-20.486-55.204-20.486-4.143 0-7.5 3.358-7.5 7.5s3.357 7.5 7.5 7.5c18.719 0 36.282 7.318 49.468 20.603.023.024.043.051.066.075 13.002 13.138 20.162 30.546 20.162 49.018 0 17.741-6.83 34.79-18.884 47.656-11.956-7.76-25.715-11.837-40.179-11.837-4.143 0-7.5 3.358-7.5 7.5s3.357 7.5 7.5 7.5c13.229 0 25.719 4.272 36.141 12.35.063.053.121.112.187.164 14.448 11.294 22.734 28.26 22.734 46.549 0 13.263-4.309 25.802-12.461 36.261a7.5 7.5 0 00.771 10.069c7.538 7.103 11.689 16.705 11.689 27.039 0 20.487-16.667 37.154-37.154 37.154-12.438 0-23.996-6.188-30.918-16.552-.011-.017-.025-.031-.037-.047a36.97 36.97 0 01-6.2-20.555c0-4.142-3.357-7.5-7.5-7.5s-7.5 3.358-7.5 7.5a52.11 52.11 0 003.033 17.544c-18.254-2.337-32.412-17.962-32.412-36.841 0-5.01.979-9.867 2.908-14.437l.008-.021.001-.002a37.106 37.106 0 0134.237-22.694c9.925 0 19.255 3.865 26.272 10.882a7.5 7.5 0 0010.607-10.606c-9.852-9.851-22.948-15.276-36.88-15.276a52.058 52.058 0 00-44.849 25.524c-15.431-6.293-28.182-18.159-35.518-33.299a7.5 7.5 0 00-13.499 6.541c8.941 18.454 24.471 32.942 43.279 40.634a52.13 52.13 0 00-1.569 12.753c0 28.758 23.396 52.154 52.154 52.154 1.248 0 2.506-.046 3.767-.139a52.067 52.067 0 0040.612 19.436c13.699 0 26.174-5.317 35.49-13.985-2.541 24.27-8.085 38.9-17.241 46.348-45.733-13.727-86.895-37.893-118.814-70.244-42.346-42.925-65.67-97.699-65.67-154.235zm228.568 234.23a306.968 306.968 0 01-27.594-5.303c12.227-15.78 17.42-43.284 17.42-88.965 0-12.089-4.272-23.845-11.892-33.125 7.799-11.979 11.892-25.768 11.892-40.243 0-20.102-7.977-38.925-22.14-52.8 14.157-15.53 22.14-35.908 22.14-57.081 0-19.694-6.695-38.391-19.006-53.462 12.023-11.278 19.006-27.129 19.006-43.813 0-18.854-3.677-37.605-10.632-54.229-5.116-12.229-11.776-22.654-19.59-30.78a306.154 306.154 0 0140.396-8.659 308.567 308.567 0 0140.409 8.644c-7.82 8.128-14.485 18.557-19.604 30.794-6.955 16.623-10.631 35.375-10.631 54.229 0 16.685 6.982 32.535 19.005 43.813-12.31 15.071-19.005 33.767-19.005 53.462 0 21.174 7.982 41.551 22.139 57.081-14.162 13.875-22.139 32.699-22.139 52.8 0 14.476 4.092 28.263 11.892 40.243-7.619 9.281-11.892 21.037-11.892 33.125 0 45.681 5.193 73.185 17.42 88.965a306.338 306.338 0 01-27.594 5.304z"/></symbol><symbol viewBox="-85 0 512 512.002" id="oat" xmlns="http://www.w3.org/2000/svg"><path d="M244.648 305.39c9.782 15.598 25.305 24.067 41.856 24.067 7.695 0 15.613-1.828 23.297-5.625l29.816-10.52-19.879-24.57c-8.297-13.234-20.761-21.137-34.441-23.289 10.367-.676 20.664-4.59 29.629-12.148l26.437-17.325-25.18-19.132c-5.73-5.551-12.23-9.348-19.023-11.77 5.668-4.328 10.61-9.953 14.38-16.894l18.269-25.774-30.391-8.62c-11.914-4.977-24.063-5.356-34.934-1.927 7.72-6.164 13.704-14.785 16.934-25.441l12.727-28.942-31.528-2.32c-26.512-5.14-50.187 9.086-58.015 34.918l-10.153 23.117a174.082 174.082 0 00-20.52-20.03l24.407-12.958c25.172-9.71 37.644-34.422 30.512-60.45l-4.645-31.26-27.918 14.82c-25.172 9.718-37.644 34.43-30.508 60.456l3.832 25.829c-8.379-6.477-17.414-12.137-26.953-16.98l11.934-21.696c15.75-21.914 12.652-49.418-7.559-67.29L126.008 0l-15.235 27.684c-15.742 21.914-12.644 49.421 7.579 67.304l9.953 11.18c-2.196-.867-4.34-1.809-6.578-2.586-3.872-1.332-7.91.207-10.172 3.395l-16.36-18.809C80.04 65.859 53.16 59.281 29.41 72.094L0 83.676l20.746 23.84c9.98 14.707 25.043 22.57 40.953 22.57 2.664 0 5.356-.305 8.047-.754-12.723 4.934-23.144 15.074-28.555 29.5l-14.55 28.07 31.308 4.328c4.723 1.243 9.414 1.844 13.965 1.844 8.137 0 15.813-1.988 22.64-5.597-2.472 7.414-3.425 15.55-2.175 24.171l.773 31.598 29.52-11.285c2.445-.613 4.695-1.504 6.945-2.395-.73 2.422-1.43 4.868-1.836 7.477l-8.547 30.426 31.536-2.114c.394.02.761-.054 1.168-.042a52.681 52.681 0 00-12.598 16.722l-16.992 26.645 30.804 7.101c3.61 1.305 7.2 2.098 10.782 2.617-13.184 1.11-25.73 7.516-35.016 19.235l-22.453 22.246 28.453 13.73c8.883 5.688 18.46 8.454 27.836 8.454 14.617 0 28.746-6.723 38.96-19.602l1.243-1.234c-28.098 67.875-88.582 117.703-168.316 132.93a9.006 9.006 0 00-7.153 10.53A9.01 9.01 0 0036.316 512c.567 0 1.125-.05 1.692-.16 81.086-15.48 143.691-64.192 176.008-131.113l-1.243 26.476c-4.464 26.613 10.442 49.938 36.465 57.067l29.258 11.921 1.477-31.558c4.46-26.621-10.442-49.945-36.465-57.063l-27.332-11.16c4.922-10.754 8.933-22.023 12.265-33.62l3.805 13.44c4.192 26.649 25.684 44.133 52.652 42.579l31.543 2.05-8.601-30.406c-4.192-26.668-25.89-44.144-52.656-42.578l-22.649-1.465c2.106-9.883 3.68-19.988 4.598-30.332zM203.16 59.935l6.965-3.618.98 6.625.243 1.141c4.941 17.297-3.067 33.164-19.914 39.465l-6.965 3.617-.985-6.617-.242-1.14c-4.941-17.298 3.07-33.165 19.918-39.473zM125.63 37.84l3.863-6.856 4.453 5.012.836.82c13.598 11.778 15.578 29.434 4.942 43.926l-3.864 6.856-4.445-5.004-.836-.82c-13.598-11.778-15.586-29.434-4.95-43.934zm104.969 371.933l.441-7.847 6.191 2.523 1.118.367c17.394 4.575 26.96 19.547 23.8 37.258l-.441 7.848-6.2-2.52-1.097-.37c-17.402-4.579-26.973-19.548-23.812-37.259zm24.558-63.855l.586-.04c17.863-1.257 31.758 10 34.367 27.794l2.063 7.586-7.266-.469-.582.035c-17.836 1.332-31.761-9.988-34.37-27.789l-2.06-7.586zm-17.07-69.8c.035-2.583.242-5.114.207-7.723-.137-8.81-.953-17.485-2.32-26.008l11.277 8.57c7.918 7.668 17.215 12.266 26.852 13.95a52.922 52.922 0 00-19.52 5.39zm-12.574-71.716l22.14 6.274c1.375.574 2.762 1.05 4.149 1.512-1.09.789-2.242 1.43-3.293 2.32l-16.192 10.617a178.035 178.035 0 00-6.804-20.723zm79.207 94.258l4.875 6.164-6.309 2.223-1.07.469c-16.047 8.117-33.145 3.293-42.54-12.043l-4.886-6.16 6.309-2.223 1.07-.469c16.055-8.129 33.144-3.293 42.55 12.04zm5.453-63.777l-5.59 3.672-.934.703c-13.652 11.754-31.39 11.125-44.18-1.531l-6.198-4.813 5.585-3.664.938-.703c13.645-11.75 31.398-11.121 44.176 1.523zm-17.324-64.336l7.539 2.215-3.867 5.453-.614.988c-8.422 15.902-25.18 21.797-41.703 14.688l-7.523-2.207 3.87-5.454.614-.988c8.402-15.91 25.16-21.832 41.684-14.695zm-71.555-33.766l.398-1.097c5.04-17.262 20.22-26.457 37.875-22.786l7.829.649-2.688 6.129-.406 1.097c-5.04 17.27-20.293 26.43-37.867 22.786l-7.84-.649zm2.105 24.532a56.255 56.255 0 0010.7 1.054c5.273 0 10.332-.828 15.093-2.332a52.653 52.653 0 00-13.652 16.246L221.762 195.7c-5.934-12.941-13.32-25.07-22.04-36.133zm-23.074 31.714l-19.976 1.34c-7.723-.387-14.903.918-21.457 3.387 1.945-6.84 2.62-14.238 1.496-22.031l-.766-31.086c16.656 13.12 30.461 29.636 40.703 48.39zM35.402 97.06l-5.093-5.985 6.226-2.445 1.055-.504c15.73-8.723 32.992-4.484 42.937 10.488l5.09 5.985-6.226 2.449-1.051.504c-15.73 8.71-32.992 4.48-42.938-10.492zm51.125 26.53l23.688-9.343c.719 2.836 2.652 5.309 5.625 6.344 15.883 5.508 30.433 13.61 43.348 23.695l-29.102 11.121c-4.356 1.09-8.29 2.782-12.016 4.727 0 0 .012-.008.012-.016l14.55-28.05-31.308-4.34c-7.351-1.934-14.535-2.16-21.347-1.141a55.999 55.999 0 006.55-2.996zm-24.414 50.134l-7.777-1.16 3.086-5.942.476-1.07c6.13-16.91 21.915-25.078 39.258-20.309l7.774 1.16-3.086 5.93-.477 1.082c-6.137 16.899-21.93 25.05-39.254 20.309zm55.77 40.882l-7.371 2.739-.164-6.688-.106-1.168c-2.773-17.773 7.125-32.523 24.613-36.71l7.368-2.735.164 6.687.11 1.168c2.776 17.774-7.122 32.524-24.614 36.707zm32.828 32.715l-7.262.485 1.809-6.434.23-1.152c2.457-16.973 15.11-27.934 31.844-27.934.816 0 1.645.028 2.473.082l.586.035 7.261-.484-1.808 6.445-.235 1.153c-2.574 17.797-16.171 29.039-34.312 27.851zm52.621-24.64l4.184-14.895c6.922 16.442 11.132 34.242 12.34 52.727l-17.864-4.121c-5.113-1.844-10.207-2.692-15.219-2.996 8.594-7.461 14.586-17.98 16.559-30.715zm-52.117 74.191l3.59-5.644.566-1.024c7.613-16.3 24.055-23.023 40.902-16.742l7.653 1.848-3.594 5.64-.566 1.016c-7.614 16.308-24.082 23.058-40.91 16.742zm37.41 53.195l-.773.883c-11.043 14.207-28.555 17.14-43.602 7.278l-7.047-3.48 4.762-4.708.773-.883c11.032-14.21 28.543-17.144 43.602-7.281l7.047 3.484zm7.074-23.578c-6.535-4.187-13.453-6.605-20.383-7.695 17.106-1.371 32.278-11.52 40.504-28.656l4.086-6.407c-.793 17.575-3.43 34.52-7.8 50.676zm0 0"/></symbol><symbol viewBox="0 0 401.98 402" id="phone" xmlns="http://www.w3.org/2000/svg"><path d="M401.129 311.475c-1.137-3.426-8.371-8.473-21.697-15.129-3.61-2.098-8.754-4.949-15.41-8.566a1437.412 1437.412 0 01-18.13-9.996 605.612 605.612 0 01-15.276-8.846c-.76-.571-3.139-2.234-7.136-5-4.001-2.758-7.375-4.805-10.14-6.14-2.759-1.327-5.473-1.995-8.138-1.995-3.806 0-8.56 2.714-14.268 8.135a139.01 139.01 0 00-15.7 17.706c-4.757 6.379-9.802 12.275-15.126 17.7-5.332 5.427-9.713 8.138-13.135 8.138-1.718 0-3.86-.479-6.427-1.424-2.566-.951-4.518-1.766-5.858-2.423-1.328-.671-3.607-1.999-6.845-4.004-3.244-1.999-5.048-3.094-5.428-3.285-26.075-14.469-48.438-31.029-67.093-49.676-18.649-18.658-35.211-41.019-49.676-67.097-.19-.381-1.287-2.19-3.284-5.424-2-3.237-3.333-5.518-3.999-6.854-.666-1.331-1.475-3.283-2.425-5.852s-1.427-4.709-1.427-6.424c0-3.424 2.713-7.804 8.138-13.134 5.424-5.327 11.326-10.373 17.7-15.128a138.95 138.95 0 0017.701-15.699c5.424-5.711 8.136-10.467 8.136-14.273 0-2.663-.666-5.378-1.997-8.137-1.332-2.765-3.378-6.139-6.139-10.138-2.762-3.997-4.427-6.374-4.999-7.139a627.13 627.13 0 01-8.848-15.271 1441.4 1441.4 0 01-9.995-18.131c-3.615-6.658-6.468-11.799-8.564-15.415C98.986 9.233 93.943 1.997 90.516.859 89.183.288 87.183 0 84.521 0c-5.142 0-11.85.95-20.129 2.856-8.282 1.903-14.799 3.899-19.558 5.996-9.517 3.995-19.604 15.605-30.264 34.826C4.863 61.566.01 79.271.01 96.78c0 5.135.333 10.131.999 14.989.666 4.853 1.856 10.326 3.571 16.418 1.712 6.09 3.093 10.614 4.137 13.56 1.045 2.948 2.996 8.229 5.852 15.845 2.852 7.614 4.567 12.275 5.138 13.988 6.661 18.654 14.56 35.307 23.695 49.964 15.03 24.362 35.541 49.539 61.521 75.521 25.981 25.98 51.153 46.49 75.517 61.526 14.655 9.134 31.314 17.032 49.965 23.698 1.714.568 6.375 2.279 13.986 5.141 7.614 2.854 12.897 4.805 15.845 5.852 2.949 1.048 7.474 2.43 13.559 4.145 6.098 1.715 11.566 2.905 16.419 3.576 4.856.657 9.853.996 14.989.996 17.508 0 35.214-4.856 53.105-14.562 19.219-10.656 30.826-20.745 34.823-30.269 2.102-4.754 4.093-11.273 5.996-19.555 1.909-8.278 2.857-14.985 2.857-20.126.006-2.673-.281-4.668-.855-6.012z"/></symbol><symbol viewBox="0 0 22.3 18.9" id="power" xmlns="http://www.w3.org/2000/svg"><path d="M17.4 3.1c-2.1 0-4.8 1.5-4.7 4.6 0 0-4.1-1.3-5.3 3 0 0-.7-1.5-1.6-2.2-1-.7-2.2-2.5-2.3-3.4.1-.5.2-.5.4-.6.1 0 .1.8 1 .9.8-.1 1-.3 1.3-.7l.9-1s.9-1.2.1-1.8c-.7-.7-2-2-3.6-1.7-.9.2-1.6.9-1.6.9L.8 2.2S0 3 0 4.6C0 6 .3 8.3.3 8.3l.4 2.4c.1.6.9 4.1 2.8 6 1.2 1.4 1.9 2 2.5 2.1 1 0 1.5-.6 2.3-.6.8 0 1.6.6 3.3.6s5.5-1 7.1-5.9c1.5-.6 3.6-1.7 3.6-5s-2.9-4.8-4.9-4.8zm.7 9.2c-1.1 4.4-4.6 5.6-6.3 5.8-1.6 0-2.5-.6-3.7-.6-.7 0-1.7.6-2 .6S5 17.4 4 16.3s-1.4-2.1-1.8-2.9c-.4-.8-1.1-4-1.1-4S.8 6.2.8 4.8c0-1.3.6-2.1.6-2.1L3 1.3c.9-.7 2-.2 2-.2s1.1.7 1.5 1.1c.5.4 0 .8 0 .8S5.4 4.4 5 4.5c-.5.1-.6-1.1-.6-1.1-.5.2-1.3.4-1.6 1.3-.3 1.1 1.3 3.4 2.5 4.5 1.1 1.1 1.8 2.9 1.8 2.9l.9-.3s-.1-2.1 1.7-3.2c2-1.1 3.8.4 3.8.4-.6-5 3.8-5.1 4.1-5.1s3.8.3 4.1 3.8c-.2 4-3.6 4.6-3.6 4.6z"/></symbol><symbol viewBox="0 0 22.2 29.8" id="rub" xmlns="http://www.w3.org/2000/svg"><path d="M6.9 20.3l.1 2.9h6.9l.2.2-.1 1.4H7v5H4.2l.1-4.9h-4l-.3-.2.2-1.5h4.1v-2.6L4.2.1l8.7-.1c3 0 5.3.7 6.9 2.2 1.6 1.5 2.4 3.6 2.4 6.3 0 3-1 5.4-3 7.1-2 1.7-4.7 2.5-8.3 2.5h-4v2.2zM17.5 3.9c-1.2-1.1-2.9-1.7-5.1-1.8L7 2.2l-.1 13.6 5.6.1c2.2-.3 3.9-1 5-2.3 1.2-1.2 1.7-2.9 1.7-5 .1-2-.5-3.6-1.7-4.7z"/></symbol><symbol viewBox="0 0 512 512" id="seaweed" xmlns="http://www.w3.org/2000/svg"><path d="M376 16c-5.52 0-10 4.48-10 10s4.48 10 10 10 10-4.48 10-10-4.48-10-10-10zm126 460h-56.324c2.121-3.656 3.324-7.885 3.324-12.43v-23.43c0-3.558 2.641-6.14 6.28-6.14h30.15c14.651 0 26.57-12.108 26.57-26.99 0-28.472-11.083-55.235-31.208-75.361-16.923-16.922-45.361-4.599-45.361 18.791a6.577 6.577 0 01-6.57 6.57h-30.15c-3.303 0-6.53.635-9.536 1.797l-3.076-8.458c-1.227-3.37.472-7.166 3.921-8.422l22.021-8.01c13.797-5.021 20.901-20.253 15.877-34.056l-8.012-22.025a6.56 6.56 0 013.926-8.41c22.262-8.105 23.587-39.041 2.142-49.051-25.808-12.025-54.746-13.287-81.483-3.552-13.796 5.02-20.913 20.251-15.886 34.06l8.019 22.007a6.573 6.573 0 01-3.933 8.423l-13.574 4.94c.065-6.889-2.52-13.799-7.765-19.044l-16.56-16.56a6.575 6.575 0 010-9.298l16.56-16.56c10.361-10.362 10.361-27.221 0-37.583C291.226 167.083 264.465 156 236 156c-23.892 0-35.353 28.788-18.792 45.351a6.581 6.581 0 010 9.298l-16.56 16.56c-10.383 10.383-10.383 27.198 0 37.583l16.56 16.56a6.581 6.581 0 010 9.298l-6.16 6.16c-2.887-3.3-6.585-5.921-10.879-7.486l-22.01-8.01a6.538 6.538 0 01-3.712-3.401 6.525 6.525 0 01-.223-5.019l8.021-22.014c5.021-13.795-2.083-29.033-15.886-34.056-26.738-9.735-55.677-8.474-81.491 3.555-21.436 10.005-20.115 40.942 2.149 49.048 3.364 1.225 5.181 4.96 3.923 8.415l-8.009 22.019c-5.022 13.798 2.073 29.034 15.878 34.058l22.018 8.009c3.403 1.239 5.163 5.017 3.924 8.422l-3.075 8.445a26.747 26.747 0 00-9.538-1.784h-29a6.577 6.577 0 01-6.57-6.57c0-23.44-28.47-35.682-45.361-18.791C11.375 351.483 0 379.104 0 407.43 0 422.081 11.919 434 26.57 434h29c3.726 0 6.43 2.583 6.43 6.14v23.43c0 4.491 1.141 8.723 3.147 12.43H10c-5.523 0-10 4.477-10 10s4.477 10 10 10h492c5.523 0 10-4.477 10-10s-4.477-10-10-10zm-373.207-.001c-4.725-3.85-10.578-5.999-16.653-5.999H88.71c-3.7 0-6.71-2.885-6.71-6.43v-23.43C82 425.482 70.391 414 55.57 414h-29a6.577 6.577 0 01-6.57-6.57c0-23.062 9.24-45.528 25.351-61.639 4.137-4.139 11.219-1.239 11.219 4.648 0 14.651 11.919 26.57 26.57 26.57l29-.1c1.979 0 3.876.982 5.19 2.451a10.05 10.05 0 001.224 1.958c.287.717.446 1.468.446 2.251v23.44c0 14.882 11.789 26.99 26.28 26.99h23.43c3.645 0 6.29 2.583 6.29 6.14v23.43c0 4.491 1.147 8.723 3.162 12.43h-49.369zm96.488-5.997h-23.44c-3.708 0-6.84-2.945-6.84-6.43v-23.43c0-14.658-11.548-26.14-26.29-26.14h-23.43c-3.404 0-6.28-3.201-6.28-6.99v-23.44c0-3.172-.583-6.295-1.696-9.234l6.243-17.146c5.011-13.769-2.111-29.046-15.878-34.058l-22.02-8.011c-3.403-1.238-5.163-5.017-3.922-8.425l8.008-22.015c5.027-13.793-2.075-29.027-15.875-34.05-5.486-1.997-5.869-9.64-.537-12.129 20.968-9.77 44.477-10.795 66.196-2.887 3.408 1.24 5.172 5.019 3.935 8.419l-8.021 22.014c-2.428 6.67-2.111 13.886.892 20.32 3.001 6.431 8.327 11.31 14.996 13.737l22.005 8.009a6.594 6.594 0 013.755 3.526c-6.598 10.282-5.404 24.177 3.568 33.15l16.56 16.56a6.575 6.575 0 010 9.298l-16.56 16.56c-10.361 10.361-10.361 27.221 0 37.583l26.237 26.237a26.41 26.41 0 00.288 17.364l.633 1.739a25.915 25.915 0 00-2.527-.131zm14.597-34.263L214.79 410.65a6.581 6.581 0 010-9.298l16.56-16.56c10.361-10.362 10.361-27.221 0-37.583l-16.56-16.56c-2.552-2.551-2.564-6.71 0-9.298l16.56-16.56c10.362-10.361 10.362-27.221.001-37.582-15.212-16.009-18.483-16.525-18.483-21.209 0-1.757.683-3.409 1.924-4.649l16.56-16.56c10.361-10.362 10.361-27.221 0-37.583C227.23 183.088 230.105 176 236 176c23.124 0 44.861 9.003 61.208 25.351a6.575 6.575 0 010 9.298l-16.56 16.56c-10.361 10.361-10.361 27.221 0 37.583l16.56 16.56a6.581 6.581 0 010 9.298l-16.56 16.56c-10.361 10.361-10.361 27.221 0 37.583l11.481 11.481-15.26 5.56c-6.668 2.427-11.994 7.304-14.995 13.734-3.004 6.434-3.32 13.649-.891 20.315l8.019 22.018c1.239 3.405-.522 7.184-3.921 8.423l-22.015 8.008c-1.098.399-2.16.873-3.188 1.407zm59.08-100.924l-4.166-4.167a6.57 6.57 0 01-.486-8.751c.45 1.498.376 1.124 4.652 12.918zm34.537 94.872l8.01 22.021c1.23 3.38-.48 7.17-3.921 8.422l-22.021 8.01a26.393 26.393 0 00-11.21 7.857H251.23l-5.265-14.454a6.56 6.56 0 013.933-8.419l22.025-8.012c13.762-5.015 20.882-20.292 15.872-34.058l-8.021-22.021a6.504 6.504 0 01.222-5.009 6.544 6.544 0 013.716-3.402l22.021-8.024a26.512 26.512 0 009.015-5.517c.042-.039.08-.082.122-.122.088-.085.173-.171.258-.259a26.53 26.53 0 006.477-28.146l-8.019-22.018a6.572 6.572 0 013.933-8.423l22.011-8.006c13.794-5.02 20.913-20.25 15.886-34.061l-8.019-22.006a6.57 6.57 0 013.935-8.423c21.718-7.908 45.227-6.882 66.189 2.885 5.302 2.474 4.998 10.118-.531 12.131-13.785 5.018-20.906 20.247-15.877 34.045l8.011 22.021c1.24 3.406-.52 7.185-3.921 8.423l-22.022 8.01c-13.798 5.022-20.9 20.255-15.876 34.057l6.966 19.14a10.037 10.037 0 001.386 4.316 6.543 6.543 0 01-4.267 6.978l-22.018 8.019c-13.785 5.017-20.906 20.246-15.877 34.045zM429 440.14v23.43c0 3.731-3.556 5.43-6.86 5.43h-23.43c-5.917 0-11.764 2.456-16.837 7h-31.687c9.803-6.581 14.412-19.311 10.111-31.128l-8.012-22.025a6.56 6.56 0 013.927-8.41l22.018-8.019c12.199-4.44 18.892-16.667 17.241-28.561.966-.547 2.073-.946 3.239-.946h30.15c14.651 0 26.57-11.819 26.57-26.47 0-5.905 7.098-8.771 11.219-4.648C482.997 362.139 492 383.88 492 407.01c0 3.724-3.07 6.99-6.57 6.99h-30.15c-14.736 0-26.28 11.482-26.28 26.14zM306 36c-22.056 0-40 17.944-40 40s17.944 40 40 40 40-17.944 40-40-17.944-40-40-40zm0 60c-11.028 0-20-8.972-20-20s8.972-20 20-20 20 8.972 20 20-8.972 20-20 20z"/><path d="M356 136c-16.542 0-30 13.458-30 30s13.458 30 30 30 30-13.458 30-30-13.458-30-30-30zm0 40c-5.514 0-10-4.486-10-10s4.486-10 10-10 10 4.486 10 10-4.486 10-10 10z"/></symbol><symbol viewBox="-34 0 511 511.996" id="seeds" xmlns="http://www.w3.org/2000/svg"><path d="M437.5 216.418l-3.777-15.113-14.063 11.379c-5.05-14.032-10.324-22.489-12.75-25.938l-2.695-3.836-4.66-.355c-3.121-.23-9.965-.43-19.774.804l6.2-18.972-17.34 4.222c-4.829 1.176-10.157 2.696-15.864 4.582 0-.027.012-.046.012-.078 2.207-114.187-45.875-164.87-51.36-170.277-.097-.098-.238-.121-.347-.211-.121-.11-.168-.258-.289-.355-.656-.547-1.422-.805-2.156-1.153-.367-.168-.664-.437-1.055-.566-1.332-.446-2.723-.645-4.094-.508-.02 0-.031-.012-.05-.012-7.66.785-76.899 10.297-147.032 101.399-3.976 6.132-7.672 12.504-11.242 18.992-31.828-22.832-56.2-28.703-63.371-29.957a9.89 9.89 0 00-8.16 2.238c-3.649 3.121-25.004 22.637-41.988 64.649a9.681 9.681 0 00-.555 1.43C11.05 184.05 2.633 217.253.5 259.788c.773 24.695 4.629 49.82 11.457 74.645 6.797 24.836 16.309 48.398 28.68 70.757 28.613 43.063 54.699 53.786 75.968 53.786 12.668 0 23.622-3.805 32.38-6.836 4.609-1.598 24.585-7.204 27.824-7.95 9.898 20.125 26.992 28.442 39.425 34.465 4.391 2.125 25.598 14.2 29.664 16.883 10.614 7.016 24.895 16.457 44.633 16.457 18.754 0 42.426-8.516 72.54-35.766 16.921-18.02 31.96-38.5 44.679-60.89 12.758-22.38 22.7-45.766 29.742-70.313 11.863-58.812 6.547-102.39.008-128.609zm-64.688-11.785c9.043-1.856 15.973-2.324 20.395-2.383 2.602 4.52 6.45 12.324 9.965 23.77l-50.793 41.105zM269.746 26.605c-7.902 11.825-15.781 25.25-24.266 41.352a9.948 9.948 0 004.153 13.426 9.911 9.911 0 004.62 1.144c3.567 0 7.028-1.93 8.806-5.308 11.23-21.317 21.296-37.684 31.742-51.625 13.484 17.808 39.742 63.273 38.152 146.316a251.7 251.7 0 01-1.152 9.332c-.258.117-.516.246-.785.367a246.193 246.193 0 00-8.082 3.778 270.358 270.358 0 00-5.375 2.71c-1.043.54-2.086 1.087-3.141 1.641-10.117 5.367-20.184 11.52-30.172 18.446-.656.445-1.3.902-1.957 1.359a312.636 312.636 0 00-6.867 4.96c-.953.708-1.91 1.442-2.871 2.165a382.35 382.35 0 00-6.324 4.883c-1.352 1.074-2.711 2.207-4.075 3.32-1.765 1.45-3.547 2.871-5.316 4.371a412.224 412.224 0 00-9.59 8.387 301.833 301.833 0 00-12.324 13.965c-8.227 9.918-15.91 20.472-23.024 31.562l-.03.031a331.38 331.38 0 00-9.302 15.333c-.398.707-.754 1.46-1.152 2.168-3.39 6.039-6.539 12.171-9.512 18.363-.058.12-.136.289-.238.508l-.219.476c-.097.211-.187.43-.297.645h-.011c-.012.011 0 .03-.012.043-.348.722-.664 1.46-1.004 2.187 7.844-63.914 22.184-123.91 42.856-178.52a9.936 9.936 0 00-5.774-12.816c-5.14-1.941-10.875.645-12.812 5.774-21.891 57.828-36.848 121.46-44.7 189.238-1.789-.547-3.496-1.106-5.418-1.64-21.87-6.071-49.082-13.645-47.832-79.942 2.336-23.016 7.594-46.258 15.633-69.09 4.196-11.984 9.383-24.148 15.395-36.152.031-.051.02-.11.05-.157 4.68-9.332 9.692-18.316 15.106-26.703 41.629-54.058 81.89-76.757 107.121-86.297zM170.684 425.18c-3.797.945-21.766 5.93-28.215 8.168-21.457 7.46-48.13 16.742-84.84-38.473-11.2-20.281-20.113-42.383-26.496-65.707-6.418-23.328-10.035-46.879-10.77-69.191 1.88-37.028 8.715-66.125 17.004-88.645C52.312 170.645 67.2 168.578 81.7 165c5.328-1.313 8.586-6.695 7.262-12.023-1.313-5.336-6.738-8.606-12.024-7.266-10.117 2.496-20.453 4.156-30.859 5.117 10.457-21.324 21.32-34.035 26.984-39.742 9.036 2.336 28.504 9.055 53.04 27.172-.297.625-.547 1.262-.836 1.898-1.996 4.332-3.977 8.676-5.793 13.13a312.037 312.037 0 00-6.153 16.05c-8.547 24.297-14.152 49.082-16.707 74.484-1.597 82.504 38.43 93.633 62.34 100.282 4.703 1.312 18.703 7.265 19.043 7.265.078 0 .367-.012.426-.02-.188.548-.348 1.114-.535 1.66-1.867 5.255-3.489 10.227-4.871 15.036-.07.258-.137.527-.2.797a222.589 222.589 0 00-2.511 15.152c-.22 1.653-.309 3.184-.47 4.781-.323 3.153-.636 6.282-.773 9.204-.078 1.558-.07 3.05-.09 4.57-.05 3.02-.03 5.941.11 8.715.059 1.086.129 2.168.219 3.23.285 3.668.734 7.125 1.34 10.367.011.098.023.22.043.32zm247.515-84.864c-6.41 22.243-15.73 44.164-27.719 65.192-11.953 21.031-26.054 40.25-41.32 56.539-49.781 45.02-73.351 29.426-92.305 16.906-5.695-3.77-25.808-15.215-31.96-18.2-12.114-5.87-25.93-12.679-32.489-30.737-.047-.18 0-.356-.07-.536-4.77-13.863-4.809-32.785-.129-56.238 1.234-4.246 2.645-8.476 4.086-12.695a365.8 365.8 0 014.504-12.133c2.644-6.758 5.515-13.336 8.535-19.746.219-.477.508-1.102.527-1.133.008-.012 0-.031.008-.05l.012-.008a290.504 290.504 0 019.937-19.09c0-.012.012-.012.02-.02a323.181 323.181 0 018.746-14.422c3.09-4.82 6.3-9.488 9.59-14.05.031-.04.07-.07.09-.11.02-.027.02-.047.039-.078 7.215-9.969 14.86-19.34 22.851-27.875a352.638 352.638 0 0112.223-10.523c1.18-.977 2.363-1.91 3.547-2.864a340.1 340.1 0 018.785-6.836 268.887 268.887 0 013.61-2.683 297.88 297.88 0 019.113-6.383c.894-.605 1.789-1.242 2.683-1.836 7.922-5.227 15.563-9.723 22.836-13.578 1.485-.781 2.961-1.48 4.453-2.223 2.078-1.043 4.176-2.129 6.192-3.07 2.504-1.176 5.008-2.258 7.523-3.32 4.711-2.008 9.281-3.848 13.543-5.336l-43.058 131.726 108.851-88.097c4.09 24.55 5.602 59.464-3.254 103.507zm0 0"/><path d="M290.297 254.73c-3.078 1.848-75.496 46.41-80.008 136.391-.281 5.484 3.945 10.145 9.418 10.426.172.008.34.008.508.008a9.937 9.937 0 009.918-9.438c3.976-79.156 69.765-119.953 70.422-120.36 4.691-2.831 6.191-8.945 3.36-13.636-2.825-4.703-8.927-6.23-13.618-3.39zm0 0"/></symbol><symbol id="smile" viewBox="0 0 20.6 20.8" xml:space="preserve" xmlns="http://www.w3.org/2000/svg"><style>.axst0{fill:#000}</style><path class="axst0" d="M10.3.2C4.7.2.1 4.8.1 10.4s4.6 10.2 10.2 10.2S20.5 16 20.5 10.4 15.9.2 10.3.2zm0 19.6c-5.2 0-9.4-4.2-9.4-9.4S5.1 1 10.3 1s9.4 4.2 9.4 9.4-4.2 9.4-9.4 9.4z"/><path class="axst0" d="M10.3 15.7c-3.5 0-5.6-3.1-5.6-3.1l-.7.5c2.8 3.6 6.3 3.5 6.3 3.5s3.5.2 6.3-3.5l-.7-.5s-2.1 3.1-5.6 3.1zm-3.4-4.2C9.3 10.4 9.7 9 9.7 8.3c0-.8-.5-1.7-1.4-1.7-1 0-1.4.5-1.4.5s-.4-.5-1.4-.5c-.9 0-1.4 1-1.4 1.7s.4 2.1 2.8 3.2zm0-3.4c.5-.8 1.9-.9 2 .1 0 1.4-2 2.4-2 2.4s-2-1-2-2.4c.1-1 1.5-.9 2-.1zm6.8 3.4c2.4-1.1 2.8-2.5 2.8-3.1 0-.8-.5-1.7-1.4-1.7-1 0-1.4.5-1.4.5s-.4-.5-1.4-.5c-.9 0-1.4 1-1.4 1.7 0 .6.4 2 2.8 3.1zm0-3.4c.5-.8 1.9-.9 2 .1 0 1.4-2 2.4-2 2.4s-2-1-2-2.4c.1-1 1.5-.9 2-.1z"/></symbol><symbol viewBox="0 0 36.7 36.7" id="tv" xmlns="http://www.w3.org/2000/svg"><path d="M35.7 3.7c-1.5.9-3.1 1.5-4.8 1.9-1.4-1.5-3.3-2.4-5.5-2.4-4.2 0-7.5 3.5-7.5 7.7 0 .6.1 1.2.2 1.8-6.3-.4-11.8-3.5-15.5-8.2-.6 1.1-1 2.5-1 3.9 0 2.7 1.3 5 3.4 6.4-1.2 0-2.4-.4-3.4-1v.2c0 3.7 2.6 6.9 6 7.6-.6.2-1.3.3-2 .3-.5 0-1 0-1.4-.1 1 3.1 3.7 5.3 7 5.4-2.6 2.1-5.8 3.3-9.4 3.3-.6 0-1.2 0-1.8-.1 3.3 2.2 7.3 3.5 11.5 3.5 13.9 0 21.4-11.8 21.4-22v-1c1.5-1.1 2.8-2.4 3.8-4-1.3.6-2.8 1-4.3 1.2 1.5-1.1 2.7-2.6 3.3-4.4"/></symbol><symbol viewBox="0 0 36.7 36.7" id="vk" xmlns="http://www.w3.org/2000/svg"><path d="M36.5 26.8c0-.1-.1-.2-.1-.2-.6-1.1-1.9-2.6-3.7-4.2-.8-.8-1.3-1.3-1.5-1.6-.4-.5-.5-1-.3-1.5.2-.4.7-1.2 1.7-2.5.5-.7.9-1.2 1.2-1.6 2.2-2.9 3.2-4.8 2.9-5.6l-.1-.2c-.1-.3-.3-.4-.6-.5-.3-.1-.7-.1-1.2 0h-5.9c-.2 0-.2.1-.2.1h-.1l-.1.1c-.1 0-.1.1-.2.2s-.1.2-.2.3c-.6 1.5-1.3 3-2 4.3-.5.8-.9 1.5-1.3 2.1-.4.6-.7 1-1 1.3l-.7.7c-.2.2-.4.2-.5.2-.1 0-.2-.1-.3-.1-.2-.1-.3-.3-.4-.5-.1-.2-.2-.4-.2-.7 0-.3-.1-.6-.1-.8V10.4c0-.4 0-.7-.1-.9 0-.2-.1-.4-.2-.6-.1-.2-.2-.4-.4-.5l-.6-.3c-.7-.2-1.5-.2-2.6-.2-2.4 0-3.9.1-4.6.5-.3.1-.5.3-.7.6-.2.3-.3.4-.1.5.8.1 1.3.4 1.6.8l.1.2c.1.2.2.5.3.9.1.4.1.9.2 1.4.1.9.1 1.7 0 2.4s-.1 1.2-.2 1.5c-.1.4-.1.7-.3.9l-.2.4c0 .1-.1.1-.1.1-.2.1-.3.1-.5.1s-.4-.1-.6-.3c-.3-.2-.5-.4-.8-.7-.3-.3-.6-.7-.9-1.3-.3-.6-.7-1.2-1.1-2l-.3-.6c-.2-.4-.5-.9-.8-1.6-.3-.7-.6-1.3-.9-2-.1-.2-.3-.4-.5-.6h-.1C7.1 9 7 9 6.9 8.9c-.1 0-.3-.1-.4-.1H1.3c-.6 0-1 .2-1.2.4v.1c-.1.1-.1.2-.1.3 0 .1 0 .3.1.5.8 1.8 1.6 3.5 2.5 5.2.9 1.7 1.7 3 2.3 4 .7 1 1.3 2 2 2.9.7.9 1.1 1.5 1.4 1.7.2.3.4.4.5.6l.5.5c.3.3.8.7 1.3 1.1.6.4 1.2.8 2 1.3.7.4 1.6.8 2.5 1 1 .3 1.9.4 2.8.3h2.2c.4 0 .8-.2 1-.4l.1-.1c.1-.1.1-.2.1-.4s.1-.3.1-.5c0-.5 0-1 .1-1.5.1-.4.2-.8.3-1 .1-.2.3-.4.4-.6.2-.2.3-.2.3-.3.1 0 .1-.1.2-.1.3-.1.7 0 1.1.3.4.3.8.7 1.2 1.1.4.4.8.9 1.3 1.5.5.5 1 1 1.3 1.2l.4.2c.3.2.6.3 1 .4.4.1.8.2 1.1.1l4.9-.1c.5 0 .9-.1 1.1-.2.3-.2.4-.3.5-.5.1-.2.1-.4 0-.7 0 0 0-.2-.1-.3zm0 0"/></symbol><symbol viewBox="0 0 511 511" id="washing-powder" xmlns="http://www.w3.org/2000/svg"><circle cx="135.5" cy="175.5" r="7.5"/><circle cx="183.5" cy="175.5" r="7.5"/><circle cx="159.5" cy="207" r="7.5"/><circle cx="207.5" cy="207" r="7.5"/><circle cx="63" cy="207" r="7.5"/><circle cx="111.5" cy="207" r="7.5"/><circle cx="159.5" cy="144" r="7.5"/><circle cx="111.5" cy="144" r="7.5"/><circle cx="88" cy="175.5" r="7.5"/><path d="M487.5 224h-71.392c-4.143 0-7.5 3.358-7.5 7.5s3.357 7.5 7.5 7.5H487.5c4.687 0 8.5 3.813 8.5 8.5v2.446a8.474 8.474 0 01-7.103 8.385l-226.631 37.771a7.5 7.5 0 00-6.267 7.398v40c0 31.154-25.346 56.5-56.5 56.5h-128C40.346 400 15 374.654 15 343.5V239h364.326c4.143 0 7.5-3.358 7.5-7.5s-3.357-7.5-7.5-7.5H268.581c-4.269-10.311-15.456-35.376-32.9-60.749C205.433 119.255 170.791 96 135.5 96s-69.933 23.255-100.181 67.251C13.056 195.635.98 227.525.478 228.867c-.015.04-.023.081-.037.121a7.54 7.54 0 00-.19.62c-.019.073-.04.146-.056.219-.05.219-.088.441-.119.666-.008.059-.021.118-.027.177a7.34 7.34 0 00-.049.83v112C0 382.925 32.075 415 71.5 415h128c39.425 0 71.5-32.075 71.5-71.5v-33.646l220.364-36.727A23.428 23.428 0 00511 249.946V247.5c0-12.958-10.542-23.5-23.5-23.5zm-352-113c61.131 0 103.635 83.529 116.725 113H18.768C31.837 194.529 74.29 111 135.5 111z"/></symbol></svg>