<?xml version="1.0" encoding="utf-8"?><!DOCTYPE svg PUBLIC "-//W3C//DTD SVG 1.1//EN" "http://www.w3.org/Graphics/SVG/1.1/DTD/svg11.dtd"><svg xmlns="http://www.w3.org/2000/svg" xmlns:xlink="http://www.w3.org/1999/xlink"><symbol id="4" viewBox="0 0 15.2 15.2" xml:space="preserve" xmlns="http://www.w3.org/2000/svg"><style>.ast0{fill:#c6f7ff}</style><path class="ast0" d="M4.3 3c0 .2.4.4 1 .4s1-.2 1-.4-.4-.4-1-.4c-.5 0-1 .1-1 .4z"/><path class="ast0" d="M15.1 6.7c0-1-.8-1.8-1.8-1.8H4.1S1.7 5 .6 3.1C.7 1.7 1.8.7 3.2.7h4c1.5 0 2.6 1.2 2.6 2.6v.5h.5v-.4C10.3 1.6 8.9.2 7.1.2H3.3C1.5.2.1 1.6.1 3.4v4.7c0 1.8 1.4 3.2 3.2 3.2H4v-.5h-.8C1.7 10.8.6 9.6.6 8.2V4c.3.4 1.3 1.4 3.4 1.4h9.3c.7 0 1.2.5 1.2 1.2v.8c0 .7-.5 1.2-1.2 1.2H6.9c-1 0-1.8.8-1.8 1.8v2.7c0 1 .8 1.8 1.8 1.8h6.4c1 0 1.8-.8 1.8-1.8v-2.7-3.1-.6zm-.6 6.6c0 .7-.5 1.2-1.2 1.2H6.8c-.7 0-1.2-.5-1.2-1.2v-2.9c0-.7.5-1.2 1.2-1.2h1.9v1.7h.5V9.2H12.4v1.7h.5V9.2h.4c.5 0 1-.2 1.3-.5v4.6z"/></symbol><symbol id="5" viewBox="0 0 16 15.2" xml:space="preserve" xmlns="http://www.w3.org/2000/svg"><style>.bst0{fill:#c6f7ff}</style><path class="bst0" d="M2.3 9.3c0 .2.1.4.1.6 0 .8.1 2.1.1 2.1H3s0-2.1-.3-3.2c-.3-1.2-.4-3.4.3-5l-.5-.2s-.6 1.2-.6 3.1c0 1.2.1 1.7.2 2.2C1.7 8.6.6 7.6.7 5.5.9 3.1 3 .9 3 .9s3.7 3.5.4 7.4l.4.3S5.3 6.9 5.3 5c0-1.9-.8-3.5-2.3-4.8C3 .2.4 2.7.2 5.7c-.1 2.8 2 3.8 2 3.8l.1-.2z"/><path class="bst0" d="M7.5 6.7C3.8 7.8 4 11.4 4.1 12.2c-1.3 1.3-1.9 2.5-1.9 2.5l.4.2c3.8-6.3 9.7-5.1 9.7-5.1v-.5c-3.6-.4-6.1 1-7.8 2.4-.1-1.3.5-4.4 4.3-4.7 4.4-.1 6.5 2.5 6.5 2.5-2.3 3.7-4.9 4.2-6.5 4.4C7.1 14.2 5 13 5 13l-.2.4s1.8 1.2 4.1 1c5-.6 6.9-5 6.9-5-.5-1-4.2-3.7-8.3-2.7z"/></symbol><symbol id="6" viewBox="0 0 18.2 14.8" xml:space="preserve" xmlns="http://www.w3.org/2000/svg"><style>.cst0{fill:#c6f7ff}</style><path class="cst0" d="M2.9 5.7l1-.8H4c.3 0 .5-.2.5-.5 0-.2-.1-.3-.2-.4V1.9h-.5V4c-.2.1-.3.2-.3.4v.1l-1 .8.4.4z"/><path class="cst0" d="M18.1 11.1V7.9c0-1-.4-1.4-.4-1.4s-1-1.3-1.6-2.1-1.4-.8-1.4-.8h-3.4v-.5c0-.7-.5-1.2-1.2-1.2H7.2C6.5.9 5.3.2 4 .2 1.8.2.1 2 .1 4.2c0 .9.3 1.7.8 2.4V11c0 .7.5 1.2 1.2 1.2h.5v.1c0 1.2 1 2.2 2.2 2.2 1.2 0 2.2-1 2.2-2.2v-.1h5v.1c0 1.2 1 2.2 2.2 2.2 1.2 0 2.2-1 2.2-2.2v-.1h.2c1.7.1 1.5-1.1 1.5-1.1zm-.5-3.5v.3h-3.9c-.2 0-.4-.2-.4-.4V5.9c0-.2.2-.4.4-.4h2.6c.3.3.6.7.8 1 .5.6.5 1.1.5 1.1zM4 .8c1.9 0 3.5 1.5 3.5 3.5S5.9 7.7 4 7.7.6 6.1.6 4.2 2.1.8 4 .8zM4.7 14c-.9 0-1.6-.7-1.6-1.6s.7-1.6 1.6-1.6 1.6.7 1.6 1.6S5.6 14 4.7 14zm2-2.3c-.3-.8-1.1-1.5-2-1.5-.9 0-1.7.6-2 1.5H2c-.3 0-.6-.3-.6-.6v-4c.7.6 1.6 1 2.6 1 2.2 0 3.9-1.8 3.9-3.9 0-.6-.2-1.2-.4-1.7h2.6c.3 0 .6.3.6.6v8c0 .3-.3.6-.6.6H6.7zm7.4 2.3c-.9 0-1.6-.7-1.6-1.6s.7-1.6 1.6-1.6 1.6.7 1.6 1.6S15 14 14.1 14zm2.5-2.2h-.4c-.3-.9-1.1-1.5-2-1.5-1 0-1.8.6-2 1.5h-1c.2-.2.3-.4.3-.7V4h3.1c.9 0 1.3.6 1.3.6s-.1.2.1.4h-2.3c-.5 0-.8.4-.8.8v1.6c0 .5.4.8.8.8h4v2.6c-.1 1.1-1.1 1-1.1 1z"/></symbol><symbol id="arrow" viewBox="0 0 14.2 25.5" xml:space="preserve" xmlns="http://www.w3.org/2000/svg"><style>.dst0{fill:#0d0e0f}</style><path class="dst0" d="M14.2 12.7L1.5 0 0 1.5l11.3 11.2L0 24l1.5 1.5 12.7-12.8z"/></symbol><symbol id="checkmark" viewBox="0 0 10.9 8.7" xml:space="preserve" xmlns="http://www.w3.org/2000/svg"><style>.est0{fill:#0d0e0f}</style><path class="est0" d="M10.3.6C9.6-.2 8.4-.2 7.7.5L4 4.2l-.8-.8c-.7-.7-1.9-.7-2.6 0H.5c-.7.7-.7 1.9 0 2.6l2.2 2.2c.4.4.9.5 1.3.5.5 0 .9-.2 1.3-.5l5-5c.7-.7.7-1.9 0-2.6z"/></symbol><symbol viewBox="0 0 442.326 442.326" id="chocolate-bar" xmlns="http://www.w3.org/2000/svg"><path d="M430.024 68.87l-56.568-56.568C365.523 4.369 354.976 0 343.757 0c-11.218 0-21.766 4.369-29.699 12.302a41.962 41.962 0 00-12.3 30.598 41.91 41.91 0 00-30.597 12.301 41.949 41.949 0 00-12.3 30.598c-11.206-.274-22.305 4.008-30.598 12.3a41.962 41.962 0 00-12.3 30.597c-11.214-.228-22.305 4.008-30.597 12.301h-.001L45.358 281.003l-.023.023-42.279 42.278a9.955 9.955 0 00-2.729 4.671 9.952 9.952 0 00.556 6.629l.002.003c.214.475.463.93.746 1.362a9.968 9.968 0 005.583 4.135l.019.005c.01.005.016.006.023.007l34.258 9.789 9.789 34.258a10 10 0 006.868 6.868l34.254 9.785 9.787 34.255a.328.328 0 00.006.022l.003.01.003.013.004.013.001.005a9.963 9.963 0 005.436 6.284l.012.005a9.978 9.978 0 004.144.904c.909 0 1.834-.125 2.752-.388a9.95 9.95 0 004.451-2.671l42.276-42.276a.25.25 0 00.023-.023l60.658-60.658a10 10 0 0014.142 0l72.278-72.278c3.905-3.905 3.905-10.237 0-14.143l-.85-.85a41.99 41.99 0 006.08-22.677 42 42 0 0030.597-12.3 41.949 41.949 0 0012.3-30.598c11.2.261 22.305-4.008 30.598-12.3a41.95 41.95 0 0012.3-30.598c11.205.209 22.305-4.009 30.597-12.301 7.933-7.933 12.302-18.479 12.302-29.698.001-11.217-4.368-21.764-12.301-29.698zM116.773 413.234l-6.644-23.255a10 10 0 00-6.868-6.868l-34.254-9.785-9.789-34.258a10 10 0 00-6.868-6.868l-23.259-6.646 23.338-23.338 87.681 87.682-23.337 23.336zm118.18-104.038L211.46 200.459c-1.167-5.398-6.488-8.825-11.886-7.662-5.398 1.166-8.829 6.488-7.663 11.886l23.703 109.71-61.362 61.362-87.681-87.681 125.865-125.865 94.752 94.752-52.235 52.235zm180.93-195.071a21.985 21.985 0 01-25.349 4.145 10 10 0 00-13.406 13.406 21.98 21.98 0 01-4.144 25.348 21.978 21.978 0 01-25.348 4.144 9.999 9.999 0 00-13.406 13.406 21.98 21.98 0 01-4.144 25.348 21.98 21.98 0 01-25.348 4.144 10 10 0 00-13.406 13.406 21.972 21.972 0 011.231 16.581l-84.289-84.289a21.97 21.97 0 0116.58 1.231 9.999 9.999 0 0013.406-13.406 21.978 21.978 0 014.144-25.348 21.974 21.974 0 0125.348-4.143 9.999 9.999 0 0013.406-13.406 21.981 21.981 0 014.144-25.349 21.981 21.981 0 0125.348-4.144 10 10 0 0013.406-13.406 21.976 21.976 0 014.144-25.348 21.857 21.857 0 0115.556-6.444 21.857 21.857 0 0115.556 6.444l56.569 56.568a21.857 21.857 0 016.444 15.557 21.854 21.854 0 01-6.442 15.555z"/></symbol><symbol viewBox="0 0 18 18" id="close" xmlns="http://www.w3.org/2000/svg"><path class="gst0" d="M12.2 9l5.2-5.2c.8-.8.8-2 0-2.7L17 .7c-.8-.8-2-.8-2.7 0L9 5.8 3.8.6C3-.2 1.8-.2 1 .6L.6 1c-.8.8-.8 2 0 2.7L5.8 9 .6 14.2c-.8.8-.8 2 0 2.7l.4.5c.8.8 2 .8 2.7 0L9 12.2l5.2 5.2c.8.8 2 .8 2.7 0l.4-.4c.8-.8.8-2 0-2.7L12.2 9z"/></symbol><symbol id="hamburger" viewBox="0 0 24 22.1" xml:space="preserve" xmlns="http://www.w3.org/2000/svg"><style>.hst0{fill:#0d0e0f}</style><path class="hst0" d="M22.1 0H1.9C.8 0 0 .8 0 1.9v.3C0 3.2.8 4 1.9 4h20.3c1 0 1.9-.8 1.9-1.9v-.2C24 .8 23.2 0 22.1 0zM22.1 9H1.9C.8 9 0 9.9 0 10.9v.3c0 1 .8 1.9 1.9 1.9h20.3c1 0 1.9-.8 1.9-1.9v-.3c-.1-1-.9-1.9-2-1.9zM22.1 18H1.9c-1 0-1.9.8-1.9 1.9v.3c0 1 .8 1.9 1.9 1.9h20.3c1 0 1.9-.8 1.9-1.9v-.3c-.1-1-.9-1.9-2-1.9z"/></symbol><symbol id="logo" viewBox="0 0 53.6 39" xml:space="preserve" xmlns="http://www.w3.org/2000/svg"><style>.ist0{fill:#fff}</style><path class="ist0" d="M.4 8.8c0-2.5.8-4.5 2.4-6.2C4.5 1 6.5.1 9 .1c2.6 0 4.6.7 6.2 2.2L14 4.1c-.6-.6-1.4-1-2.3-1.3s-1.7-.5-2.6-.5c-1.9 0-3.4.6-4.6 1.8-1.1 1.3-1.6 2.8-1.6 4.7 0 1.9.6 3.5 1.7 4.8 1.2 1.3 2.7 1.9 4.6 1.9.9 0 1.9-.2 2.8-.6s1.7-.9 2.4-1.6l1.3 1.7c-1.8 1.8-4 2.7-6.6 2.7-2.6 0-4.7-.8-6.3-2.5C1.2 13.4.4 11.3.4 8.8zM18.7 17.4V.4H21v7.4h8.8V.4h2.4v16.9h-2.4V9.9H21v7.4h-2.3zM35.6 8.8c0-2.4.8-4.5 2.5-6.2C39.7.9 41.8.1 44.3.1s4.6.8 6.2 2.5C52.2 4.3 53 6.3 53 8.8s-.8 4.6-2.5 6.3-3.7 2.6-6.2 2.6-4.6-.9-6.2-2.6c-1.7-1.7-2.5-3.8-2.5-6.3zm2.5 0c0 1.9.6 3.5 1.8 4.8 1.2 1.3 2.7 1.9 4.5 1.9 1.8 0 3.3-.6 4.5-1.9 1.2-1.3 1.8-2.9 1.8-4.8 0-1.8-.6-3.4-1.8-4.6-1.2-1.2-2.7-1.9-4.5-1.9-1.8 0-3.3.6-4.5 1.9-1.3 1.2-1.8 2.7-1.8 4.6zM.4 29.8c0-2.5.8-4.5 2.4-6.2C4.5 22 6.5 21.1 9 21.1c2.6 0 4.6.7 6.2 2.2L14 25.1c-.6-.6-1.4-1-2.3-1.3s-1.8-.5-2.6-.5c-1.9 0-3.4.6-4.6 1.8-1.1 1.2-1.7 2.8-1.7 4.6 0 1.9.6 3.5 1.7 4.8 1.2 1.3 2.7 1.9 4.6 1.9.9 0 1.9-.2 2.8-.6s1.7-.9 2.4-1.6l1.3 1.7c-1.8 1.8-4 2.7-6.6 2.7-2.6 0-4.7-.8-6.3-2.5C1.2 34.4.4 32.3.4 29.8zM17.2 29.8c0-2.5.8-4.5 2.4-6.2 1.6-1.6 3.7-2.5 6.2-2.5 2.6 0 4.6.7 6.2 2.2l-1.2 1.8c-.6-.6-1.4-1-2.3-1.3s-1.8-.5-2.6-.5c-1.9 0-3.4.6-4.6 1.8-1.1 1.2-1.7 2.8-1.7 4.6 0 1.9.6 3.5 1.7 4.8 1.2 1.3 2.7 1.9 4.6 1.9.9 0 1.9-.2 2.8-.6s1.7-.9 2.4-1.6l1.3 1.7c-1.8 1.8-4 2.7-6.6 2.7-2.6 0-4.7-.8-6.3-2.5-1.5-1.7-2.3-3.8-2.3-6.3zM34 29.8c0-2.4.8-4.5 2.5-6.2 1.6-1.7 3.7-2.5 6.2-2.5s4.6.8 6.2 2.5c1.6 1.7 2.5 3.7 2.5 6.2s-.8 4.6-2.5 6.3-3.7 2.6-6.2 2.6-4.6-.9-6.2-2.6c-1.7-1.7-2.5-3.8-2.5-6.3zm2.4 0c0 1.9.6 3.5 1.8 4.8 1.2 1.3 2.7 1.9 4.5 1.9 1.8 0 3.3-.6 4.5-1.9 1.2-1.3 1.8-2.9 1.8-4.8 0-1.8-.6-3.4-1.8-4.6-1.2-1.2-2.7-1.9-4.5-1.9-1.8 0-3.3.6-4.5 1.9-1.2 1.2-1.8 2.7-1.8 4.6z"/></symbol><symbol id="man" viewBox="0 0 18.8 20" xml:space="preserve" xmlns="http://www.w3.org/2000/svg"><style>.jst0{fill:#000}</style><path class="jst0" d="M17.4 5.8c.2-.2.4-.4.5-.6.7-.9.6-1.3-.1-1.9s-1.8.3-1.8.3l-.2.2c-1.1-1-2.5-1.8-4.1-2.2C11.1.7 10.2.1 9.2.1c-1.1 0-2 .7-2.6 1.6a9.4 9.4 0 00-3.5 2c-.2-.1-.6-.5-1.1-.6C1.3 3 .6 3.5.5 4.2c0 .4.4 1 .9 1.6C.5 7.2 0 8.8 0 10.6c0 5.1 4.2 9.3 9.4 9.3 1.8 0 3.6-.5 5-1.4l-.3-.7c-1.3-3.3-1-5.4-.9-6.4.3-1.1 1.4-2.6 2-3.4.4-.5 1-1 1.6-1.6.8 1.2 1.2 2.6 1.2 4.2 0 2.3-1 4.4-2.5 6l.6.5c1.7-1.7 2.7-4 2.7-6.5 0-1.8-.5-3.4-1.4-4.8zM9.2.9c1.3 0 2.3 1.2 2.3 2.7s-1 2.7-2.3 2.7-2.3-1.1-2.3-2.7S7.9.9 9.2.9zm0 6.2c1.7 0 3.1-1.6 3.1-3.5 0-.4-.1-.7-.2-1.1 1.2.4 2.2 1 3.1 1.8-.8.7-2 1.6-2.6 2-.9.7-2.4 1.4-3.6 1.4-1.2 0-1.8-.5-2.7-.9-.8-.4-2.1-1.9-2.7-2.5.8-.7 1.7-1.2 2.6-1.6 0 .3-.1.6-.1.9 0 2 1.4 3.5 3.1 3.5zM.8 10.6c0-1.5.4-2.9 1.1-4.2l.3.3s2.5 2.9 3 3.6c.5.7-.1 1.2-.5 3-.3 1.4-.3 3.3-.3 4.2C2.2 15.9.8 13.4.8 10.6zm15.5-4.8c-.4.4-1.8 1.6-3 3.5s-1 3.4-.9 4.5c.1 1.1.4 2.1.5 2.5.1.3.5 1.4.6 1.7-1.2.6-2.6 1-4 1-1.6 0-3-.4-4.3-1.1 0-3.4.2-3.9.3-4.4 0-.5.3-1.5.6-2.3.2-.7-.1-1.3-.4-1.6-.3-.3-3.2-3.8-3.7-4.5-.6-.7-.7-1-.2-1.2.5-.3 1.8 1.3 2.4 2 .5.7 2.8 2.6 4.9 2.5s3.6-1.2 4.2-1.6c.5-.4 3.1-2.5 3.5-2.8.4-.3.9 0 .8.3-.1.3-.9 1.1-1.3 1.5z"/></symbol><symbol viewBox="-85 0 512 512.002" id="oat" xmlns="http://www.w3.org/2000/svg"><path d="M244.648 305.39c9.782 15.598 25.305 24.067 41.856 24.067 7.695 0 15.613-1.828 23.297-5.625l29.816-10.52-19.879-24.57c-8.297-13.234-20.761-21.137-34.441-23.289 10.367-.676 20.664-4.59 29.629-12.148l26.437-17.325-25.18-19.132c-5.73-5.551-12.23-9.348-19.023-11.77 5.668-4.328 10.61-9.953 14.38-16.894l18.269-25.774-30.391-8.62c-11.914-4.977-24.063-5.356-34.934-1.927 7.72-6.164 13.704-14.785 16.934-25.441l12.727-28.942-31.528-2.32c-26.512-5.14-50.187 9.086-58.015 34.918l-10.153 23.117a174.082 174.082 0 00-20.52-20.03l24.407-12.958c25.172-9.71 37.644-34.422 30.512-60.45l-4.645-31.26-27.918 14.82c-25.172 9.718-37.644 34.43-30.508 60.456l3.832 25.829c-8.379-6.477-17.414-12.137-26.953-16.98l11.934-21.696c15.75-21.914 12.652-49.418-7.559-67.29L126.008 0l-15.235 27.684c-15.742 21.914-12.644 49.421 7.579 67.304l9.953 11.18c-2.196-.867-4.34-1.809-6.578-2.586-3.872-1.332-7.91.207-10.172 3.395l-16.36-18.809C80.04 65.859 53.16 59.281 29.41 72.094L0 83.676l20.746 23.84c9.98 14.707 25.043 22.57 40.953 22.57 2.664 0 5.356-.305 8.047-.754-12.723 4.934-23.144 15.074-28.555 29.5l-14.55 28.07 31.308 4.328c4.723 1.243 9.414 1.844 13.965 1.844 8.137 0 15.813-1.988 22.64-5.597-2.472 7.414-3.425 15.55-2.175 24.171l.773 31.598 29.52-11.285c2.445-.613 4.695-1.504 6.945-2.395-.73 2.422-1.43 4.868-1.836 7.477l-8.547 30.426 31.536-2.114c.394.02.761-.054 1.168-.042a52.681 52.681 0 00-12.598 16.722l-16.992 26.645 30.804 7.101c3.61 1.305 7.2 2.098 10.782 2.617-13.184 1.11-25.73 7.516-35.016 19.235l-22.453 22.246 28.453 13.73c8.883 5.688 18.46 8.454 27.836 8.454 14.617 0 28.746-6.723 38.96-19.602l1.243-1.234c-28.098 67.875-88.582 117.703-168.316 132.93a9.006 9.006 0 00-7.153 10.53A9.01 9.01 0 0036.316 512c.567 0 1.125-.05 1.692-.16 81.086-15.48 143.691-64.192 176.008-131.113l-1.243 26.476c-4.464 26.613 10.442 49.938 36.465 57.067l29.258 11.921 1.477-31.558c4.46-26.621-10.442-49.945-36.465-57.063l-27.332-11.16c4.922-10.754 8.933-22.023 12.265-33.62l3.805 13.44c4.192 26.649 25.684 44.133 52.652 42.579l31.543 2.05-8.601-30.406c-4.192-26.668-25.89-44.144-52.656-42.578l-22.649-1.465c2.106-9.883 3.68-19.988 4.598-30.332zM203.16 59.935l6.965-3.618.98 6.625.243 1.141c4.941 17.297-3.067 33.164-19.914 39.465l-6.965 3.617-.985-6.617-.242-1.14c-4.941-17.298 3.07-33.165 19.918-39.473zM125.63 37.84l3.863-6.856 4.453 5.012.836.82c13.598 11.778 15.578 29.434 4.942 43.926l-3.864 6.856-4.445-5.004-.836-.82c-13.598-11.778-15.586-29.434-4.95-43.934zm104.969 371.933l.441-7.847 6.191 2.523 1.118.367c17.394 4.575 26.96 19.547 23.8 37.258l-.441 7.848-6.2-2.52-1.097-.37c-17.402-4.579-26.973-19.548-23.812-37.259zm24.558-63.855l.586-.04c17.863-1.257 31.758 10 34.367 27.794l2.063 7.586-7.266-.469-.582.035c-17.836 1.332-31.761-9.988-34.37-27.789l-2.06-7.586zm-17.07-69.8c.035-2.583.242-5.114.207-7.723-.137-8.81-.953-17.485-2.32-26.008l11.277 8.57c7.918 7.668 17.215 12.266 26.852 13.95a52.922 52.922 0 00-19.52 5.39zm-12.574-71.716l22.14 6.274c1.375.574 2.762 1.05 4.149 1.512-1.09.789-2.242 1.43-3.293 2.32l-16.192 10.617a178.035 178.035 0 00-6.804-20.723zm79.207 94.258l4.875 6.164-6.309 2.223-1.07.469c-16.047 8.117-33.145 3.293-42.54-12.043l-4.886-6.16 6.309-2.223 1.07-.469c16.055-8.129 33.144-3.293 42.55 12.04zm5.453-63.777l-5.59 3.672-.934.703c-13.652 11.754-31.39 11.125-44.18-1.531l-6.198-4.813 5.585-3.664.938-.703c13.645-11.75 31.398-11.121 44.176 1.523zm-17.324-64.336l7.539 2.215-3.867 5.453-.614.988c-8.422 15.902-25.18 21.797-41.703 14.688l-7.523-2.207 3.87-5.454.614-.988c8.402-15.91 25.16-21.832 41.684-14.695zm-71.555-33.766l.398-1.097c5.04-17.262 20.22-26.457 37.875-22.786l7.829.649-2.688 6.129-.406 1.097c-5.04 17.27-20.293 26.43-37.867 22.786l-7.84-.649zm2.105 24.532a56.255 56.255 0 0010.7 1.054c5.273 0 10.332-.828 15.093-2.332a52.653 52.653 0 00-13.652 16.246L221.762 195.7c-5.934-12.941-13.32-25.07-22.04-36.133zm-23.074 31.714l-19.976 1.34c-7.723-.387-14.903.918-21.457 3.387 1.945-6.84 2.62-14.238 1.496-22.031l-.766-31.086c16.656 13.12 30.461 29.636 40.703 48.39zM35.402 97.06l-5.093-5.985 6.226-2.445 1.055-.504c15.73-8.723 32.992-4.484 42.937 10.488l5.09 5.985-6.226 2.449-1.051.504c-15.73 8.71-32.992 4.48-42.938-10.492zm51.125 26.53l23.688-9.343c.719 2.836 2.652 5.309 5.625 6.344 15.883 5.508 30.433 13.61 43.348 23.695l-29.102 11.121c-4.356 1.09-8.29 2.782-12.016 4.727 0 0 .012-.008.012-.016l14.55-28.05-31.308-4.34c-7.351-1.934-14.535-2.16-21.347-1.141a55.999 55.999 0 006.55-2.996zm-24.414 50.134l-7.777-1.16 3.086-5.942.476-1.07c6.13-16.91 21.915-25.078 39.258-20.309l7.774 1.16-3.086 5.93-.477 1.082c-6.137 16.899-21.93 25.05-39.254 20.309zm55.77 40.882l-7.371 2.739-.164-6.688-.106-1.168c-2.773-17.773 7.125-32.523 24.613-36.71l7.368-2.735.164 6.687.11 1.168c2.776 17.774-7.122 32.524-24.614 36.707zm32.828 32.715l-7.262.485 1.809-6.434.23-1.152c2.457-16.973 15.11-27.934 31.844-27.934.816 0 1.645.028 2.473.082l.586.035 7.261-.484-1.808 6.445-.235 1.153c-2.574 17.797-16.171 29.039-34.312 27.851zm52.621-24.64l4.184-14.895c6.922 16.442 11.132 34.242 12.34 52.727l-17.864-4.121c-5.113-1.844-10.207-2.692-15.219-2.996 8.594-7.461 14.586-17.98 16.559-30.715zm-52.117 74.191l3.59-5.644.566-1.024c7.613-16.3 24.055-23.023 40.902-16.742l7.653 1.848-3.594 5.64-.566 1.016c-7.614 16.308-24.082 23.058-40.91 16.742zm37.41 53.195l-.773.883c-11.043 14.207-28.555 17.14-43.602 7.278l-7.047-3.48 4.762-4.708.773-.883c11.032-14.21 28.543-17.144 43.602-7.281l7.047 3.484zm7.074-23.578c-6.535-4.187-13.453-6.605-20.383-7.695 17.106-1.371 32.278-11.52 40.504-28.656l4.086-6.407c-.793 17.575-3.43 34.52-7.8 50.676zm0 0"/></symbol><symbol id="phone" xml:space="preserve" viewBox="0 0 401.998 401.998" xmlns="http://www.w3.org/2000/svg"><style>.lphone{fill:#fff}</style><path class="lphone" d="M401.129 311.475c-1.137-3.426-8.371-8.473-21.697-15.129-3.61-2.098-8.754-4.949-15.41-8.566a1437.412 1437.412 0 01-18.13-9.996 605.612 605.612 0 01-15.276-8.846c-.76-.571-3.139-2.234-7.136-5-4.001-2.758-7.375-4.805-10.14-6.14-2.759-1.327-5.473-1.995-8.138-1.995-3.806 0-8.56 2.714-14.268 8.135a139.01 139.01 0 00-15.7 17.706c-4.757 6.379-9.802 12.275-15.126 17.7-5.332 5.427-9.713 8.138-13.135 8.138-1.718 0-3.86-.479-6.427-1.424-2.566-.951-4.518-1.766-5.858-2.423-1.328-.671-3.607-1.999-6.845-4.004-3.244-1.999-5.048-3.094-5.428-3.285-26.075-14.469-48.438-31.029-67.093-49.676-18.649-18.658-35.211-41.019-49.676-67.097-.19-.381-1.287-2.19-3.284-5.424-2-3.237-3.333-5.518-3.999-6.854-.666-1.331-1.475-3.283-2.425-5.852s-1.427-4.709-1.427-6.424c0-3.424 2.713-7.804 8.138-13.134 5.424-5.327 11.326-10.373 17.7-15.128a138.95 138.95 0 0017.701-15.699c5.424-5.711 8.136-10.467 8.136-14.273 0-2.663-.666-5.378-1.997-8.137-1.332-2.765-3.378-6.139-6.139-10.138-2.762-3.997-4.427-6.374-4.999-7.139a627.13 627.13 0 01-8.848-15.271 1441.4 1441.4 0 01-9.995-18.131c-3.615-6.658-6.468-11.799-8.564-15.415C98.986 9.233 93.943 1.997 90.516.859 89.183.288 87.183 0 84.521 0c-5.142 0-11.85.95-20.129 2.856-8.282 1.903-14.799 3.899-19.558 5.996-9.517 3.995-19.604 15.605-30.264 34.826C4.863 61.566.01 79.271.01 96.78c0 5.135.333 10.131.999 14.989.666 4.853 1.856 10.326 3.571 16.418 1.712 6.09 3.093 10.614 4.137 13.56 1.045 2.948 2.996 8.229 5.852 15.845 2.852 7.614 4.567 12.275 5.138 13.988 6.661 18.654 14.56 35.307 23.695 49.964 15.03 24.362 35.541 49.539 61.521 75.521 25.981 25.98 51.153 46.49 75.517 61.526 14.655 9.134 31.314 17.032 49.965 23.698 1.714.568 6.375 2.279 13.986 5.141 7.614 2.854 12.897 4.805 15.845 5.852 2.949 1.048 7.474 2.43 13.559 4.145 6.098 1.715 11.566 2.905 16.419 3.576 4.856.657 9.853.996 14.989.996 17.508 0 35.214-4.856 53.105-14.562 19.219-10.656 30.826-20.745 34.823-30.269 2.102-4.754 4.093-11.273 5.996-19.555 1.909-8.278 2.857-14.985 2.857-20.126.006-2.673-.281-4.668-.855-6.012z"/></symbol><symbol id="power" viewBox="0 0 22.3 18.9" xml:space="preserve" xmlns="http://www.w3.org/2000/svg"><style>.mst0{fill:#000}</style><path class="mst0" d="M17.4 3.1c-2.1 0-4.8 1.5-4.7 4.6 0 0-4.1-1.3-5.3 3 0 0-.7-1.5-1.6-2.2-1-.7-2.2-2.5-2.3-3.4.1-.5.2-.5.4-.6.1 0 .1.8 1 .9.8-.1 1-.3 1.3-.7l.9-1s.9-1.2.1-1.8c-.7-.7-2-2-3.6-1.7-.9.2-1.6.9-1.6.9L.8 2.2S0 3 0 4.6C0 6 .3 8.3.3 8.3l.4 2.4c.1.6.9 4.1 2.8 6 1.2 1.4 1.9 2 2.5 2.1 1 0 1.5-.6 2.3-.6.8 0 1.6.6 3.3.6s5.5-1 7.1-5.9c1.5-.6 3.6-1.7 3.6-5s-2.9-4.8-4.9-4.8zm.7 9.2c-1.1 4.4-4.6 5.6-6.3 5.8-1.6 0-2.5-.6-3.7-.6-.7 0-1.7.6-2 .6S5 17.4 4 16.3s-1.4-2.1-1.8-2.9c-.4-.8-1.1-4-1.1-4S.8 6.2.8 4.8c0-1.3.6-2.1.6-2.1L3 1.3c.9-.7 2-.2 2-.2s1.1.7 1.5 1.1c.5.4 0 .8 0 .8S5.4 4.4 5 4.5c-.5.1-.6-1.1-.6-1.1-.5.2-1.3.4-1.6 1.3-.3 1.1 1.3 3.4 2.5 4.5 1.1 1.1 1.8 2.9 1.8 2.9l.9-.3s-.1-2.1 1.7-3.2c2-1.1 3.8.4 3.8.4-.6-5 3.8-5.1 4.1-5.1s3.8.3 4.1 3.8c-.2 4-3.6 4.6-3.6 4.6z"/></symbol><symbol id="rub" viewBox="0 0 22.2 29.8" xml:space="preserve" xmlns="http://www.w3.org/2000/svg"><style>.nst0{fill:#0d0d0d}</style><path class="nst0" d="M6.9 20.3l.1 2.9h6.9l.2.2-.1 1.4H7v5H4.2l.1-4.9h-4l-.3-.2.2-1.5h4.1v-2.6L4.2.1l8.7-.1c3 0 5.3.7 6.9 2.2 1.6 1.5 2.4 3.6 2.4 6.3 0 3-1 5.4-3 7.1-2 1.7-4.7 2.5-8.3 2.5h-4v2.2zM17.5 3.9c-1.2-1.1-2.9-1.7-5.1-1.8L7 2.2l-.1 13.6 5.6.1c2.2-.3 3.9-1 5-2.3 1.2-1.2 1.7-2.9 1.7-5 .1-2-.5-3.6-1.7-4.7z"/></symbol><symbol viewBox="0 0 512 512" id="seaweed" xmlns="http://www.w3.org/2000/svg"><path d="M376 16c-5.52 0-10 4.48-10 10s4.48 10 10 10 10-4.48 10-10-4.48-10-10-10zM502 476h-56.324c2.121-3.656 3.324-7.885 3.324-12.43v-23.43c0-3.558 2.641-6.14 6.28-6.14h30.15c14.651 0 26.57-12.108 26.57-26.99 0-28.472-11.083-55.235-31.208-75.361-16.923-16.922-45.361-4.599-45.361 18.791a6.577 6.577 0 01-6.57 6.57h-30.15c-3.303 0-6.53.635-9.536 1.797l-3.076-8.458c-1.227-3.37.472-7.166 3.921-8.422l22.021-8.01c13.797-5.021 20.901-20.253 15.877-34.056l-8.012-22.025a6.56 6.56 0 013.926-8.41c22.262-8.105 23.587-39.041 2.142-49.051-25.808-12.025-54.746-13.287-81.483-3.552-13.796 5.02-20.913 20.251-15.886 34.06l8.019 22.007a6.573 6.573 0 01-3.933 8.423l-13.574 4.94c.065-6.889-2.52-13.799-7.765-19.044l-16.56-16.56a6.575 6.575 0 010-9.298l16.56-16.56c10.361-10.362 10.361-27.221 0-37.583C291.226 167.083 264.465 156 236 156c-23.892 0-35.353 28.788-18.792 45.351a6.581 6.581 0 010 9.298l-16.56 16.56c-10.383 10.383-10.383 27.198 0 37.583l16.56 16.56a6.581 6.581 0 010 9.298l-6.16 6.16c-2.887-3.3-6.585-5.921-10.879-7.486l-22.01-8.01a6.538 6.538 0 01-3.712-3.401 6.525 6.525 0 01-.223-5.019l8.021-22.014c5.021-13.795-2.083-29.033-15.886-34.056-26.738-9.735-55.677-8.474-81.491 3.555-21.436 10.005-20.115 40.942 2.149 49.048 3.364 1.225 5.181 4.96 3.923 8.415l-8.009 22.019c-5.022 13.798 2.073 29.034 15.878 34.058l22.018 8.009c3.403 1.239 5.163 5.017 3.924 8.422l-3.075 8.445a26.747 26.747 0 00-9.538-1.784h-29a6.577 6.577 0 01-6.57-6.57c0-23.44-28.47-35.682-45.361-18.791C11.375 351.483 0 379.104 0 407.43 0 422.081 11.919 434 26.57 434h29c3.726 0 6.43 2.583 6.43 6.14v23.43c0 4.491 1.141 8.723 3.147 12.43H10c-5.523 0-10 4.477-10 10s4.477 10 10 10h492c5.523 0 10-4.477 10-10s-4.477-10-10-10zm-373.207-.001c-4.725-3.85-10.578-5.999-16.653-5.999H88.71c-3.7 0-6.71-2.885-6.71-6.43v-23.43C82 425.482 70.391 414 55.57 414h-29a6.577 6.577 0 01-6.57-6.57c0-23.062 9.24-45.528 25.351-61.639 4.137-4.139 11.219-1.239 11.219 4.648 0 14.651 11.919 26.57 26.57 26.57l29-.1c1.979 0 3.876.982 5.19 2.451a10.05 10.05 0 001.224 1.958c.287.717.446 1.468.446 2.251v23.44c0 14.882 11.789 26.99 26.28 26.99h23.43c3.645 0 6.29 2.583 6.29 6.14v23.43c0 4.491 1.147 8.723 3.162 12.43h-49.369zm96.488-5.997h-23.44c-3.708 0-6.84-2.945-6.84-6.43v-23.43c0-14.658-11.548-26.14-26.29-26.14h-23.43c-3.404 0-6.28-3.201-6.28-6.99v-23.44c0-3.172-.583-6.295-1.696-9.234l6.243-17.146c5.011-13.769-2.111-29.046-15.878-34.058l-22.02-8.011c-3.403-1.238-5.163-5.017-3.922-8.425l8.008-22.015c5.027-13.793-2.075-29.027-15.875-34.05-5.486-1.997-5.869-9.64-.537-12.129 20.968-9.77 44.477-10.795 66.196-2.887 3.408 1.24 5.172 5.019 3.935 8.419l-8.021 22.014c-2.428 6.67-2.111 13.886.892 20.32 3.001 6.431 8.327 11.31 14.996 13.737l22.005 8.009a6.594 6.594 0 013.755 3.526c-6.598 10.282-5.404 24.177 3.568 33.15l16.56 16.56a6.575 6.575 0 010 9.298l-16.56 16.56c-10.361 10.361-10.361 27.221 0 37.583l26.237 26.237a26.41 26.41 0 00.288 17.364l.633 1.739a25.915 25.915 0 00-2.527-.131zm14.597-34.263L214.79 410.65a6.581 6.581 0 010-9.298l16.56-16.56c10.361-10.362 10.361-27.221 0-37.583l-16.56-16.56c-2.552-2.551-2.564-6.71 0-9.298l16.56-16.56c10.362-10.361 10.362-27.221.001-37.582-15.212-16.009-18.483-16.525-18.483-21.209 0-1.757.683-3.409 1.924-4.649l16.56-16.56c10.361-10.362 10.361-27.221 0-37.583C227.23 183.088 230.105 176 236 176c23.124 0 44.861 9.003 61.208 25.351a6.575 6.575 0 010 9.298l-16.56 16.56c-10.361 10.361-10.361 27.221 0 37.583l16.56 16.56a6.581 6.581 0 010 9.298l-16.56 16.56c-10.361 10.361-10.361 27.221 0 37.583l11.481 11.481-15.26 5.56c-6.668 2.427-11.994 7.304-14.995 13.734-3.004 6.434-3.32 13.649-.891 20.315l8.019 22.018c1.239 3.405-.522 7.184-3.921 8.423l-22.015 8.008c-1.098.399-2.16.873-3.188 1.407zm59.08-100.924l-4.166-4.167a6.57 6.57 0 01-.486-8.751c.45 1.498.376 1.124 4.652 12.918zm34.537 94.872l8.01 22.021c1.23 3.38-.48 7.17-3.921 8.422l-22.021 8.01a26.393 26.393 0 00-11.21 7.857H251.23l-5.265-14.454a6.56 6.56 0 013.933-8.419l22.025-8.012c13.762-5.015 20.882-20.292 15.872-34.058l-8.021-22.021a6.504 6.504 0 01.222-5.009 6.544 6.544 0 013.716-3.402l22.021-8.024a26.512 26.512 0 009.015-5.517c.042-.039.08-.082.122-.122.088-.085.173-.171.258-.259a26.53 26.53 0 006.477-28.146l-8.019-22.018a6.572 6.572 0 013.933-8.423l22.011-8.006c13.794-5.02 20.913-20.25 15.886-34.061l-8.019-22.006a6.57 6.57 0 013.935-8.423c21.718-7.908 45.227-6.882 66.189 2.885 5.302 2.474 4.998 10.118-.531 12.131-13.785 5.018-20.906 20.247-15.877 34.045l8.011 22.021c1.24 3.406-.52 7.185-3.921 8.423l-22.022 8.01c-13.798 5.022-20.9 20.255-15.876 34.057l6.966 19.14a10.037 10.037 0 001.386 4.316 6.543 6.543 0 01-4.267 6.978l-22.018 8.019c-13.785 5.017-20.906 20.246-15.877 34.045zM429 440.14v23.43c0 3.731-3.556 5.43-6.86 5.43h-23.43c-5.917 0-11.764 2.456-16.837 7h-31.687c9.803-6.581 14.412-19.311 10.111-31.128l-8.012-22.025a6.56 6.56 0 013.927-8.41l22.018-8.019c12.199-4.44 18.892-16.667 17.241-28.561.966-.547 2.073-.946 3.239-.946h30.15c14.651 0 26.57-11.819 26.57-26.47 0-5.905 7.098-8.771 11.219-4.648C482.997 362.139 492 383.88 492 407.01c0 3.724-3.07 6.99-6.57 6.99h-30.15c-14.736 0-26.28 11.482-26.28 26.14zM306 36c-22.056 0-40 17.944-40 40s17.944 40 40 40 40-17.944 40-40-17.944-40-40-40zm0 60c-11.028 0-20-8.972-20-20s8.972-20 20-20 20 8.972 20 20-8.972 20-20 20z"/><path d="M356 136c-16.542 0-30 13.458-30 30s13.458 30 30 30 30-13.458 30-30-13.458-30-30-30zm0 40c-5.514 0-10-4.486-10-10s4.486-10 10-10 10 4.486 10 10-4.486 10-10 10z"/></symbol><symbol viewBox="-34 0 511 511.996" id="seeds" xmlns="http://www.w3.org/2000/svg"><path d="M437.5 216.418l-3.777-15.113-14.063 11.379c-5.05-14.032-10.324-22.489-12.75-25.938l-2.695-3.836-4.66-.355c-3.121-.23-9.965-.43-19.774.804l6.2-18.972-17.34 4.222c-4.829 1.176-10.157 2.696-15.864 4.582 0-.027.012-.046.012-.078 2.207-114.187-45.875-164.87-51.36-170.277-.097-.098-.238-.121-.347-.211-.121-.11-.168-.258-.289-.355-.656-.547-1.422-.805-2.156-1.153-.367-.168-.664-.437-1.055-.566-1.332-.446-2.723-.645-4.094-.508-.02 0-.031-.012-.05-.012-7.66.785-76.899 10.297-147.032 101.399-3.976 6.132-7.672 12.504-11.242 18.992-31.828-22.832-56.2-28.703-63.371-29.957a9.89 9.89 0 00-8.16 2.238c-3.649 3.121-25.004 22.637-41.988 64.649a9.681 9.681 0 00-.555 1.43C11.05 184.05 2.633 217.253.5 259.788c.773 24.695 4.629 49.82 11.457 74.645 6.797 24.836 16.309 48.398 28.68 70.757 28.613 43.063 54.699 53.786 75.968 53.786 12.668 0 23.622-3.805 32.38-6.836 4.609-1.598 24.585-7.204 27.824-7.95 9.898 20.125 26.992 28.442 39.425 34.465 4.391 2.125 25.598 14.2 29.664 16.883 10.614 7.016 24.895 16.457 44.633 16.457 18.754 0 42.426-8.516 72.54-35.766 16.921-18.02 31.96-38.5 44.679-60.89 12.758-22.38 22.7-45.766 29.742-70.313 11.863-58.812 6.547-102.39.008-128.609zm-64.688-11.785c9.043-1.856 15.973-2.324 20.395-2.383 2.602 4.52 6.45 12.324 9.965 23.77l-50.793 41.105zM269.746 26.605c-7.902 11.825-15.781 25.25-24.266 41.352a9.948 9.948 0 004.153 13.426 9.911 9.911 0 004.62 1.144c3.567 0 7.028-1.93 8.806-5.308 11.23-21.317 21.296-37.684 31.742-51.625 13.484 17.808 39.742 63.273 38.152 146.316-.32 3.11-.715 6.23-1.152 9.332-.258.117-.516.246-.785.367a246.193 246.193 0 00-8.082 3.778c-1.797.875-3.586 1.789-5.375 2.71-1.043.54-2.086 1.087-3.141 1.641-10.117 5.367-20.184 11.52-30.172 18.446-.656.445-1.3.902-1.957 1.359a312.636 312.636 0 00-6.867 4.96c-.953.708-1.91 1.442-2.871 2.165a382.35 382.35 0 00-6.324 4.883c-1.352 1.074-2.711 2.207-4.075 3.32-1.765 1.45-3.547 2.871-5.316 4.371a412.224 412.224 0 00-9.59 8.387 301.833 301.833 0 00-12.324 13.965c-8.227 9.918-15.91 20.472-23.024 31.562l-.03.031a331.38 331.38 0 00-9.302 15.333c-.398.707-.754 1.46-1.152 2.168-3.39 6.039-6.539 12.171-9.512 18.363-.058.12-.136.289-.238.508l-.219.476c-.097.211-.187.43-.297.645h-.011c-.012.011 0 .03-.012.043-.348.722-.664 1.46-1.004 2.187 7.844-63.914 22.184-123.91 42.856-178.52a9.936 9.936 0 00-5.774-12.816c-5.14-1.941-10.875.645-12.812 5.774-21.891 57.828-36.848 121.46-44.7 189.238-1.789-.547-3.496-1.106-5.418-1.64-21.87-6.071-49.082-13.645-47.832-79.942 2.336-23.016 7.594-46.258 15.633-69.09 4.196-11.984 9.383-24.148 15.395-36.152.031-.051.02-.11.05-.157 4.68-9.332 9.692-18.316 15.106-26.703 41.629-54.058 81.89-76.757 107.121-86.297zM170.684 425.18c-3.797.945-21.766 5.93-28.215 8.168-21.457 7.46-48.13 16.742-84.84-38.473-11.2-20.281-20.113-42.383-26.496-65.707-6.418-23.328-10.035-46.879-10.77-69.191 1.88-37.028 8.715-66.125 17.004-88.645C52.312 170.645 67.2 168.578 81.7 165c5.328-1.313 8.586-6.695 7.262-12.023-1.313-5.336-6.738-8.606-12.024-7.266-10.117 2.496-20.453 4.156-30.859 5.117 10.457-21.324 21.32-34.035 26.984-39.742 9.036 2.336 28.504 9.055 53.04 27.172-.297.625-.547 1.262-.836 1.898-1.996 4.332-3.977 8.676-5.793 13.13a312.037 312.037 0 00-6.153 16.05c-8.547 24.297-14.152 49.082-16.707 74.484-1.597 82.504 38.43 93.633 62.34 100.282 4.703 1.312 18.703 7.265 19.043 7.265.078 0 .367-.012.426-.02-.188.548-.348 1.114-.535 1.66-1.867 5.255-3.489 10.227-4.871 15.036-.07.258-.137.527-.2.797a222.589 222.589 0 00-2.511 15.152c-.22 1.653-.309 3.184-.47 4.781-.323 3.153-.636 6.282-.773 9.204-.078 1.558-.07 3.05-.09 4.57-.05 3.02-.03 5.941.11 8.715.059 1.086.129 2.168.219 3.23.285 3.668.734 7.125 1.34 10.367.011.098.023.22.043.32zm247.515-84.864c-6.41 22.243-15.73 44.164-27.719 65.192-11.953 21.031-26.054 40.25-41.32 56.539-49.781 45.02-73.351 29.426-92.305 16.906-5.695-3.77-25.808-15.215-31.96-18.2-12.114-5.87-25.93-12.679-32.489-30.737-.047-.18 0-.356-.07-.536-4.77-13.863-4.809-32.785-.129-56.238 1.234-4.246 2.645-8.476 4.086-12.695a365.8 365.8 0 014.504-12.133c2.644-6.758 5.515-13.336 8.535-19.746.219-.477.508-1.102.527-1.133.008-.012 0-.031.008-.05l.012-.008a290.504 290.504 0 019.937-19.09c0-.012.012-.012.02-.02a323.181 323.181 0 018.746-14.422c3.09-4.82 6.3-9.488 9.59-14.05.031-.04.07-.07.09-.11.02-.027.02-.047.039-.078 7.215-9.969 14.86-19.34 22.851-27.875a352.638 352.638 0 0112.223-10.523c1.18-.977 2.363-1.91 3.547-2.864 2.96-2.375 5.883-4.66 8.785-6.836a268.887 268.887 0 013.61-2.683 297.88 297.88 0 019.113-6.383c.894-.605 1.789-1.242 2.683-1.836 7.922-5.227 15.563-9.723 22.836-13.578 1.485-.781 2.961-1.48 4.453-2.223 2.078-1.043 4.176-2.129 6.192-3.07 2.504-1.176 5.008-2.258 7.523-3.32 4.711-2.008 9.281-3.848 13.543-5.336l-43.058 131.726 108.851-88.097c4.09 24.55 5.602 59.464-3.254 103.507zm0 0"/><path d="M290.297 254.73c-3.078 1.848-75.496 46.41-80.008 136.391-.281 5.484 3.945 10.145 9.418 10.426.172.008.34.008.508.008a9.937 9.937 0 009.918-9.438c3.976-79.156 69.765-119.953 70.422-120.36 4.691-2.831 6.191-8.945 3.36-13.636-2.825-4.703-8.927-6.23-13.618-3.39zm0 0"/></symbol><symbol id="smile" viewBox="0 0 20.6 20.8" xml:space="preserve" xmlns="http://www.w3.org/2000/svg"><style>.qst0{fill:#000}</style><path class="qst0" d="M10.3.2C4.7.2.1 4.8.1 10.4s4.6 10.2 10.2 10.2S20.5 16 20.5 10.4 15.9.2 10.3.2zm0 19.6c-5.2 0-9.4-4.2-9.4-9.4S5.1 1 10.3 1s9.4 4.2 9.4 9.4-4.2 9.4-9.4 9.4z"/><path class="qst0" d="M10.3 15.7c-3.5 0-5.6-3.1-5.6-3.1l-.7.5c2.8 3.6 6.3 3.5 6.3 3.5s3.5.2 6.3-3.5l-.7-.5s-2.1 3.1-5.6 3.1zM6.9 11.5C9.3 10.4 9.7 9 9.7 8.3c0-.8-.5-1.7-1.4-1.7-1 0-1.4.5-1.4.5s-.4-.5-1.4-.5c-.9 0-1.4 1-1.4 1.7s.4 2.1 2.8 3.2zm0-3.4c.5-.8 1.9-.9 2 .1 0 1.4-2 2.4-2 2.4s-2-1-2-2.4c.1-1 1.5-.9 2-.1zM13.7 11.5c2.4-1.1 2.8-2.5 2.8-3.1 0-.8-.5-1.7-1.4-1.7-1 0-1.4.5-1.4.5s-.4-.5-1.4-.5c-.9 0-1.4 1-1.4 1.7 0 .6.4 2 2.8 3.1zm0-3.4c.5-.8 1.9-.9 2 .1 0 1.4-2 2.4-2 2.4s-2-1-2-2.4c.1-1 1.5-.9 2-.1z"/></symbol></svg>