<?xml version="1.0" encoding="utf-8"?>
<!-- Generator: Adobe Illustrator 23.0.3, SVG Export Plug-In . SVG Version: 6.00 Build 0)  -->
<svg version="1.1" id="_x31_" xmlns="http://www.w3.org/2000/svg" xmlns:xlink="http://www.w3.org/1999/xlink" x="0px" y="0px"
	 viewBox="0 0 20.6 20.8" style="enable-background:new 0 0 20.6 20.8;" xml:space="preserve">
<style type="text/css">
	.st0{fill:#54A791;}
</style>
<g>
	<path class="st0" d="M10.3,0.2C4.7,0.2,0.1,4.8,0.1,10.4c0,5.6,4.6,10.2,10.2,10.2c5.6,0,10.2-4.6,10.2-10.2
		C20.5,4.8,15.9,0.2,10.3,0.2z M10.3,19.8c-5.2,0-9.4-4.2-9.4-9.4C0.9,5.2,5.1,1,10.3,1s9.4,4.2,9.4,9.4
		C19.7,15.6,15.5,19.8,10.3,19.8z"/>
	<path class="st0" d="M10.3,15.7c-3.5,0-5.6-3.1-5.6-3.1L4,13.1c2.8,3.6,6.3,3.5,6.3,3.5s3.5,0.2,6.3-3.5l-0.7-0.5
		C15.9,12.6,13.8,15.7,10.3,15.7z"/>
	<path class="st0" d="M6.9,11.5C9.3,10.4,9.7,9,9.7,8.3c0-0.8-0.5-1.7-1.4-1.7c-1,0-1.4,0.5-1.4,0.5S6.5,6.6,5.5,6.6
		c-0.9,0-1.4,1-1.4,1.7C4.1,9,4.5,10.4,6.9,11.5z M6.9,8.1c0.5-0.8,1.9-0.9,2,0.1c0,1.4-2,2.4-2,2.4s-2-1-2-2.4
		C5,7.2,6.4,7.3,6.9,8.1z"/>
	<path class="st0" d="M13.7,11.5c2.4-1.1,2.8-2.5,2.8-3.1c0-0.8-0.5-1.7-1.4-1.7c-1,0-1.4,0.5-1.4,0.5s-0.4-0.5-1.4-0.5
		c-0.9,0-1.4,1-1.4,1.7C10.9,9,11.3,10.4,13.7,11.5z M13.7,8.1c0.5-0.8,1.9-0.9,2,0.1c0,1.4-2,2.4-2,2.4s-2-1-2-2.4
		C11.8,7.2,13.2,7.3,13.7,8.1z"/>
</g>
</svg>
