<svg version="1.1" id="_x31_" xmlns="http://www.w3.org/2000/svg" x="0" y="0" viewBox="0 0 15.2 15.2" xml:space="preserve"><style>.st0{fill:#c6f7ff}</style><path class="st0" d="M4.3 3c0 .2.4.4 1 .4s1-.2 1-.4-.4-.4-1-.4c-.5 0-1 .1-1 .4z"/><path class="st0" d="M15.1 6.7c0-1-.8-1.8-1.8-1.8H4.1S1.7 5 .6 3.1C.7 1.7 1.8.7 3.2.7h4c1.5 0 2.6 1.2 2.6 2.6v.5h.5v-.4C10.3 1.6 8.9.2 7.1.2H3.3C1.5.2.1 1.6.1 3.4v4.7c0 1.8 1.4 3.2 3.2 3.2H4v-.5h-.8C1.7 10.8.6 9.6.6 8.2V4c.3.4 1.3 1.4 3.4 1.4h9.3c.7 0 1.2.5 1.2 1.2v.8c0 .7-.5 1.2-1.2 1.2H6.9c-1 0-1.8.8-1.8 1.8v2.7c0 1 .8 1.8 1.8 1.8h6.4c1 0 1.8-.8 1.8-1.8V6.7zm-.6 6.6c0 .7-.5 1.2-1.2 1.2H6.8c-.7 0-1.2-.5-1.2-1.2v-2.9c0-.7.5-1.2 1.2-1.2h1.9v1.7h.5V9.2h3.2v1.7h.5V9.2h.4c.5 0 1-.2 1.3-.5v4.6z"/></svg>