<?xml version="1.0" encoding="utf-8"?>
<!-- Generator: Adobe Illustrator 23.0.3, SVG Export Plug-In . SVG Version: 6.00 Build 0)  -->
<svg version="1.1" id="_x31_" xmlns="http://www.w3.org/2000/svg" xmlns:xlink="http://www.w3.org/1999/xlink" x="0px" y="0px"
	 viewBox="0 0 15.2 15.2" style="enable-background:new 0 0 15.2 15.2;" xml:space="preserve">
<style type="text/css">
	.st0{fill:#54A791;}
</style>
<g>
	<path class="st0" d="M4.3,3c0,0.2,0.4,0.4,1,0.4c0.6,0,1-0.2,1-0.4c0-0.2-0.4-0.4-1-0.4C4.8,2.6,4.3,2.7,4.3,3z"/>
	<path class="st0" d="M15.1,6.7c0-1-0.8-1.8-1.8-1.8h-0.4v0H4.1c0,0-2.4,0.1-3.5-1.8c0.1-1.4,1.2-2.4,2.6-2.4h4
		c1.5,0,2.6,1.2,2.6,2.6v0.5h0.5V3.4c0-1.8-1.4-3.2-3.2-3.2H3.3c-1.8,0-3.2,1.4-3.2,3.2v1.3v0.2v3.2c0,1.8,1.4,3.2,3.2,3.2H4v-0.5
		H3.2c-1.5,0-2.6-1.2-2.6-2.6V4.9V4.7V4C0.9,4.4,1.9,5.4,4,5.4c3,0,8.8,0,8.8,0h0.5c0.7,0,1.2,0.5,1.2,1.2v0.6v0.2
		c0,0.7-0.5,1.2-1.2,1.2h-0.1v0H6.9c-1,0-1.8,0.8-1.8,1.8v2.7c0,1,0.8,1.8,1.8,1.8h6.4c1,0,1.8-0.8,1.8-1.8v-2.7c0,0,0-2.4,0-3.1
		c0,0,0,0,0-0.1V6.7z M14.5,13.3c0,0.7-0.5,1.2-1.2,1.2H6.8c-0.7,0-1.2-0.5-1.2-1.2v-2.9c0-0.7,0.5-1.2,1.2-1.2h1.9v1.7h0.5V9.2h2.3
		v0h0.9v1.7h0.5V9.2h0.4c0.5,0,1-0.2,1.3-0.5V13.3z"/>
</g>
</svg>
