<?xml version="1.0" encoding="utf-8"?>
<!-- Generator: Adobe Illustrator 23.0.3, SVG Export Plug-In . SVG Version: 6.00 Build 0)  -->
<svg version="1.1" id="_x31_" xmlns="http://www.w3.org/2000/svg" xmlns:xlink="http://www.w3.org/1999/xlink" x="0px" y="0px"
	 viewBox="0 0 16 15.2" style="enable-background:new 0 0 16 15.2;" xml:space="preserve">
<style type="text/css">
	.st0{fill:#51B098;}
</style>
<g>
	<path class="st0" d="M2.3,9.3c0,0.2,0.1,0.4,0.1,0.6C2.4,10.7,2.5,12,2.5,12H3C3,12,3,9.9,2.7,8.8c-0.3-1.2-0.4-3.4,0.3-5L2.5,3.6
		c0,0-0.6,1.2-0.6,3.1c0,1.2,0.1,1.7,0.2,2.2C1.7,8.6,0.6,7.6,0.7,5.5C0.9,3.1,3,0.9,3,0.9s3.7,3.5,0.4,7.4l0.4,0.3
		c0,0,1.5-1.7,1.5-3.6c0-1.9-0.8-3.5-2.3-4.8c0,0-2.6,2.5-2.8,5.5C0.1,8.5,2.2,9.5,2.2,9.5L2.3,9.3z"/>
	<path class="st0" d="M7.5,6.7C3.8,7.8,4,11.4,4.1,12.2c-1.3,1.3-1.9,2.5-1.9,2.5l0.4,0.2c3.8-6.3,9.7-5.1,9.7-5.1V9.3
		c-3.6-0.4-6.1,1-7.8,2.4l0,0C4.4,10.4,5,7.3,8.8,7c4.4-0.1,6.5,2.5,6.5,2.5c-2.3,3.7-4.9,4.2-6.5,4.4C7.1,14.2,5,13,5,13l-0.2,0.4
		c0,0,1.8,1.2,4.1,1c5-0.6,6.9-5,6.9-5C15.3,8.4,11.6,5.7,7.5,6.7z"/>
</g>
</svg>
