<svg xmlns="http://www.w3.org/2000/svg" viewBox="0 0 53.6 39"><path d="M.4 8.8c0-2.5.8-4.5 2.4-6.2C4.5 1 6.5.1 9 .1c2.6 0 4.6.7 6.2 2.2L14 4.1c-.6-.6-1.4-1-2.3-1.3s-1.7-.5-2.6-.5c-1.9 0-3.4.6-4.6 1.8-1.1 1.3-1.6 2.8-1.6 4.7 0 1.9.6 3.5 1.7 4.8 1.2 1.3 2.7 1.9 4.6 1.9.9 0 1.9-.2 2.8-.6s1.7-.9 2.4-1.6l1.3 1.7c-1.8 1.8-4 2.7-6.6 2.7-2.6 0-4.7-.8-6.3-2.5C1.2 13.4.4 11.3.4 8.8zm18.3 8.6V.4H21v7.4h8.8V.4h2.4v16.9h-2.4V9.9H21v7.4h-2.3zm16.9-8.6c0-2.4.8-4.5 2.5-6.2C39.7.9 41.8.1 44.3.1s4.6.8 6.2 2.5C52.2 4.3 53 6.3 53 8.8s-.8 4.6-2.5 6.3-3.7 2.6-6.2 2.6-4.6-.9-6.2-2.6c-1.7-1.7-2.5-3.8-2.5-6.3zm2.5 0c0 1.9.6 3.5 1.8 4.8 1.2 1.3 2.7 1.9 4.5 1.9 1.8 0 3.3-.6 4.5-1.9 1.2-1.3 1.8-2.9 1.8-4.8 0-1.8-.6-3.4-1.8-4.6-1.2-1.2-2.7-1.9-4.5-1.9-1.8 0-3.3.6-4.5 1.9-1.3 1.2-1.8 2.7-1.8 4.6zM.4 29.8c0-2.5.8-4.5 2.4-6.2C4.5 22 6.5 21.1 9 21.1c2.6 0 4.6.7 6.2 2.2L14 25.1c-.6-.6-1.4-1-2.3-1.3s-1.8-.5-2.6-.5c-1.9 0-3.4.6-4.6 1.8-1.1 1.2-1.7 2.8-1.7 4.6 0 1.9.6 3.5 1.7 4.8 1.2 1.3 2.7 1.9 4.6 1.9.9 0 1.9-.2 2.8-.6s1.7-.9 2.4-1.6l1.3 1.7c-1.8 1.8-4 2.7-6.6 2.7-2.6 0-4.7-.8-6.3-2.5C1.2 34.4.4 32.3.4 29.8zm16.8 0c0-2.5.8-4.5 2.4-6.2 1.6-1.6 3.7-2.5 6.2-2.5 2.6 0 4.6.7 6.2 2.2l-1.2 1.8c-.6-.6-1.4-1-2.3-1.3s-1.8-.5-2.6-.5c-1.9 0-3.4.6-4.6 1.8-1.1 1.2-1.7 2.8-1.7 4.6 0 1.9.6 3.5 1.7 4.8 1.2 1.3 2.7 1.9 4.6 1.9.9 0 1.9-.2 2.8-.6s1.7-.9 2.4-1.6l1.3 1.7c-1.8 1.8-4 2.7-6.6 2.7-2.6 0-4.7-.8-6.3-2.5-1.5-1.7-2.3-3.8-2.3-6.3zm16.8 0c0-2.4.8-4.5 2.5-6.2 1.6-1.7 3.7-2.5 6.2-2.5s4.6.8 6.2 2.5c1.6 1.7 2.5 3.7 2.5 6.2s-.8 4.6-2.5 6.3-3.7 2.6-6.2 2.6-4.6-.9-6.2-2.6c-1.7-1.7-2.5-3.8-2.5-6.3zm2.4 0c0 1.9.6 3.5 1.8 4.8 1.2 1.3 2.7 1.9 4.5 1.9 1.8 0 3.3-.6 4.5-1.9 1.2-1.3 1.8-2.9 1.8-4.8 0-1.8-.6-3.4-1.8-4.6-1.2-1.2-2.7-1.9-4.5-1.9-1.8 0-3.3.6-4.5 1.9-1.2 1.2-1.8 2.7-1.8 4.6z" fill="#fff"/></svg>