<svg xmlns="http://www.w3.org/2000/svg" viewBox="0 0 18.8 20"><path d="M17.4 5.8c.2-.2.4-.4.5-.6.7-.9.6-1.3-.1-1.9s-1.8.3-1.8.3l-.2.2c-1.1-1-2.5-1.8-4.1-2.2C11.1.7 10.2.1 9.2.1c-1.1 0-2 .7-2.6 1.6a9.4 9.4 0 00-3.5 2c-.2-.1-.6-.5-1.1-.6C1.3 3 .6 3.5.5 4.2c0 .4.4 1 .9 1.6C.5 7.2 0 8.8 0 10.6c0 5.1 4.2 9.3 9.4 9.3 1.8 0 3.6-.5 5-1.4l-.3-.7c-1.3-3.3-1-5.4-.9-6.4.3-1.1 1.4-2.6 2-3.4.4-.5 1-1 1.6-1.6.8 1.2 1.2 2.6 1.2 4.2 0 2.3-1 4.4-2.5 6l.6.5c1.7-1.7 2.7-4 2.7-6.5 0-1.8-.5-3.4-1.4-4.8zM9.2.9c1.3 0 2.3 1.2 2.3 2.7s-1 2.7-2.3 2.7-2.3-1.1-2.3-2.7S7.9.9 9.2.9zm0 6.2c1.7 0 3.1-1.6 3.1-3.5 0-.4-.1-.7-.2-1.1 1.2.4 2.2 1 3.1 1.8-.8.7-2 1.6-2.6 2-.9.7-2.4 1.4-3.6 1.4-1.2 0-1.8-.5-2.7-.9-.8-.4-2.1-1.9-2.7-2.5.8-.7 1.7-1.2 2.6-1.6 0 .3-.1.6-.1.9 0 2 1.4 3.5 3.1 3.5zM.8 10.6c0-1.5.4-2.9 1.1-4.2l.3.3s2.5 2.9 3 3.6c.5.7-.1 1.2-.5 3-.3 1.4-.3 3.3-.3 4.2C2.2 15.9.8 13.4.8 10.6zm15.5-4.8c-.4.4-1.8 1.6-3 3.5s-1 3.4-.9 4.5c.1 1.1.4 2.1.5 2.5.1.3.5 1.4.6 1.7-1.2.6-2.6 1-4 1-1.6 0-3-.4-4.3-1.1 0-3.4.2-3.9.3-4.4 0-.5.3-1.5.6-2.3.2-.7-.1-1.3-.4-1.6-.3-.3-3.2-3.8-3.7-4.5-.6-.7-.7-1-.2-1.2.5-.3 1.8 1.3 2.4 2 .5.7 2.8 2.6 4.9 2.5s3.6-1.2 4.2-1.6c.5-.4 3.1-2.5 3.5-2.8.4-.3.9 0 .8.3-.1.3-.9 1.1-1.3 1.5z"/></svg>