<svg height="512pt" viewBox="-85 0 512 512.00159" width="512pt" xmlns="http://www.w3.org/2000/svg"><path d="m244.648438 305.390625c9.78125 15.597656 25.304687 24.066406 41.855468 24.066406 7.695313 0 15.613282-1.828125 23.296875-5.625l29.816407-10.519531-19.878907-24.570312c-8.296875-13.234376-20.761719-21.136719-34.441406-23.289063 10.367187-.675781 20.664063-4.589844 29.628906-12.148437l26.4375-17.324219-25.179687-19.132813c-5.730469-5.550781-12.230469-9.347656-19.023438-11.769531 5.667969-4.328125 10.609375-9.953125 14.378906-16.894531l18.269532-25.773438-30.390625-8.621094c-11.914063-4.976562-24.0625-5.355468-34.933594-1.925781 7.71875-6.164062 13.703125-14.785156 16.933594-25.441406l12.726562-28.941406-31.527343-2.320313c-26.511719-5.140625-50.1875 9.085938-58.015626 34.917969l-10.152343 23.117187c-6.273438-7.234374-13.140625-13.921874-20.519531-20.03125l24.40625-12.957031c25.171874-9.710937 37.644531-34.421875 30.511718-60.449219l-4.644531-31.261718-27.917969 14.820312c-25.171875 9.71875-37.644531 34.429688-30.507812 60.457032l3.832031 25.828124c-8.378906-6.476562-17.414063-12.136718-26.953125-16.980468l11.933594-21.695313c15.75-21.914062 12.652344-49.417969-7.558594-67.289062l-21.023438-23.636719-15.234374 27.683594c-15.742188 21.914062-12.644532 49.421875 7.578124 67.304687l9.953126 11.179688c-2.195313-.867188-4.339844-1.808594-6.578126-2.585938-3.871093-1.332031-7.910156.207031-10.171874 3.394531l-16.359376-18.808593c-15.15625-22.308594-42.035156-28.886719-65.785156-16.074219l-29.410156 11.582031 20.746094 23.839844c9.980468 14.707031 25.042968 22.570313 40.953125 22.570313 2.664062 0 5.355469-.304688 8.046875-.753907-12.722656 4.933594-23.144532 15.074219-28.554688 29.5l-14.550781 28.070313 31.308594 4.328125c4.722656 1.242187 9.414062 1.84375 13.964843 1.84375 8.136719 0 15.8125-1.988281 22.640626-5.597657-2.472657 7.414063-3.425782 15.550782-2.175782 24.171876l.773438 31.597656 29.519531-11.285156c2.445313-.613282 4.695313-1.503907 6.945313-2.394532-.730469 2.421875-1.429688 4.867188-1.835938 7.476563l-8.546875 30.425781 31.535156-2.113281c.394531.019531.761719-.054688 1.167969-.042969-5.039062 4.480469-9.386719 10.015625-12.597656 16.722656l-16.992188 26.644532 30.804688 7.101562c3.609375 1.304688 7.199218 2.097656 10.78125 2.617188-13.183594 1.109374-25.730469 7.515624-35.015625 19.234374l-22.453125 22.246094 28.453125 13.730469c8.882812 5.6875 18.460937 8.453125 27.835937 8.453125 14.617188 0 28.746094-6.722656 38.960938-19.601562l1.242187-1.234376c-28.097656 67.875-88.582031 117.703126-168.316406 132.929688-4.886719.9375-8.082031 5.652344-7.152344 10.53125.828125 4.308594 4.597657 7.3125 8.828125 7.3125.566406 0 1.125-.050781 1.691406-.160156 81.085938-15.480469 143.691407-64.191406 176.007813-131.113282l-1.242187 26.476563c-4.464844 26.613281 10.441406 49.9375 36.464843 57.066406l29.257813 11.921875 1.476562-31.558594c4.460938-26.621093-10.441406-49.945312-36.464844-57.0625l-27.332031-11.160156c4.921875-10.753906 8.933594-22.023437 12.265625-33.621094l3.804688 13.441407c4.191406 26.648437 25.683594 44.132812 52.652344 42.578125l31.542968 2.050781-8.601562-30.40625c-4.191406-26.667969-25.890625-44.144531-52.65625-42.578125l-22.648438-1.464844c2.105469-9.882812 3.679688-19.988281 4.597656-30.332031zm-41.488282-245.457031 6.964844-3.617188.980469 6.625.242187 1.140625c4.941406 17.296875-3.066406 33.164063-19.914062 39.464844l-6.964844 3.617187-.984375-6.617187-.242187-1.140625c-4.941407-17.296875 3.070312-33.164062 19.917968-39.472656zm-77.53125-22.09375 3.863282-6.855469 4.453124 5.011719.835938.820312c13.597656 11.777344 15.578125 29.433594 4.941406 43.925782l-3.863281 6.855468-4.445313-5.003906-.835937-.820312c-13.597656-11.777344-15.585937-29.433594-4.949219-43.933594zm104.96875 371.933594.441406-7.847657 6.191407 2.523438 1.117187.367187c17.394532 4.574219 26.960938 19.546875 23.800782 37.257813l-.441407 7.847656-6.199219-2.519531-1.097656-.371094c-17.402344-4.578125-26.972656-19.546875-23.8125-37.257812zm24.558594-63.855469.585938-.039063c17.863281-1.257812 31.757812 10 34.367187 27.792969l2.0625 7.585937-7.265625-.46875-.582031.035157c-17.835938 1.332031-31.761719-9.988281-34.371094-27.789063l-2.058594-7.585937zm-17.070312-69.800781c.035156-2.582032.242187-5.113282.207031-7.722657-.136719-8.808593-.953125-17.484375-2.320313-26.007812l11.277344 8.570312c7.917969 7.667969 17.214844 12.265625 26.851562 13.949219-6.496093.503906-13.09375 2.203125-19.519531 5.390625zm-12.574219-71.714844 22.140625 6.273437c1.375.574219 2.761718 1.050781 4.148437 1.511719-1.089843.789062-2.242187 1.429688-3.292969 2.320312l-16.191406 10.617188c-1.851562-7.078125-4.128906-13.992188-6.804687-20.722656zm79.207031 94.257812 4.875 6.164063-6.308594 2.222656-1.070312.46875c-16.046875 8.117187-33.144532 3.292969-42.539063-12.042969l-4.886719-6.160156 6.308594-2.222656 1.070313-.46875c16.054687-8.128906 33.144531-3.292969 42.550781 12.039062zm5.453125-63.777344-5.589844 3.671876-.933593.703124c-13.652344 11.753907-31.390626 11.125-44.179688-1.53125l-6.199219-4.8125 5.585938-3.664062.9375-.703125c13.644531-11.75 31.398437-11.121094 44.175781 1.523437zm-17.324219-64.335937 7.539063 2.214844-3.867188 5.453125-.613281.988281c-8.421875 15.902344-25.179688 21.796875-41.703125 14.6875l-7.523437-2.207031 3.871093-5.453125.613281-.988281c8.402344-15.910157 25.160157-21.832032 41.683594-14.695313zm-71.554687-33.765625.398437-1.097656c5.039063-17.261719 20.21875-26.457032 37.875-22.785156l7.828125.648437-2.6875 6.128906-.40625 1.097657c-5.039062 17.269531-20.292969 26.429687-37.867187 22.785156l-7.839844-.648438zm2.105469 24.53125c3.625.703125 7.210937 1.054688 10.699218 1.054688 5.273438 0 10.332032-.828126 15.09375-2.332032-5.355468 4.25-10.054687 9.613282-13.652344 16.246094l-13.777343 19.417969c-5.933594-12.941407-13.320313-25.070313-22.039063-36.132813zm-23.074219 31.714844-19.976563 1.339844c-7.722656-.386719-14.902344.917968-21.457031 3.386718 1.945313-6.839844 2.621094-14.238281 1.496094-22.03125l-.765625-31.085937c16.65625 13.121093 30.460937 29.636719 40.703125 48.390625zm-164.921875-95.96875-5.09375-5.984375 6.226562-2.445313 1.054688-.503906c15.730468-8.722656 32.992187-4.484375 42.9375 10.488281l5.089844 5.984375-6.226563 2.449219-1.050781.503906c-15.730469 8.710938-32.992188 4.480469-42.9375-10.492187zm51.125 26.53125 23.6875-9.34375c.71875 2.835937 2.652344 5.308594 5.625 6.34375 15.882812 5.507812 30.433594 13.609375 43.347656 23.695312l-29.101562 11.121094c-4.355469 1.089844-8.289063 2.78125-12.015626 4.726562 0 0 .011719-.007812.011719-.015624l14.550781-28.050782-31.308593-4.339844c-7.351563-1.933593-14.535157-2.160156-21.347657-1.140624 2.203126-.847657 4.390626-1.828126 6.550782-2.996094zm-24.414063 50.132812-7.777343-1.160156 3.085937-5.941406.476563-1.070313c6.128906-16.910156 21.914062-25.078125 39.257812-20.308593l7.773438 1.160156-3.085938 5.929687-.476562 1.082031c-6.136719 16.898438-21.929688 25.050782-39.253907 20.308594zm55.769531 40.882813-7.371093 2.738281-.164063-6.6875-.105468-1.167969c-2.773438-17.773437 7.125-32.523437 24.613281-36.710937l7.367187-2.734375.164063 6.6875.109375 1.167969c2.777344 17.773437-7.121094 32.523437-24.613282 36.707031zm32.828126 32.714843-7.261719.484376 1.808593-6.433594.230469-1.152344c2.457031-16.972656 15.109375-27.933594 31.84375-27.933594.816407 0 1.644531.027344 2.472657.082032l.585937.035156 7.261719-.484375-1.808594 6.445312-.234375 1.152344c-2.574219 17.796875-16.171875 29.039063-34.3125 27.851563zm52.621093-24.640624 4.183594-14.894532c6.921875 16.441406 11.132813 34.242188 12.339844 52.726563l-17.863281-4.121094c-5.113282-1.84375-10.207032-2.691406-15.21875-2.996094 8.59375-7.460937 14.585937-17.980469 16.558593-30.714843zm-52.117187 74.191406 3.589844-5.644532.566406-1.023437c7.613281-16.300781 24.054687-23.023437 40.902344-16.742187l7.652343 1.847656-3.59375 5.640625-.566406 1.015625c-7.613281 16.308594-24.082031 23.058594-40.910156 16.742187zm37.410156 53.195312-.773438.882813c-11.042968 14.207031-28.554687 17.140625-43.601562 7.277343l-7.046875-3.480468 4.761719-4.707032.773437-.882812c11.03125-14.210938 28.542969-17.144531 43.601563-7.28125l7.046875 3.484375zm7.074219-23.578125c-6.535157-4.1875-13.453125-6.605469-20.382813-7.695312 17.105469-1.371094 32.277344-11.519531 40.503906-28.65625l4.085938-6.40625c-.792969 17.574219-3.429688 34.519531-7.800781 50.675781zm0 0"/></svg>