<svg xmlns="http://www.w3.org/2000/svg" width="401.998" height="401.998"><path d="M401.129 311.475c-1.137-3.426-8.371-8.473-21.697-15.129-3.61-2.098-8.754-4.949-15.41-8.566a1437.412 1437.412 0 01-18.13-9.996 605.612 605.612 0 01-15.276-8.846c-.76-.571-3.139-2.234-7.136-5-4.001-2.758-7.375-4.805-10.14-6.14-2.759-1.327-5.473-1.995-8.138-1.995-3.806 0-8.56 2.714-14.268 8.135a139.01 139.01 0 00-15.7 17.706c-4.757 6.379-9.802 12.275-15.126 17.7-5.332 5.427-9.713 8.138-13.135 8.138-1.718 0-3.86-.479-6.427-1.424-2.566-.951-4.518-1.766-5.858-2.423-1.328-.671-3.607-1.999-6.845-4.004-3.244-1.999-5.048-3.094-5.428-3.285-26.075-14.469-48.438-31.029-67.093-49.676-18.649-18.658-35.211-41.019-49.676-67.097-.19-.381-1.287-2.19-3.284-5.424-2-3.237-3.333-5.518-3.999-6.854-.666-1.331-1.475-3.283-2.425-5.852s-1.427-4.709-1.427-6.424c0-3.424 2.713-7.804 8.138-13.134 5.424-5.327 11.326-10.373 17.7-15.128a138.95 138.95 0 0017.701-15.699c5.424-5.711 8.136-10.467 8.136-14.273 0-2.663-.666-5.378-1.997-8.137-1.332-2.765-3.378-6.139-6.139-10.138-2.762-3.997-4.427-6.374-4.999-7.139a627.13 627.13 0 01-8.848-15.271 1441.4 1441.4 0 01-9.995-18.131c-3.615-6.658-6.468-11.799-8.564-15.415C98.986 9.233 93.943 1.997 90.516.859 89.183.288 87.183 0 84.521 0c-5.142 0-11.85.95-20.129 2.856-8.282 1.903-14.799 3.899-19.558 5.996-9.517 3.995-19.604 15.605-30.264 34.826C4.863 61.566.01 79.271.01 96.78c0 5.135.333 10.131.999 14.989.666 4.853 1.856 10.326 3.571 16.418 1.712 6.09 3.093 10.614 4.137 13.56 1.045 2.948 2.996 8.229 5.852 15.845 2.852 7.614 4.567 12.275 5.138 13.988 6.661 18.654 14.56 35.307 23.695 49.964 15.03 24.362 35.541 49.539 61.521 75.521 25.981 25.98 51.153 46.49 75.517 61.526 14.655 9.134 31.314 17.032 49.965 23.698 1.714.568 6.375 2.279 13.986 5.141 7.614 2.854 12.897 4.805 15.845 5.852 2.949 1.048 7.474 2.43 13.559 4.145 6.098 1.715 11.566 2.905 16.419 3.576 4.856.657 9.853.996 14.989.996 17.508 0 35.214-4.856 53.105-14.562 19.219-10.656 30.826-20.745 34.823-30.269 2.102-4.754 4.093-11.273 5.996-19.555 1.909-8.278 2.857-14.985 2.857-20.126.006-2.673-.281-4.668-.855-6.012z" fill="#fff"/></svg>