<?xml version="1.0" encoding="iso-8859-1"?>
<!-- Generator: Adobe Illustrator 19.0.0, SVG Export Plug-In . SVG Version: 6.00 Build 0)  -->
<svg version="1.1" id="Capa_1" xmlns="http://www.w3.org/2000/svg" xmlns:xlink="http://www.w3.org/1999/xlink" x="0px" y="0px"
	 viewBox="0 0 512 512" style="enable-background:new 0 0 512 512;" xml:space="preserve">
<g>
	<g>
		<path d="M376,16c-5.52,0-10,4.48-10,10s4.48,10,10,10c5.52,0,10-4.48,10-10S381.52,16,376,16z"/>
	</g>
</g>
<g>
	<g>
		<path d="M502,476h-56.324c2.121-3.656,3.324-7.885,3.324-12.43v-23.43c0-3.558,2.641-6.14,6.28-6.14h30.15
			c14.651,0,26.57-12.108,26.57-26.99c0-28.472-11.083-55.235-31.208-75.361c-16.923-16.922-45.361-4.599-45.361,18.791
			c0,3.623-2.947,6.57-6.57,6.57h-30.15c-3.303,0-6.53,0.635-9.536,1.797l-3.076-8.458c-1.227-3.37,0.472-7.166,3.921-8.422
			l22.021-8.01c13.797-5.021,20.901-20.253,15.877-34.056l-8.012-22.025c-1.237-3.396,0.506-7.165,3.926-8.41
			c22.262-8.105,23.587-39.041,2.142-49.051c-25.808-12.025-54.746-13.287-81.483-3.552c-13.796,5.02-20.913,20.251-15.886,34.06
			l8.019,22.007c1.24,3.408-0.517,7.18-3.933,8.423l-13.574,4.94c0.065-6.889-2.52-13.799-7.765-19.044l-16.56-16.56
			c-2.567-2.566-2.568-6.731,0-9.298l16.56-16.56c10.361-10.362,10.361-27.221,0-37.583C291.226,167.083,264.465,156,236,156
			c-23.892,0-35.353,28.788-18.792,45.351c2.564,2.563,2.564,6.734,0,9.298l-16.56,16.56c-10.383,10.383-10.383,27.198,0,37.583
			l16.56,16.56c2.564,2.563,2.564,6.734,0,9.298l-6.16,6.16c-2.887-3.3-6.585-5.921-10.879-7.486l-22.01-8.01
			c-1.651-0.601-2.969-1.809-3.712-3.401c-0.742-1.59-0.821-3.374-0.223-5.019l8.021-22.014
			c5.021-13.795-2.083-29.033-15.886-34.056c-26.738-9.735-55.677-8.474-81.491,3.555c-21.436,10.005-20.115,40.942,2.149,49.048
			c3.364,1.225,5.181,4.96,3.923,8.415l-8.009,22.019c-5.022,13.798,2.073,29.034,15.878,34.058l22.018,8.009
			c3.403,1.239,5.163,5.017,3.924,8.422l-3.075,8.445c-3.021-1.154-6.251-1.784-9.538-1.784h-29c-3.623,0-6.57-2.947-6.57-6.57
			c0-23.44-28.47-35.682-45.361-18.791C11.375,351.483,0,379.104,0,407.43C0,422.081,11.919,434,26.57,434h29
			c3.726,0,6.43,2.583,6.43,6.14v23.43c0,4.491,1.141,8.723,3.147,12.43H10c-5.523,0-10,4.477-10,10s4.477,10,10,10
			c19.201,0,464.43,0,492,0c5.523,0,10-4.477,10-10S507.523,476,502,476z M128.793,475.999c-4.725-3.85-10.578-5.999-16.653-5.999
			H88.71c-3.7,0-6.71-2.885-6.71-6.43v-23.43C82,425.482,70.391,414,55.57,414h-29c-3.623,0-6.57-2.947-6.57-6.57
			c0-23.062,9.24-45.528,25.351-61.639c4.137-4.139,11.219-1.239,11.219,4.648c0,14.651,11.919,26.57,26.57,26.57l29-0.1
			c1.979,0,3.876,0.982,5.19,2.451c0.328,0.697,0.743,1.351,1.224,1.958c0.287,0.717,0.446,1.468,0.446,2.251v23.44
			c0,14.882,11.789,26.99,26.28,26.99h23.43c3.645,0,6.29,2.583,6.29,6.14v23.43c0,4.491,1.147,8.723,3.162,12.43H128.793z
			 M225.281,470.002h-23.44c-3.708,0-6.84-2.945-6.84-6.43v-23.43c0-14.658-11.548-26.14-26.29-26.14h-23.43
			c-3.404,0-6.28-3.201-6.28-6.99v-23.44c0-3.172-0.583-6.295-1.696-9.234l6.243-17.146c5.011-13.769-2.111-29.046-15.878-34.058
			l-22.02-8.011c-3.403-1.238-5.163-5.017-3.922-8.425l8.008-22.015c5.027-13.793-2.075-29.027-15.875-34.05
			c-5.486-1.997-5.869-9.64-0.537-12.129c20.968-9.77,44.477-10.795,66.196-2.887c3.408,1.24,5.172,5.019,3.935,8.419l-8.021,22.014
			c-2.428,6.67-2.111,13.886,0.892,20.32c3.001,6.431,8.327,11.31,14.996,13.737l22.005,8.009c1.715,0.625,3.042,1.926,3.755,3.526
			c-6.598,10.282-5.404,24.177,3.568,33.15l16.56,16.56c2.567,2.566,2.568,6.731,0,9.298l-16.56,16.56
			c-10.361,10.361-10.361,27.221,0,37.583l26.237,26.237c-1.835,5.568-1.795,11.649,0.288,17.364l0.633,1.739
			C226.971,470.051,226.128,470.002,225.281,470.002z M239.878,435.739L214.79,410.65c-2.564-2.563-2.564-6.734,0-9.298l16.56-16.56
			c10.361-10.362,10.361-27.221,0-37.583l-16.56-16.56c-2.552-2.551-2.564-6.71,0-9.298l16.56-16.56
			c10.362-10.361,10.362-27.221,0.001-37.582C216.139,251.2,212.868,250.684,212.868,246c0-1.757,0.683-3.409,1.924-4.649
			l16.56-16.56c10.361-10.362,10.361-27.221,0-37.583C227.23,183.088,230.105,176,236,176c23.124,0,44.861,9.003,61.208,25.351
			c2.567,2.566,2.568,6.731,0,9.298l-16.56,16.56c-10.361,10.361-10.361,27.221,0,37.583l16.56,16.56
			c2.564,2.563,2.564,6.734,0,9.298l-16.56,16.56c-10.361,10.361-10.361,27.221,0,37.583l11.481,11.481l-15.26,5.56
			c-6.668,2.427-11.994,7.304-14.995,13.734c-3.004,6.434-3.32,13.649-0.891,20.315l8.019,22.018
			c1.239,3.405-0.522,7.184-3.921,8.423l-22.015,8.008C241.968,434.731,240.906,435.205,239.878,435.739z M298.958,334.815
			l-4.166-4.167c-2.395-2.392-2.554-6.171-0.486-8.751C294.756,323.395,294.682,323.021,298.958,334.815z M333.495,429.687
			l8.01,22.021c1.23,3.38-0.48,7.17-3.921,8.422l-22.021,8.01c-4.426,1.61-8.247,4.332-11.21,7.857H251.23l-5.265-14.454
			c-1.248-3.426,0.527-7.182,3.933-8.419l22.025-8.012c13.762-5.015,20.882-20.292,15.872-34.058l-8.021-22.021
			c-0.598-1.642-0.519-3.421,0.222-5.009c0.743-1.592,2.062-2.799,3.716-3.402l22.021-8.024c3.373-1.233,6.404-3.087,9.015-5.517
			c0.042-0.039,0.08-0.082,0.122-0.122c0.088-0.085,0.173-0.171,0.258-0.259c7.513-7.291,10.066-18.269,6.477-28.146l-8.019-22.018
			c-1.24-3.409,0.517-7.18,3.933-8.423l22.011-8.006c13.794-5.02,20.913-20.25,15.886-34.061l-8.019-22.006
			c-1.24-3.408,0.515-7.18,3.935-8.423c21.718-7.908,45.227-6.882,66.189,2.885c5.302,2.474,4.998,10.118-0.531,12.131
			c-13.785,5.018-20.906,20.247-15.877,34.045l8.011,22.021c1.24,3.406-0.52,7.185-3.921,8.423l-22.022,8.01
			c-13.798,5.022-20.9,20.255-15.876,34.057l6.966,19.14c0.125,1.524,0.602,3.001,1.386,4.316c0.376,2.971-1.316,5.904-4.267,6.978
			l-22.018,8.019C335.587,400.659,328.466,415.888,333.495,429.687z M429,440.14v23.43c0,3.731-3.556,5.43-6.86,5.43h-23.43
			c-5.917,0-11.764,2.456-16.837,7h-31.687c9.803-6.581,14.412-19.311,10.111-31.128l-8.012-22.025
			c-1.239-3.401,0.511-7.166,3.927-8.41l22.018-8.019c12.199-4.44,18.892-16.667,17.241-28.561c0.966-0.547,2.073-0.946,3.239-0.946
			h30.15c14.651,0,26.57-11.819,26.57-26.47c0-5.905,7.098-8.771,11.219-4.648C482.997,362.139,492,383.88,492,407.01
			c0,3.724-3.07,6.99-6.57,6.99h-30.15C440.544,414,429,425.482,429,440.14z"/>
	</g>
</g>
<g>
	<g>
		<path d="M306,36c-22.056,0-40,17.944-40,40c0,22.056,17.944,40,40,40c22.056,0,40-17.944,40-40C346,53.944,328.056,36,306,36z
			 M306,96c-11.028,0-20-8.972-20-20s8.972-20,20-20s20,8.972,20,20S317.028,96,306,96z"/>
	</g>
</g>
<g>
	<g>
		<path d="M356,136c-16.542,0-30,13.458-30,30s13.458,30,30,30s30-13.458,30-30S372.542,136,356,136z M356,176
			c-5.514,0-10-4.486-10-10c0-5.514,4.486-10,10-10c5.514,0,10,4.486,10,10C366,171.514,361.514,176,356,176z"/>
	</g>
</g>
<g>
</g>
<g>
</g>
<g>
</g>
<g>
</g>
<g>
</g>
<g>
</g>
<g>
</g>
<g>
</g>
<g>
</g>
<g>
</g>
<g>
</g>
<g>
</g>
<g>
</g>
<g>
</g>
<g>
</g>
</svg>
