<svg height="511pt" viewBox="-34 0 511 511.9962" width="511pt" xmlns="http://www.w3.org/2000/svg"><path d="m437.5 216.417969-3.777344-15.113281-14.0625 11.378906c-5.050781-14.03125-10.324218-22.488282-12.75-25.9375l-2.695312-3.835938-4.660156-.355468c-3.121094-.230469-9.964844-.429688-19.773438.804687l6.199219-18.972656-17.339844 4.222656c-4.828125 1.175781-10.15625 2.695313-15.863281 4.582031 0-.027344.011718-.046875.011718-.078125 2.207032-114.1875-45.875-164.871093-51.359374-170.277343-.097657-.097657-.238282-.121094-.347657-.210938-.121093-.109375-.167969-.257812-.289062-.355469-.65625-.546875-1.421875-.804687-2.15625-1.152343-.367188-.167969-.664063-.4375-1.054688-.566407-1.332031-.445312-2.722656-.644531-4.09375-.5078122-.019531 0-.03125-.0117188-.050781-.0117188-7.660156.785156-76.898438 10.296875-147.03125 101.398438-3.976562 6.132812-7.671875 12.503906-11.242188 18.992187-31.828124-22.832031-56.199218-28.703125-63.371093-29.957031-2.914063-.515625-5.914063.308594-8.160157 2.238281-3.648437 3.121094-25.003906 22.636719-41.988281 64.648437-.226562.464844-.398437.921876-.554687 1.429688-10.039063 25.269531-18.457032 58.472656-20.589844 101.007812.773438 24.695313 4.628906 49.820313 11.457031 74.644532 6.796875 24.835937 16.308594 48.398437 28.679688 70.757812 28.613281 43.0625 54.699219 53.785156 75.96875 53.785156 12.667969 0 23.621093-3.804687 32.378906-6.835937 4.609375-1.597656 24.585937-7.203125 27.824219-7.949219 9.898437 20.125 26.992187 28.441406 39.425781 34.464844 4.390625 2.125 25.597656 14.199219 29.664063 16.882812 10.613281 7.015626 24.894531 16.457032 44.632812 16.457032 18.753906 0 42.425781-8.515625 72.539062-35.765625 16.921876-18.019531 31.960938-38.5 44.679688-60.890625 12.757812-22.378906 22.699219-45.765625 29.742188-70.3125 11.863281-58.8125 6.546874-102.390625.007812-128.609375zm-64.6875-11.785157c9.042969-1.855468 15.972656-2.324218 20.394531-2.382812 2.601563 4.519531 6.449219 12.324219 9.964844 23.769531l-50.792969 41.105469zm-103.066406-178.027343c-7.902344 11.824219-15.78125 25.25-24.265625 41.351562-2.554688 4.859375-.695313 10.859375 4.152343 13.425781 1.480469.777344 3.0625 1.144532 4.621094 1.144532 3.566406 0 7.027344-1.929688 8.804688-5.308594 11.230468-21.316406 21.296875-37.683594 31.742187-51.625 13.484375 17.808594 39.742188 63.273438 38.152344 146.316406-.320313 3.109375-.714844 6.230469-1.152344 9.332032-.257812.117187-.515625.246093-.785156.367187-2.632813 1.171875-5.335937 2.433594-8.082031 3.777344-1.796875.875-3.585938 1.789062-5.375 2.710937-1.042969.539063-2.085938 1.085938-3.140625 1.640625-10.117188 5.367188-20.183594 11.519531-30.171875 18.445313-.65625.445312-1.300782.902344-1.957032 1.359375-2.296874 1.613281-4.582031 3.261719-6.867187 4.960937-.953125.707032-1.910156 1.441406-2.871094 2.164063-2.109375 1.601562-4.214843 3.210937-6.324219 4.882812-1.351562 1.074219-2.710937 2.207031-4.074218 3.320313-1.765625 1.449218-3.546875 2.871094-5.316406 4.371094-3.167969 2.691406-6.371094 5.476562-9.589844 8.386718-4.230469 4.503906-8.335938 9.15625-12.324219 13.964844-8.226563 9.917969-15.910156 20.472656-23.023437 31.5625-.011719.011719-.019532.019531-.03125.03125-3.242188 5.027344-6.339844 10.144531-9.300782 15.332031-.398437.707031-.753906 1.460938-1.152344 2.167969-3.390624 6.039062-6.539062 12.171875-9.511718 18.363281-.058594.121094-.136719.289063-.238282.507813l-.21875.476562c-.097656.210938-.1875.429688-.296874.644532h-.011719c-.011719.011718 0 .03125-.011719.042968-.347656.722656-.664062 1.460938-1.003906 2.1875 7.84375-63.914062 22.183594-123.910156 42.855468-178.519531 1.945313-5.136719-.636718-10.871094-5.773437-12.816406-5.140625-1.941407-10.875.644531-12.8125 5.773437-21.890625 57.828125-36.847656 121.460938-44.699219 189.238282-1.789062-.546876-3.496094-1.105469-5.417968-1.640626-21.871094-6.070312-49.082032-13.644531-47.832032-79.941406 2.335938-23.015625 7.59375-46.257812 15.632813-69.089844 4.195312-11.984374 9.382812-24.148437 15.394531-36.152343.03125-.050781.019531-.109375.050781-.15625 4.679688-9.332031 9.691407-18.316407 15.105469-26.703125 41.628906-54.058594 81.890625-76.757813 107.121094-86.296875zm-99.0625 398.574219c-3.796875.945312-21.765625 5.929687-28.214844 8.167968-21.457031 7.460938-48.128906 16.742188-84.839844-38.472656-11.199218-20.28125-20.113281-42.382812-26.496094-65.707031-6.417968-23.328125-10.035156-46.878907-10.769531-69.191407 1.878907-37.027343 8.714844-66.125 17.003907-88.644531 14.945312-.6875 29.832031-2.753906 44.332031-6.332031 5.328125-1.3125 8.585937-6.695312 7.261719-12.023438-1.3125-5.335937-6.738282-8.605468-12.023438-7.265624-10.117188 2.496093-20.453125 4.15625-30.859375 5.117187 10.457031-21.324219 21.320313-34.035156 26.984375-39.742187 9.035156 2.335937 28.503906 9.054687 53.039062 27.171874-.296874.625-.546874 1.261719-.835937 1.898438-1.996094 4.332031-3.976563 8.675781-5.792969 13.128906-2.21875 5.363282-4.285156 10.722656-6.152344 16.050782-8.546874 24.296874-14.152343 49.082031-16.707031 74.484374-1.597656 82.503907 38.429688 93.632813 62.339844 100.28125 4.703125 1.3125 18.703125 7.265626 19.042969 7.265626.078125 0 .367187-.011719.425781-.019532-.1875.546875-.347656 1.113282-.535156 1.660156-1.867188 5.253907-3.488281 10.226563-4.871094 15.035157-.070313.257812-.136719.527343-.199219.796875-1.070312 5.324218-1.886718 10.355468-2.511718 15.152344-.21875 1.652343-.308594 3.183593-.46875 4.78125-.324219 3.152343-.636719 6.28125-.773438 9.203124-.078125 1.558594-.070312 3.050782-.089844 4.570313-.050781 3.019531-.03125 5.941406.109375 8.714844.058594 1.085937.128907 2.167969.21875 3.230469.285157 3.667968.734375 7.125 1.339844 10.367187.011719.097656.023437.21875.042969.320313zm247.515625-84.863282c-6.410157 22.242188-15.730469 44.164063-27.71875 65.191406-11.953125 21.03125-26.054688 40.25-41.320313 56.539063-49.78125 45.019531-73.351562 29.425781-92.304687 16.90625-5.695313-3.769531-25.808594-15.214844-31.960938-18.199219-12.113281-5.871094-25.929687-12.679687-32.488281-30.738281-.046875-.179687 0-.355469-.070312-.535156-4.769532-13.863281-4.808594-32.785157-.128907-56.238281 1.234375-4.246094 2.644531-8.476563 4.085938-12.695313 1.34375-3.824219 2.804687-7.789063 4.503906-12.132813 2.644531-6.757812 5.515625-13.335937 8.535156-19.746093.21875-.476563.507813-1.101563.527344-1.132813.007813-.011718 0-.03125.007813-.050781l.011718-.007813c3.128906-6.582031 6.449219-12.96875 9.9375-19.089843 0-.011719.011719-.011719.019532-.019531 2.785156-4.890626 5.714843-9.691407 8.746093-14.421876 3.089844-4.820312 6.300781-9.488281 9.589844-14.050781.03125-.039062.070313-.070312.089844-.109375.019531-.027344.019531-.046875.039062-.078125 7.214844-9.96875 14.859375-19.339843 22.851563-27.875 4.121094-3.726562 8.1875-7.195312 12.222656-10.523437 1.179688-.976563 2.363281-1.910156 3.546875-2.863282 2.960937-2.375 5.882813-4.660156 8.785156-6.835937 1.203125-.90625 2.40625-1.808594 3.609375-2.683594 3.082032-2.246093 6.113282-4.363281 9.113282-6.382812.894531-.605469 1.789062-1.242188 2.683593-1.835938 7.921875-5.226562 15.5625-9.722656 22.835938-13.578125 1.484375-.78125 2.960937-1.480468 4.453125-2.222656 2.078125-1.042969 4.175781-2.128906 6.191406-3.070312 2.503906-1.175782 5.007812-2.257813 7.523438-3.320313 4.710937-2.007813 9.28125-3.847656 13.542968-5.335937l-43.058594 131.726562 108.851563-88.097656c4.089844 24.550781 5.601563 59.464844-3.253906 103.507812zm0 0"/><path d="m290.296875 254.730469c-3.078125 1.847656-75.496094 46.410156-80.007813 136.390625-.28125 5.484375 3.945313 10.144531 9.417969 10.425781.171875.007813.339844.007813.507813.007813 5.257812 0 9.648437-4.121094 9.917968-9.4375 3.976563-79.15625 69.765626-119.953126 70.421876-120.359376 4.691406-2.832031 6.191406-8.945312 3.359374-13.636718-2.824218-4.703125-8.925781-6.230469-13.617187-3.390625zm0 0"/></svg>