<?xml version="1.0" encoding="iso-8859-1"?>
<!-- Generator: Adobe Illustrator 17.1.0, SVG Export Plug-In . SVG Version: 6.00 Build 0)  -->
<!DOCTYPE svg PUBLIC "-//W3C//DTD SVG 1.1//EN" "http://www.w3.org/Graphics/SVG/1.1/DTD/svg11.dtd">
<svg version="1.1" id="Capa_1" xmlns="http://www.w3.org/2000/svg" xmlns:xlink="http://www.w3.org/1999/xlink" x="0px" y="0px"
	 viewBox="0 0 442.326 442.326" style="enable-background:new 0 0 442.326 442.326;" xml:space="preserve">
<path d="M430.024,68.87l-56.568-56.568C365.523,4.369,354.976,0,343.757,0c-11.218,0-21.766,4.369-29.699,12.302
	c-8.292,8.293-12.54,19.4-12.3,30.598c-11.214-0.246-22.305,4.009-30.597,12.301c-8.293,8.293-12.542,19.399-12.3,30.598
	c-11.206-0.274-22.305,4.008-30.598,12.3c-8.292,8.293-12.54,19.4-12.3,30.597c-11.214-0.228-22.305,4.008-30.597,12.301h-0.001
	L45.358,281.003c-0.008,0.008-0.015,0.016-0.023,0.023L3.056,323.304c-1.168,1.126-2.077,2.551-2.594,4.2
	c-0.049,0.156-0.094,0.313-0.135,0.471c-0.599,2.289-0.352,4.608,0.553,6.621c0.001,0.002,0.002,0.005,0.003,0.008l0.002,0.003
	c0.214,0.475,0.463,0.93,0.746,1.362c1.262,1.933,3.195,3.441,5.583,4.135c0.003,0,0.012,0.004,0.019,0.005
	c0.01,0.005,0.016,0.006,0.023,0.007l34.258,9.789l9.789,34.258c0.949,3.322,3.546,5.919,6.868,6.868l34.254,9.785l9.787,34.255
	c0.002,0.008,0.004,0.016,0.006,0.022c0.001,0.003,0.002,0.007,0.003,0.01c0.001,0.004,0.002,0.009,0.003,0.013
	c0.001,0.004,0.002,0.009,0.004,0.013l0.001,0.005c0.703,2.402,2.229,4.341,4.182,5.598c0.399,0.257,0.818,0.486,1.254,0.686
	c0.004,0.001,0.008,0.003,0.012,0.005c1.284,0.586,2.694,0.904,4.144,0.904c0.909,0,1.834-0.125,2.752-0.388
	c1.757-0.502,3.269-1.443,4.451-2.671l42.276-42.276c0.008-0.007,0.016-0.015,0.023-0.023l60.658-60.658
	c1.163,1.162,2.613,2.041,4.247,2.522c3.51,1.034,7.307,0.066,9.895-2.522l72.278-72.278c3.905-3.905,3.905-10.237,0-14.143
	l-0.85-0.85c4.17-6.869,6.249-14.751,6.08-22.677c11.19,0.233,22.304-4.008,30.597-12.3c8.293-8.293,12.542-19.399,12.3-30.598
	c11.2,0.261,22.305-4.008,30.598-12.3c8.293-8.293,12.542-19.4,12.3-30.598c11.205,0.209,22.305-4.009,30.597-12.301
	c7.933-7.933,12.302-18.479,12.302-29.698C442.326,87.351,437.957,76.804,430.024,68.87z M116.773,413.234l-6.644-23.255
	c-0.949-3.322-3.546-5.919-6.868-6.868l-34.254-9.785l-9.789-34.258c-0.949-3.322-3.546-5.919-6.868-6.868l-23.259-6.646
	l23.338-23.338l87.681,87.682L116.773,413.234z M234.953,309.196L211.46,200.459c-1.167-5.398-6.488-8.825-11.886-7.662
	c-5.398,1.166-8.829,6.488-7.663,11.886l23.703,109.71l-61.362,61.362l-87.681-87.681l125.865-125.865l94.752,94.752h0
	L234.953,309.196z M415.883,114.125c-6.691,6.689-16.878,8.355-25.349,4.145c-3.847-1.914-8.485-1.155-11.523,1.883
	s-3.795,7.677-1.883,11.523c4.211,8.471,2.546,18.657-4.144,25.348c-6.69,6.691-16.876,8.355-25.348,4.144
	c-3.847-1.913-8.486-1.155-11.523,1.883c-3.038,3.038-3.796,7.677-1.883,11.523c4.211,8.471,2.546,18.657-4.144,25.348
	c-6.69,6.69-16.878,8.355-25.348,4.144c-3.846-1.913-8.485-1.155-11.523,1.883c-3.038,3.038-3.795,7.677-1.883,11.523
	c2.626,5.281,2.967,11.229,1.231,16.581l-84.289-84.289c5.351-1.736,11.3-1.395,16.58,1.231c3.848,1.913,8.485,1.155,11.523-1.883
	s3.796-7.677,1.883-11.523c-4.212-8.471-2.546-18.657,4.144-25.348c6.69-6.691,16.876-8.356,25.348-4.143
	c3.847,1.914,8.486,1.154,11.523-1.883c3.038-3.038,3.796-7.677,1.883-11.523c-4.211-8.471-2.546-18.657,4.144-25.349
	c6.691-6.689,16.878-8.355,25.348-4.144c3.846,1.912,8.485,1.155,11.523-1.883c3.038-3.038,3.795-7.677,1.883-11.523
	c-4.212-8.471-2.547-18.657,4.144-25.348c4.155-4.155,9.68-6.444,15.556-6.444c5.876,0,11.401,2.289,15.556,6.444l56.569,56.568
	c4.155,4.155,6.444,9.68,6.444,15.557C422.326,104.445,420.037,109.97,415.883,114.125z"/>
<g>
</g>
<g>
</g>
<g>
</g>
<g>
</g>
<g>
</g>
<g>
</g>
<g>
</g>
<g>
</g>
<g>
</g>
<g>
</g>
<g>
</g>
<g>
</g>
<g>
</g>
<g>
</g>
<g>
</g>
</svg>
