<?xml version="1.0" encoding="utf-8"?>
<!-- Generator: Adobe Illustrator 23.0.3, SVG Export Plug-In . SVG Version: 6.00 Build 0)  -->
<svg version="1.1" id="Слой_1" xmlns="http://www.w3.org/2000/svg" xmlns:xlink="http://www.w3.org/1999/xlink" x="0px" y="0px"
	 viewBox="0 0 24 22.1" style="enable-background:new 0 0 24 22.1;" xml:space="preserve">
<style type="text/css">
	.st0{fill:#0D0E0F;}
</style>
<g>
	<path class="st0" d="M22.1,0H1.9C0.8,0,0,0.8,0,1.9v0.3C0,3.2,0.8,4,1.9,4h20.3c1,0,1.9-0.8,1.9-1.9V1.9C24,0.8,23.2,0,22.1,0z"/>
	<path class="st0" d="M22.1,9H1.9C0.8,9,0,9.9,0,10.9v0.3c0,1,0.8,1.9,1.9,1.9h20.3c1,0,1.9-0.8,1.9-1.9v-0.3C24,9.9,23.2,9,22.1,9z
		"/>
	<path class="st0" d="M22.1,18H1.9c-1,0-1.9,0.8-1.9,1.9v0.3c0,1,0.8,1.9,1.9,1.9h20.3c1,0,1.9-0.8,1.9-1.9v-0.3
		C24,18.9,23.2,18,22.1,18z"/>
</g>
</svg>
