<?xml version="1.0" encoding="utf-8"?>
<!-- Generator: Adobe Illustrator 23.0.3, SVG Export Plug-In . SVG Version: 6.00 Build 0)  -->
<svg version="1.1" id="Слой_1" xmlns="http://www.w3.org/2000/svg" xmlns:xlink="http://www.w3.org/1999/xlink" x="0px" y="0px"
	 viewBox="0 0 53.6 39" style="enable-background:new 0 0 53.6 39;" xml:space="preserve">
<style type="text/css">
	.st0{fill:#FFFFFF;}
</style>
<g>
	<path class="st0" d="M0.4,8.8c0-2.5,0.8-4.5,2.4-6.2C4.5,1,6.5,0.1,9,0.1c2.6,0,4.6,0.7,6.2,2.2L14,4.1c-0.6-0.6-1.4-1-2.3-1.3
		S10,2.3,9.1,2.3c-1.9,0-3.4,0.6-4.6,1.8C3.4,5.4,2.9,6.9,2.9,8.8c0,1.9,0.6,3.5,1.7,4.8c1.2,1.3,2.7,1.9,4.6,1.9
		c0.9,0,1.9-0.2,2.8-0.6s1.7-0.9,2.4-1.6l1.3,1.7c-1.8,1.8-4,2.7-6.6,2.7c-2.6,0-4.7-0.8-6.3-2.5C1.2,13.4,0.4,11.3,0.4,8.8z"/>
	<path class="st0" d="M18.7,17.4V0.4H21v7.4h8.8V0.4h2.4v16.9h-2.4V9.9H21v7.4H18.7z"/>
	<path class="st0" d="M35.6,8.8c0-2.4,0.8-4.5,2.5-6.2c1.6-1.7,3.7-2.5,6.2-2.5c2.5,0,4.6,0.8,6.2,2.5C52.2,4.3,53,6.3,53,8.8
		c0,2.5-0.8,4.6-2.5,6.3s-3.7,2.6-6.2,2.6c-2.5,0-4.6-0.9-6.2-2.6C36.4,13.4,35.6,11.3,35.6,8.8z M38.1,8.8c0,1.9,0.6,3.5,1.8,4.8
		c1.2,1.3,2.7,1.9,4.5,1.9c1.8,0,3.3-0.6,4.5-1.9c1.2-1.3,1.8-2.9,1.8-4.8c0-1.8-0.6-3.4-1.8-4.6c-1.2-1.2-2.7-1.9-4.5-1.9
		c-1.8,0-3.3,0.6-4.5,1.9C38.6,5.4,38.1,6.9,38.1,8.8z"/>
	<path class="st0" d="M0.4,29.8c0-2.5,0.8-4.5,2.4-6.2C4.5,22,6.5,21.1,9,21.1c2.6,0,4.6,0.7,6.2,2.2L14,25.1
		c-0.6-0.6-1.4-1-2.3-1.3s-1.8-0.5-2.6-0.5c-1.9,0-3.4,0.6-4.6,1.8c-1.1,1.2-1.7,2.8-1.7,4.6c0,1.9,0.6,3.5,1.7,4.8
		c1.2,1.3,2.7,1.9,4.6,1.9c0.9,0,1.9-0.2,2.8-0.6s1.7-0.9,2.4-1.6l1.3,1.7c-1.8,1.8-4,2.7-6.6,2.7c-2.6,0-4.7-0.8-6.3-2.5
		C1.2,34.4,0.4,32.3,0.4,29.8z"/>
	<path class="st0" d="M17.2,29.8c0-2.5,0.8-4.5,2.4-6.2c1.6-1.6,3.7-2.5,6.2-2.5c2.6,0,4.6,0.7,6.2,2.2l-1.2,1.8
		c-0.6-0.6-1.4-1-2.3-1.3s-1.8-0.5-2.6-0.5c-1.9,0-3.4,0.6-4.6,1.8c-1.1,1.2-1.7,2.8-1.7,4.6c0,1.9,0.6,3.5,1.7,4.8
		c1.2,1.3,2.7,1.9,4.6,1.9c0.9,0,1.9-0.2,2.8-0.6s1.7-0.9,2.4-1.6l1.3,1.7c-1.8,1.8-4,2.7-6.6,2.7c-2.6,0-4.7-0.8-6.3-2.5
		C18,34.4,17.2,32.3,17.2,29.8z"/>
	<path class="st0" d="M34,29.8c0-2.4,0.8-4.5,2.5-6.2c1.6-1.7,3.7-2.5,6.2-2.5c2.5,0,4.6,0.8,6.2,2.5c1.6,1.7,2.5,3.7,2.5,6.2
		c0,2.5-0.8,4.6-2.5,6.3s-3.7,2.6-6.2,2.6c-2.5,0-4.6-0.9-6.2-2.6C34.8,34.4,34,32.3,34,29.8z M36.4,29.8c0,1.9,0.6,3.5,1.8,4.8
		c1.2,1.3,2.7,1.9,4.5,1.9c1.8,0,3.3-0.6,4.5-1.9c1.2-1.3,1.8-2.9,1.8-4.8c0-1.8-0.6-3.4-1.8-4.6c-1.2-1.2-2.7-1.9-4.5-1.9
		c-1.8,0-3.3,0.6-4.5,1.9C37,26.4,36.4,27.9,36.4,29.8z"/>
</g>
</svg>
