<?xml version="1.0" encoding="utf-8"?>
<!-- Generator: Adobe Illustrator 23.0.3, SVG Export Plug-In . SVG Version: 6.00 Build 0)  -->
<svg version="1.1" id="Слой_1" xmlns="http://www.w3.org/2000/svg" xmlns:xlink="http://www.w3.org/1999/xlink" x="0px" y="0px"
	 viewBox="0 0 22.2 29.8" style="enable-background:new 0 0 22.2 29.8;" xml:space="preserve">
<style type="text/css">
	.st0{fill:#0D0D0D;}
</style>
<g>
	<path class="st0" d="M6.9,20.3L7,23.2h6.9l0.2,0.2l-0.1,1.4H7L7,29.8H4.2l0.1-4.9h-4L0,24.7l0.2-1.5h4.1v-2.6L4.2,0.1L12.9,0
		c3,0,5.3,0.7,6.9,2.2c1.6,1.5,2.4,3.6,2.4,6.3c0,3-1,5.4-3,7.1c-2,1.7-4.7,2.5-8.3,2.5H6.9V20.3z M17.5,3.9
		c-1.2-1.1-2.9-1.7-5.1-1.8L7,2.2L6.9,15.8l5.6,0.1c2.2-0.3,3.9-1,5-2.3c1.2-1.2,1.7-2.9,1.7-5C19.3,6.6,18.7,5,17.5,3.9z"/>
</g>
</svg>
