<svg id="Capa_1" enable-background="new 0 0 511.999 511.999" height="512" viewBox="0 0 511.999 511.999" width="512" xmlns="http://www.w3.org/2000/svg"><path id="XMLID_1790_" d="m240.383 409.486c-5.292-1.582-10.863 1.43-12.441 6.723-13.313 44.607-55.158 75.762-101.762 75.762-58.548-.001-106.18-47.633-106.18-106.181 0-78.521 27.642-155.019 77.832-215.402l16.903-20.336c2.836-3.412 7.008-5.369 11.444-5.369s8.608 1.957 11.444 5.368l16.903 20.337c38.287 46.063 63.658 101.651 73.372 160.754.895 5.448 6.033 9.146 11.489 8.245 5.449-.896 9.142-6.039 8.245-11.489-10.289-62.61-37.167-121.497-77.726-170.293l-16.903-20.338c-6.648-7.997-16.426-12.584-26.825-12.584s-20.177 4.587-26.825 12.585l-16.903 20.336c-53.168 63.967-82.45 145.006-82.45 228.186 0 69.575 56.604 126.18 126.18 126.18 27.715 0 54.018-8.816 76.064-25.496 21.322-16.132 37.254-39.055 44.861-64.547 1.581-5.292-1.43-10.862-6.722-12.441z"/><path id="XMLID_1796_" d="m121.449 252.915c-4.865 2.612-6.692 8.675-4.08 13.541 16.498 30.729 26.637 65.315 29.317 100.02.405 5.244 4.786 9.23 9.96 9.23.258 0 .52-.011.781-.03 5.506-.426 9.625-5.234 9.2-10.741-2.936-37.989-13.58-74.306-31.638-107.939-2.612-4.866-8.673-6.693-13.54-4.081z"/><path id="XMLID_1803_" d="m126.18 427.043c5.522 0 10-4.478 10-10s-4.478-10-10-10c-11.719 0-21.253-9.534-21.253-21.253 0-12.47.944-25.058 2.807-37.413.822-5.461-2.938-10.556-8.398-11.379-5.454-.821-10.556 2.937-11.379 8.398-2.01 13.339-3.029 26.929-3.029 40.394-.001 22.747 18.505 41.253 41.252 41.253z"/><path id="XMLID_1804_" d="m126.18 469.506c46.161 0 83.717-37.555 83.717-83.716 0-5.522-4.478-10-10-10s-10 4.478-10 10c0 35.133-28.583 63.716-63.717 63.716-5.522 0-10 4.478-10 10s4.477 10 10 10z"/><path id="XMLID_1805_" d="m191.369 324.396c.777 0 1.567-.091 2.356-.281 5.368-1.298 8.669-6.701 7.371-12.069-6.916-28.625-17.794-56.116-32.329-81.712-2.728-4.803-8.831-6.485-13.634-3.757-4.802 2.727-6.484 8.831-3.757 13.634 13.613 23.973 23.801 49.722 30.28 76.532 1.108 4.578 5.201 7.653 9.713 7.653z"/><path id="XMLID_1806_" d="m87.663 243.373c-4.962-2.417-10.95-.354-13.368 4.612-20.824 42.762-31.831 90.413-31.831 137.805 0 5.522 4.478 10 10 10s10-4.478 10-10c0-44.375 10.309-88.999 29.812-129.049 2.417-4.964.353-10.95-4.613-13.368z"/><path id="XMLID_1809_" d="m511.851 282.914-2.428-26.333c-7.636-82.829-44.233-160.837-103.05-219.654-49.198-49.197-129.25-49.196-178.446 0-49.196 49.198-49.196 129.248.001 178.445 58.818 58.817 136.826 95.415 219.654 103.05l26.332 2.428c1.081.1 2.158.148 3.231.148 9.213 0 18.05-3.632 24.636-10.218 7.354-7.353 11.024-17.51 10.07-27.866zm-24.211 13.724c-3.138 3.138-7.47 4.707-11.89 4.296l-26.332-2.428c-78.188-7.207-151.825-41.753-207.349-97.276-41.398-41.399-41.398-108.761.001-150.16 20.054-20.055 46.718-31.1 75.08-31.1 28.361 0 55.025 11.045 75.08 31.1 55.521 55.521 90.068 129.159 97.276 207.348l2.428 26.333c.408 4.417-1.158 8.75-4.294 11.887z"/><path id="XMLID_1810_" d="m317.149 104.911c5.687 0 11.023 2.206 15.028 6.211 8.817 8.817 17.051 18.386 24.471 28.439 1.961 2.656 4.987 4.063 8.054 4.063 2.063 0 4.144-.637 5.931-1.955 4.443-3.279 5.387-9.54 2.107-13.984-8.011-10.854-16.899-21.185-26.42-30.705-7.782-7.782-18.142-12.068-29.17-12.068-.001 0 0 0-.001 0-11.028 0-21.389 4.286-29.17 12.069-3.905 3.905-3.905 10.236.001 14.142 3.904 3.904 10.237 3.905 14.142-.001 4.005-4.005 9.342-6.211 15.027-6.211z"/><path id="XMLID_1824_" d="m407.762 204.302c-33.393-10.063-65.018-27.35-91.456-49.993-4.196-3.594-10.508-3.105-14.1 1.09-3.593 4.194-3.104 10.507 1.09 14.1 28.94 24.788 62.146 42.94 98.696 53.954.962.289 1.933.428 2.889.428 4.297 0 8.268-2.792 9.571-7.118 1.593-5.288-1.402-10.867-6.69-12.461z"/><path id="XMLID_1825_" d="m376.347 66.953c-3.906-3.904-10.236-3.904-14.143 0-3.905 3.905-3.905 10.237 0 14.143 31.377 31.377 55.642 70.22 70.171 112.331 1.429 4.141 5.305 6.741 9.452 6.741 1.082 0 2.183-.177 3.263-.55 5.221-1.802 7.993-7.494 6.191-12.715-15.512-44.961-41.425-86.44-74.934-119.95z"/><path id="XMLID_1859_" d="m402.274 246.906c-26.576-7.323-51.987-18.327-75.529-32.705-4.714-2.88-10.867-1.391-13.746 3.322s-1.392 10.867 3.322 13.746c25.134 15.351 52.265 27.099 80.639 34.918.89.245 1.783.362 2.663.362 4.388 0 8.412-2.911 9.635-7.346 1.467-5.324-1.659-10.83-6.984-12.297z"/><path id="XMLID_1905_" d="m272.096 66.953c-3.906-3.904-10.236-3.904-14.143 0-32.641 32.642-32.641 85.752 0 118.394 1.953 1.952 4.512 2.929 7.071 2.929s5.118-.977 7.071-2.929c3.905-3.905 3.905-10.237 0-14.143-24.844-24.843-24.844-65.266 0-90.108 3.906-3.905 3.906-10.237.001-14.143z"/><path id="XMLID_1908_" d="m242.17 364.3c-2.63 0-5.21 1.069-7.07 2.93-1.859 1.86-2.93 4.44-2.93 7.07 0 2.64 1.07 5.21 2.93 7.069 1.86 1.87 4.44 2.931 7.07 2.931s5.21-1.061 7.07-2.931c1.859-1.859 2.93-4.439 2.93-7.069s-1.07-5.21-2.93-7.07c-1.86-1.861-4.44-2.93-7.07-2.93z"/></svg>