<svg height="512" viewBox="0 0 60 60" width="512" xmlns="http://www.w3.org/2000/svg"><g id="005---Apitherapy"><path id="Shape" d="m.47 53.848c8.698 5.437 8.122 5.152 8.53 5.152s-.1.239 8-4.821c8.117 5.073 7.6 4.821 8 4.821s0 .177 6.54-3.912c.469442-.2929871.612487-.9110579.3194999-1.3805-.292987-.469442-.9110579-.612487-1.3804999-.3195l-5.479 3.433-7-4.375v-6.892l3.651-2.286c.469442-.2932632.6122632-.911558.319-1.381s-.911558-.6122632-1.381-.319l-3.589 2.252-7-4.374v-6.892l7-4.374c3.9 2.443 3.643 2.316 3.922 2.373.4689316.0873966.9343088-.1685789 1.1115902-.6114178.1772815-.4428388.0171067-.9492413-.3825902-1.2095822l-3.651-2.286v-6.892l7-4.375 7 4.375v1.446c0 .5522847.4477153 1 1 1s1-.4477153 1-1v-1.446l7-4.375 7 4.375v7.446c0 .5522847.4477153 1 1 1s1-.4477153 1-1v-8c.0000008-.3447904-.1776185-.6652611-.47-.848l-7.53-4.706v-7.446c.0000008-.34479043-.1776185-.66526107-.47-.848l-8-5c-.3242708-.20266981-.7357292-.20266981-1.06 0l-7.47 4.669-7.47-4.669c-.3242708-.20266981-.7357292-.20266981-1.06 0l-8 5c-.29238147.18273893-.47000081.50320957-.47.848v7.446l-7.53 4.706c-.29238147.1827389-.47000081.5032096-.47.848v8c-.00000081.3447904.17761853.6652611.47.848l7.53 4.706v6.892l-7.53 4.706c-.29238147.1827389-.47000081.5032096-.47.848v8c-.00000081.3447904.17761853.6652611.47.848zm32.53-51.669 7 4.375v6.892l-7 4.375-7-4.375v-6.892zm-16 0 7 4.375v6.892l-7 4.375-7-4.375v-6.892zm-15 17.375 7-4.375 7 4.375v6.892l-7 4.375-7-4.375zm0 26 7-4.375 7 4.375v6.892l-7 4.375-7-4.375z"/><path id="Shape" d="m46 30.012v-1.012c-.0001797-1.7518097-.7676023-3.4156551-2.1-4.553l1-2c.2412059-.493494.039214-1.0891622-.4524127-1.3341516-.4916268-.2449894-1.0888289-.0475788-1.3375873.4421516l-.927 1.861c-1.3993259-.5531106-2.9566741-.5531106-4.356 0l-.927-1.862c-.157688-.3226209-.4762521-.5359231-.834616-.5588369-.3583639-.0229139-.7015.1480791-.8989927.4479897-.1974927.2999105-.2190167.6826868-.0563913 1.0028472l1 2c-1.3363877 1.1356891-2.1076168 2.800228-2.11 4.554v1.009c-.91-.009-1.9-.009-3-.009-5.312 0-11 2.411-11 6 0 4.308 8.125 6.579 12.167 5.891-.092.8-.167 1.89-.167 2.609 0 7 3 12.581 7 13.389v1.111c0 .5522847.4477153 1 1 1s1-.4477153 1-1v-1.111c4-.808 7-6.393 7-13.389 0-.715-.076-1.812-.166-2.6 4.095.677 12.166-1.6 12.166-5.9 0-3.589-5.688-6-11-6-1.05 0-2.061 0-3 .012zm-10-1.012c0-2.209139 1.790861-4 4-4s4 1.790861 4 4v1.052c-1.3532201-.022481-2.7013032.1719832-3.993.576-1.2930839-.4191962-2.6481418-.6149981-4.007-.579zm4.006 6.381c.468581.9376968 1.0462471 1.8167831 1.721 2.619h-3.457c.6736963-.8061467 1.2559209-1.6845144 1.736-2.619zm-18.006.619c0-1.8 4.153-4 9-4 2 0 6.731-.036 7.973.358-.342 2.405-3.827 7.642-7.973 7.642-4.847 0-9-2.2-9-4zm14.214 4h7.555c.6056562.4785529 1.2619019.8893351 1.957 1.225.04.257.075.516.106.775h-6.832c-.5522847 0-1 .4477153-1 1s.4477153 1 1 1h6.977c.0437111.6665261.0313342 1.3355467-.037 2h-11.88c-.0656006-.664616-.0779733-1.3334123-.037-2h.977c.5522847 0 1-.4477153 1-1s-.4477153-1-1-1h-.832c.032-.265.067-.53.109-.793.6876696-.3306399 1.3371846-.7353713 1.937-1.207zm-.714 12h4.5c.5522847 0 1-.4477153 1-1s-.4477153-1-1-1h-5.241c-.1903886-.6575983-.3439603-1.3253014-.46-2h11.401c-.1160397.6746986-.2696114 1.3424017-.46 2h-1.24c-.5522847 0-1 .4477153-1 1s.4477153 1 1 1h.5c-2.434 5.33-6.567 5.328-9 0zm22.5-16c0 2.487-7.435 4.99-10.992 3.61-2.9713691-1.401203-5.1630793-4.0544996-5.978-7.237 1.437-.433 5.77-.358 7.97-.373 4.847 0 9 2.2 9 4z"/></g></svg>