<?xml version="1.0" encoding="iso-8859-1"?>
<!-- Generator: Adobe Illustrator 19.0.0, SVG Export Plug-In . SVG Version: 6.00 Build 0)  -->
<svg version="1.1" id="Layer_1" xmlns="http://www.w3.org/2000/svg" xmlns:xlink="http://www.w3.org/1999/xlink" x="0px" y="0px"
	 viewBox="0 0 512.001 512.001" style="enable-background:new 0 0 512.001 512.001;" xml:space="preserve">
<g>
	<g>
		<path d="M242.488,120.593c-3.526-4.394-9.945-5.097-14.337-1.571c-5.263,4.224-11.622,6.457-18.39,6.457
			c-6.768,0-13.127-2.232-18.39-6.457c-4.392-3.527-10.811-2.823-14.337,1.571c-3.526,4.392-2.823,10.811,1.571,14.337
			c8.795,7.058,19.859,10.946,31.156,10.946c11.297,0,22.361-3.888,31.156-10.946C245.311,131.404,246.014,124.986,242.488,120.593z
			"/>
	</g>
</g>
<g>
	<g>
		<path d="M504.631,264.492c-8.163-22.526-22.391-41.812-41.147-55.774c-13.269-9.878-28.419-16.679-44.683-20.203
			c3.462-32.092-6.464-65.395-27.393-90.697c-22.63-27.358-55.115-42.424-91.47-42.424h-5.942c-25.451,0-50.164,9.038-71.469,26.135
			c-3.653,2.932-8.068,4.482-12.766,4.482c-4.698,0-9.113-1.55-12.766-4.482c-21.304-17.099-46.018-26.135-71.469-26.135h-5.942
			c-26.268,0-50.843,7.958-71.069,23.014C29.76,92.37,15.532,111.657,7.369,134.182c-8.129,22.435-9.564,46.232-4.149,68.822
			c5.843,24.371,19.547,46.11,39.632,62.866c15.333,12.792,32.083,23.777,49.861,32.725c-0.727,11.66,0.258,23.342,2.985,34.719
			c5.843,24.371,19.547,46.11,39.632,62.866c46.708,38.966,105.984,60.427,166.909,60.427s120.202-21.459,166.909-60.427
			c20.085-16.756,33.789-38.495,39.631-62.866C514.195,310.726,512.761,286.927,504.631,264.492z M95.972,277.276
			c-14.191-7.646-27.63-16.703-40.053-27.067c-39.007-32.542-40.749-77.682-29.372-109.077c11.446-31.588,41.898-65.34,93.039-65.34
			h5.942c20.758,0,41.057,7.485,58.702,21.646c7.208,5.786,16.276,8.971,25.533,8.971s18.325-3.186,25.533-8.971
			c17.644-14.162,37.944-21.646,58.702-21.646h5.942c30.165,0,57.068,12.44,75.754,35.029
			c17.351,20.974,25.637,48.509,22.887,75.049c-2.045-0.098-4.096-0.165-6.163-0.165h-5.942c-25.451,0-50.164,9.038-71.469,26.135
			c-3.653,2.932-8.067,4.481-12.766,4.481c-4.699,0-9.113-1.55-12.766-4.481c-21.305-17.099-46.018-26.135-71.469-26.135h-5.942
			c-26.268,0-50.843,7.958-71.069,23.014c-18.756,13.962-32.985,33.249-41.147,55.774C98.317,268.712,97.026,272.979,95.972,277.276
			z M456.082,380.518c-43.047,35.914-97.683,55.692-153.843,55.692s-110.796-19.779-153.843-55.692
			c-39.007-32.541-40.749-77.682-29.373-109.077c11.447-31.588,41.898-65.34,93.039-65.34h5.942
			c20.758,0,41.057,7.485,58.702,21.646c7.208,5.785,16.276,8.971,25.533,8.971s18.324-3.186,25.533-8.971
			c17.645-14.161,37.944-21.646,58.702-21.646h5.942c51.141,0,81.592,33.753,93.039,65.34
			C496.831,302.836,495.088,347.977,456.082,380.518z"/>
	</g>
</g>
<g>
	<g>
		<path d="M333.342,249.52c-3.526-4.393-9.944-5.096-14.337-1.571c-5.263,4.224-11.622,6.457-18.39,6.457
			c-6.768,0-13.126-2.232-18.39-6.457c-4.392-3.526-10.811-2.823-14.337,1.571c-3.526,4.392-2.823,10.811,1.571,14.337
			c8.795,7.058,19.86,10.946,31.156,10.946c11.296,0,22.361-3.887,31.156-10.946C336.164,260.332,336.868,253.913,333.342,249.52z"
			/>
	</g>
</g>
<g>
	<g>
		<path d="M412.074,384.932c-2.57-5.011-8.718-6.991-13.729-4.419c-29.909,15.341-62.244,23.12-96.106,23.12
			c-5.633,0-10.198,4.566-10.198,10.198c0,5.633,4.566,10.198,10.198,10.198c37.131,0,72.598-8.535,105.415-25.369
			C412.665,396.09,414.644,389.943,412.074,384.932z"/>
	</g>
</g>
<g>
	<g>
		<path d="M451.608,356.061c-3.608-4.327-10.038-4.909-14.363-1.3c-2.362,1.97-4.797,3.912-7.237,5.774
			c-4.479,3.417-5.34,9.816-1.924,14.294c2.007,2.632,5.044,4.014,8.116,4.014c2.157,0,4.33-0.681,6.177-2.09
			c2.675-2.04,5.344-4.169,7.932-6.329C454.634,366.816,455.216,360.385,451.608,356.061z"/>
	</g>
</g>
<g>
</g>
<g>
</g>
<g>
</g>
<g>
</g>
<g>
</g>
<g>
</g>
<g>
</g>
<g>
</g>
<g>
</g>
<g>
</g>
<g>
</g>
<g>
</g>
<g>
</g>
<g>
</g>
<g>
</g>
</svg>
