<svg height="511pt" viewBox="0 -4 511.997 511" width="511pt" xmlns="http://www.w3.org/2000/svg"><path d="M350.8 271.742c46.083-31.781 35.243-110.89-19.94-126.097-3.919-1.083-19.442-.493-21.325-2.282-3.144-2.984-4.996-17.289-7.418-21.734-6.906-12.688-17.902-22.899-30.89-29.16-27.036-13.031-59.72-7.41-79.856 15.144-19.398-26.258-53.281-34.222-82.586-20.097-12.98 6.257-24.207 16.328-31.5 28.785a66.83 66.83 0 00-7.87 20.633c-1.75 8.738.476 16.734-.204 25.242-.473 5.879.883 4.691-5.543 7.156a66.306 66.306 0 00-10.508 5.156c-7.402 4.477-13.82 10.38-19 17.301-9.914 13.246-15.035 29.926-14.492 46.45.25 7.542 1.672 15.073 4.281 22.156a69.045 69.045 0 005.75 11.918c.965 1.59 3.309 4.042 3.817 5.613 1.472 4.566 1.547.949-.692 5.304-4.207 8.188-11.879 14.122-15.617 23.192a73.353 73.353 0 00-5.52 28.855c.114 9.282 1.965 18.543 5.583 27.102 1.722 4.078 4.511 7.629 6.293 11.598 1.5 3.347 2.722 2.964 1.921 5.843-.363 1.313-5.988 5.45-6.812 6.332C6.39 399.332-.128 417.242 0 435.187c.281 38.739 32.188 71.262 71.46 69.215 17.638-.918 34.716-8.703 46.747-21.672 1.781-1.918 6.723-11.242 8.797-11.875 1.691-.52 10.437 4.008 12.207 4.473 9.258 2.414 18.926 2.7 28.336 1.031 17.488-3.105 33.535-13.132 43.969-27.507 2.863-3.946 4.488-8.778 7.27-12.641.655-.906 1.175-4.738 2.066-5.203.437-.23 6.539 1.785 7.773 2.027 10.25 2.012 20.977 1.504 31.023-1.316 10.657-2.989 20.532-8.574 28.61-16.125 2.219-2.078 8.922-12.953 11.36-13.785 2.75-.942 11.859 3.152 15.066 3.507 21.214 2.344 42.8-6.078 57.367-21.558 31.804-33.801 20.949-92.274-21.25-112.016 2.71-1.87 5.422-3.738 8.133-5.61-2.711 1.872-5.422 3.74-8.133 5.61zm-56.327-71.715c2.468-2.886 4.968-6.304 6.668-9.714a56.47 56.47 0 001.64-3.075c2.426-4.863 4.36-9.922 5.625-15.218 1.746-7.286.176-8.356 7.45-8.977 6.874-.586 15.187 2.766 20.976 6.242 11.523 6.914 19.05 18.969 22.02 31.906 2.882 12.582 1.64 26.414-4.364 37.934-3.226 6.188-7.804 11.613-13.46 15.719-1.876 1.363-18.622 9.394-18.622 7.629.02-.328.032-.66.032-.996.058-2.352.011-4.793-.208-7.141-.02-.356-.05-.711-.09-1.066 0-.047-.007-.098-.007-.157-2.149-20.437-12.485-39.195-29.418-51l1.758-2.086c.297-.347-.559.707 0 0 2.527-2.957-.559.707 0 0zm-1.426 29.68c.156.195.297.383.422.582 2.476 3.473 4.453 7.29 5.969 11.27.175.453.343.906.492 1.367.078.187.136.375.195.562.11.305.207.61.297.926 1.101 3.195 1.59 6.586 2.066 9.918.047.473.098.945.125 1.422.032.226.04.453.051.68.04.453.059.906.078 1.359.012.105.012.227.012.332.203 4.273.086 9.457-1.277 13.555-.09.386-.149.761-.18 1.144-7.16 17.227-18.168 32.535-37.43 36.625-.012 0-.031.012-.039.012-12.039 2.57-26.516.398-36.527-7.121a35.358 35.358 0 01-2.29-1.625c-.011-.012-.03-.024-.038-.031-20.551-15.622-24.305-43.797-12.09-65.836 12.66-22.836 35.668-29.559 59.527-21.582a42.14 42.14 0 011.543.691c.012 0 .024 0 .031.008.5.238 1.004.472 1.496.73.086.04.176.09.266.13a45.138 45.138 0 014.149 2.41 49.584 49.584 0 013.57 2.535 42.216 42.216 0 013.152 2.687c.188.156.367.324.543.504 1.297 1.125 5.45 6.137 5.887 6.746.156.195-.57-.797 0 0zM188.05 240.563a66.479 66.479 0 00-1.547 6.746c-14.211.386-26.781-5.95-36.606-15.82-6.125-6.68-10.351-14.934-12.222-23.868-9.356-24.418 13.308-54.101 36.094-59.824-2.575 24.976 8.878 50.527 29.41 65.035-7.082 7.988-12.325 17.598-15.18 27.887.398-1.426.813-2.848 1.203-4.278-.383 1.375-.77 2.75-1.152 4.121-.633 2.215 2.887-10.304 0 0zm14.59 65.98h-.012v.012c-11.336 7.996-21.535 20.425-25.395 33.976h-.011a59.829 59.829 0 01-4.79-1.379c-4.523-1.511-9.413-1.847-14.156-1.933a81.46 81.46 0 00-5.695.082 25.903 25.903 0 01-4.422.383 18.06 18.06 0 00-3.55.53c-.079.013-.169.02-.247.04-.504.2-1.02.297-1.543.297-16.37-8.946-27.152-27.352-26.222-46.063v-.129c.023-.515.047-1.03.066-1.546 0-.06 0-.118.012-.168.02-.383.05-.758.078-1.133 0-.047.012-.098.012-.149.125-1.414.246-3.27.609-4.726a46.744 46.744 0 011.328-5.606c.02-.058.04-.129.059-.187.02-.117.058-.227.097-.344.973-3.453 2.461-6.41 4.04-9.574a51.202 51.202 0 012.558-4.168c2.617-4.008 5.93-7.602 9.676-10.582a12.771 12.771 0 013.578-2.66c.41-.286.824-.559 1.246-.817.297-.195.594-.375.887-.55l.011.007c12.407 10.887 28.149 16.867 44.57 16.867h.294c.316 3.813.746 9.344 2.476 12.817.203.722.422 1.441.66 2.156.02.066.051.129.07.195a83.4 83.4 0 00.747 2.168c2.95 8.125 7.344 15.61 12.969 22.184zm-3.461-176.004c.039-.09.086-.18.129-.266.007-.02.027-.05.039-.07 23.855-43.656 90.925-24.195 91.457 24.293 0 .106 0 .227.011.336v.145c0 11.613-3.996 22.808-11.05 31.957-.059.07-.11.136-.168.207-1.641 2.078-3.496 4.011-5.446 5.793-13.254-4.348-31.418-5.102-44.257 1.34-1.856.69-9.208 5.398-10.856 5.308-2.586-.14-6.59-4.363-8.371-5.895a50.42 50.42 0 01-13.406-18.21c-.032-.079-.059-.157-.098-.235-6.047-14.27-4.586-32.512 1.695-44.117-.57 1.059-.464.86.32-.586.04-.09-1.523 2.816 0 0zm-62.465-31.05c17.972 0 34.375 10.187 42.898 26.28a6.78 6.78 0 00-.218.485c-.106.226-.208.453-.305.687-34.934 3.262-61.77 34.563-62.2 69.204-4.027-1.7-7.953-4.211-11.206-7.133a21.71 21.71 0 01-1.063-.926c-36.133-27.125-10.605-88.598 32.094-88.598zm-59.043 86.163c.058.11.129.23.195.328 1.203 2.09 3.016 5.418 4.828 7.23.266.364.551.727.836 1.083.176.238.364.465.563.691.261.336.527.66.812.996 0 .008 0 .008.012.008 5.32 6.43 12.371 12.551 19.957 16.188 3.96 2.133 12.105 3.148 15.215 5.898 3.16 2.801 5.297 12.965 7.836 16.965-3.453 2.125-6.684 4.86-9.551 7.73-.156.141-.313.29-.46.446-.274.254-.54.52-.798.797-4.633 4.64-8.441 9.968-11.601 15.703-.047.078-.086.168-.125.246-.98.84-1.47 1.8-1.465 2.875a31.494 31.494 0 01-.719 1.547c-.012.02-.02.031-.02.05a62.739 62.739 0 00-1.93 4.727c-.464 1.281-1.054 2.723-1.347 4.078-.12.395-.234.793-.344 1.192-.117.383-.222.77-.312 1.164-.04.125-.07.254-.098.383-.09.304-.168.609-.238.914-.008.058-.027.109-.04.168-.538 2.226-.726 4.543-1.276 6.757-.008.051-.008.09-.02.141-.012.035-.012.078-.012.117-.02.078-.02.156-.027.235l-.031.238h-.008c-.535.078-1.067.18-1.594.305-3.851.64-7.926.949-11.808.543-.04 0-.09-.012-.13-.012-.472-.04-.945-.078-1.406-.13a1.38 1.38 0 00-.273-.026 52.051 52.051 0 01-11.82-2.957 48.279 48.279 0 01-5.239-2.434 27.759 27.759 0 00-2.683-1.547c-.5-.309-.992-.629-1.477-.965-.375-.254-.758-.511-1.133-.777a.17.17 0 00-.058-.04 92.006 92.006 0 00-2.93-2.284c-30.484-25.618-18.883-79.899 20.719-88.57-.164-.301-8.637 1.874-9.805 2.171 3.242-.82 6.543-1.457 9.805-2.172.058.11-22.184 4.86 0 0zM50.445 293.914c3.45 2.293 10.075 7.25 14.317 7.25 6.058 2.16 12.68 3.754 19.133 3.961h.011c3.223.21 6.989.465 10.188-.176 2.422-1.508 3.629-1.648 3.625-.426 1.586 10.325 5.508 22.82 12.527 30.856 0 .008.012.02.012.02 3.082 4.296 6.578 8.265 10.605 11.703.04.027.07.066.121.097-10.066 6.164-29.027 22.676-29.027 35.906-2.344.586-4.777 1.079-7.195 1.282-.2.031-.395.047-.59.058-48.23 4.403-70.79-61.472-33.727-90.53.082.054-4.5 4.78-5.183 4.327-.117-.078 6.648-5.476 5.183-4.328 1.621 1.078-12.074 9.469 0 0zm17.778 191.277c-25.399 0-44.797-20.144-47.828-44.695-1.418-11.516.777-23.445 6.878-33.383 2.508-4.082 7.153-11.394 11.809-12.976 5.48-1.864 15.688 5.355 22.27 7.558 7.23 2.067 15.125 3.2 22.66 2.512 1.273-.11 2.543-.219 3.816-.324-.5 8.488.559 17.734 3.461 25.738 1.094 3.477 2.402 7.313 4.336 10.41 2.621 5.156 5.883 10.485 9.988 14.602 5.043 5.828 5.586 5.527.575 11.922a49 49 0 01-10.024 9.586c-8.14 5.847-17.902 9.05-27.941 9.05zm136.234-69.343c0 .02-.008.03-.008.05-6.219 37.97-52.851 55.196-81.02 28.325-12.667-12.078-20.038-30-15.413-47.32 4.37-16.372 17.836-35.817 36.12-38.434 9.079-2.41 27.536-3.188 34.966 4.254.02.011.03.02.05.03h.008c.012 0 .012.013.02.013 18.82 10.324 28.511 33.73 25.382 52.476.168-1.027.137-.824-.105.606 0 .02.465-2.766 0 0zm37.316-1.192c-5.84 0-11.64-1.082-17.082-3.172.157-2.699.286-5.816-.02-8.55-.171-2.93-.648-5.786-1.062-8.688a94.884 94.884 0 00-.363-1.832c-.008-.02-.008-.039-.02-.059a39.178 39.178 0 00-.355-1.585c-.008-.051-.02-.09-.027-.141-2.461-9.25-7.524-24.965-16.008-30.645a35.375 35.375 0 00-1.219-1.332 11.932 11.932 0 00-.648-.68c-2.969-3.202-6.418-5.988-9.961-8.519.031-.11.058-.207.097-.305.079-.296.168-.582.266-.867a43.245 43.245 0 013.863-8.984 45.503 45.503 0 018.555-11.406c.266-.278.54-.543.816-.797.254-.258.512-.496.778-.73.215-.208.441-.403.668-.59.117-.122.234-.227.355-.317.235-.207.461-.402.696-.59 2.148-1.879 4.609-3.547 7.109-4.937 10.84 6.789 23.082 10.195 35.86 10.265-.012.13-.02.266-.04.407-.648 9.984.805 20.027 4.207 29.43 1.903 5.257 7.082 19.085 12.606 21.863.148.175.297.355.46.53 0 .013.012.032.04.04l.011.012c.305.355.618.707.946 1.05v.012a63.405 63.405 0 006.422 6.207c4.273 1.469 4.648 3.492 1.129 6.067-1.461 3.683-6.993 7.433-10.102 9.675-8.137 5.871-17.91 9.168-27.977 9.168zm80.633-28.554c-30.46 0-52.781-29.754-48.168-59.047 8.887-2.805 20.192-8.047 26.164-15.535a61.774 61.774 0 002.036-2.012c.117-.106.226-.215.324-.332a53.862 53.862 0 002.652-2.938c.266-.297.512-.59.758-.894a5.42 5.42 0 00.305-.367c1.464-1.766 3.55-4.2 4.62-6.344 2.551-3.863 4.81-8.13 6.43-12.469.121-.266.22-.543.325-.82 27.906-2.739 52.414 20.898 53.363 48.39.937 27.192-21.078 52.368-48.809 52.368zm113.758-241.637c-5.43 0-9.836-4.41-9.836-9.852 0-5.437 4.399-9.847 9.828-9.847h.008c5.434 0 9.832 4.41 9.832 9.847 0 5.442-4.398 9.852-9.832 9.852zm0 0"/><path d="M507.773 167.695c-8.789-36.222-35.16-67.203-78.43-92.183 6.223-9.453 38.348-71.063 15.485-74.86-13.91-2.308-13.836 21.903-16.43 30.493-4.378 14.5-10.918 28.492-20.304 40.437-.008 0-.008 0-.02.008-18.23 23.918-48.547 37.472-78.312 37.472-8.422-.457-13.559 10.086-7.871 16.395 3.921 4.352 10.558 3.426 15.78 3.094 19.243-1.211 38.54-7.29 54.977-17.36-18.984 70.297 27.625 122.895 83.114 158.52 0 0 .008.012.02.012.097.058.187.117.292.175 1.621 1.004 3.903 1.543 5.762 1.332a2.3 2.3 0 00.453-.05c.36-.035.711-.098 1.063-.188.605-.12 1.226-.367 1.789-.62.07-.02.136-.06.199-.09a1.14 1.14 0 00.195-.098c1.371-.688 2.563-1.727 3.473-2.965l.117-.157c1.293-1.863 31.578-46.093 18.648-99.367-8.789-36.222 12.93 53.274 0 0zm-24.511 67.578c-5.246-16.757-10.543-33.507-16.219-50.125-2.734-8.02-6.074-27.601-16.594-28.785-17.172-1.925-7.844 18.512-5.054 26.317 6.39 17.87 12.035 36.03 17.73 54.129-22.129-17.11-43.281-38.657-51.746-66.043-8.176-26.457-1.586-53.082 8.336-78.086 52.07 30.136 87.254 81.43 63.547 142.593-8.2-26.195 0 0 0 0zm0 0"/></svg>