<svg xmlns="http://www.w3.org/2000/svg" viewBox="0 0 498.613 498.613" width="512" height="512"><path d="M450.231 117.215a7.498 7.498 0 00-10.449-1.816 7.499 7.499 0 00-1.816 10.45c26.108 37.095 39.908 79.786 39.908 123.458 0 56.535-23.323 111.31-65.674 154.235-31.918 32.351-73.081 56.518-118.814 70.244-9.156-7.448-14.702-22.076-17.242-46.35 9.316 8.669 21.791 13.987 35.491 13.987a52.068 52.068 0 0040.613-19.436c1.26.092 2.518.139 3.766.139 28.758 0 52.154-23.396 52.154-52.154a52.13 52.13 0 00-1.57-12.759c13.721-5.632 25.921-14.997 34.891-26.901 10.885-14.445 16.638-31.664 16.638-49.797 0-18.059-5.844-35.444-16.592-49.738a52.116 52.116 0 0016.5-38.064c0-25.479-18.113-46.705-42.434-51.248-.579-23.15-16.217-42.899-38.24-48.937-7.174-25.679-30.74-43.838-57.825-43.838-13.35 0-25.692 4.383-35.674 11.78 5.504-13.186 13.173-24.236 22.343-31.533 44.329 15.451 83.52 40.857 113.623 74.218a7.499 7.499 0 0010.593.543 7.5 7.5 0 00.544-10.592C385.935 43.205 321.794 10.166 250.356.074a7.447 7.447 0 00-2.098 0c-66.83 9.441-128.1 39.438-172.522 84.463C30.598 130.287 5.74 188.803 5.74 249.307s24.858 119.02 69.996 164.77c44.423 45.025 105.692 75.021 172.522 84.463a7.518 7.518 0 002.098 0c66.83-9.441 128.099-39.438 172.521-84.463 45.138-45.75 69.996-104.266 69.996-164.77 0-46.78-14.745-92.456-42.642-132.092zM319.534 63.69c21.584 0 40.188 15.365 44.238 36.535a7.5 7.5 0 006.085 5.98c17.172 2.978 29.802 17.374 30.702 34.622-11.921 1.2-22.974 6.42-31.56 15.006a7.498 7.498 0 00-.001 10.606 7.476 7.476 0 005.304 2.197 7.474 7.474 0 005.303-2.197c7.019-7.018 16.35-10.882 26.273-10.882.178 0 .35-.038.519-.092.354.067.712.118 1.077.134 19.939.841 35.559 17.143 35.559 37.113a37.118 37.118 0 01-11.58 26.93c-15.343-14.185-35.155-21.97-56.17-21.97-4.143 0-7.5 3.358-7.5 7.5s3.357 7.5 7.5 7.5c18.121 0 35.158 7.057 47.971 19.871.372.372.774.696 1.198.974.26.44.565.858.916 1.243a67.663 67.663 0 0117.758 45.756c0 14.849-4.709 28.947-13.617 40.77-7.365 9.773-17.385 17.447-28.646 22.056a52.062 52.062 0 00-44.849-25.524c-13.931 0-27.027 5.425-36.879 15.276a7.5 7.5 0 0010.607 10.606c7.018-7.018 16.348-10.882 26.271-10.882a37.107 37.107 0 0134.238 22.695l.003.005.006.017a36.93 36.93 0 012.907 14.438c0 18.879-14.157 34.503-32.412 36.841a52.09 52.09 0 003.034-17.544c0-4.142-3.357-7.5-7.5-7.5s-7.5 3.358-7.5 7.5a36.977 36.977 0 01-6.204 20.561c-.01.014-.022.026-.032.041-6.922 10.364-18.48 16.552-30.919 16.552-20.486 0-37.153-16.667-37.153-37.154 0-10.333 4.151-19.936 11.688-27.039a7.501 7.501 0 00.772-10.069c-8.152-10.459-12.461-22.999-12.461-36.261 0-18.289 8.286-35.255 22.734-46.549.067-.052.126-.113.191-.167 10.42-8.076 22.909-12.347 36.137-12.347 4.143 0 7.5-3.358 7.5-7.5s-3.357-7.5-7.5-7.5c-14.464 0-28.224 4.077-40.178 11.837-12.054-12.865-18.884-29.913-18.884-47.655 0-18.473 7.16-35.881 20.162-49.018.026-.026.047-.055.072-.082 13.184-13.282 30.744-20.597 49.462-20.597 4.143 0 7.5-3.358 7.5-7.5s-3.357-7.5-7.5-7.5c-20.503 0-39.851 7.241-55.204 20.486-9.158-8.477-14.493-20.45-14.493-33.065.002-24.843 20.213-45.054 45.055-45.054zM20.739 249.306c0-56.535 23.323-111.31 65.674-154.235 28.917-29.309 65.419-51.906 106.035-66.105 9.151 7.297 16.803 18.334 22.299 31.498-9.981-7.393-22.321-11.775-35.667-11.775-27.086 0-50.652 18.159-57.825 43.838-22.023 6.038-37.661 25.786-38.24 48.937-24.319 4.543-42.434 25.769-42.434 51.248a52.112 52.112 0 0016.5 38.064c-10.749 14.294-16.593 31.679-16.593 49.738 0 1.78.057 3.576.17 5.339.264 4.135 3.861 7.275 7.962 7.007a7.5 7.5 0 007.007-7.962 69.4 69.4 0 01-.139-4.384 67.657 67.657 0 0117.758-45.755c.352-.385.657-.803.917-1.245a7.544 7.544 0 001.195-.972c12.814-12.813 29.852-19.871 47.973-19.871 4.143 0 7.5-3.358 7.5-7.5s-3.357-7.5-7.5-7.5c-21.015 0-40.827 7.786-56.17 21.971a37.119 37.119 0 01-11.58-26.931c0-19.97 15.618-36.271 35.558-37.113a7.317 7.317 0 001.078-.134c.169.054.341.092.519.092 9.924 0 19.254 3.865 26.272 10.882 1.464 1.465 3.384 2.197 5.303 2.197s3.839-.732 5.304-2.197a7.498 7.498 0 00-.001-10.606c-8.586-8.586-19.639-13.807-31.559-15.006.9-17.248 13.53-31.645 30.702-34.622a7.5 7.5 0 006.085-5.981c4.049-21.169 22.653-36.534 44.238-36.534 24.843 0 45.054 20.211 45.054 45.054 0 12.615-5.335 24.588-14.492 33.065-15.354-13.245-34.702-20.486-55.204-20.486-4.143 0-7.5 3.358-7.5 7.5s3.357 7.5 7.5 7.5c18.719 0 36.282 7.318 49.468 20.603.023.024.043.051.066.075 13.002 13.138 20.162 30.546 20.162 49.018 0 17.741-6.83 34.79-18.884 47.656-11.956-7.76-25.715-11.837-40.179-11.837-4.143 0-7.5 3.358-7.5 7.5s3.357 7.5 7.5 7.5c13.229 0 25.719 4.272 36.141 12.35.063.053.121.112.187.164 14.448 11.294 22.734 28.26 22.734 46.549 0 13.263-4.309 25.802-12.461 36.261a7.5 7.5 0 00.771 10.069c7.538 7.103 11.689 16.705 11.689 27.039 0 20.487-16.667 37.154-37.154 37.154-12.438 0-23.996-6.188-30.918-16.552-.011-.017-.025-.031-.037-.047a36.97 36.97 0 01-6.2-20.555c0-4.142-3.357-7.5-7.5-7.5s-7.5 3.358-7.5 7.5a52.11 52.11 0 003.033 17.544c-18.254-2.337-32.412-17.962-32.412-36.841 0-5.01.979-9.867 2.908-14.437l.008-.021.001-.002a37.106 37.106 0 0134.237-22.694c9.925 0 19.255 3.865 26.272 10.882a7.5 7.5 0 0010.607-10.606c-9.852-9.851-22.948-15.276-36.88-15.276a52.058 52.058 0 00-44.849 25.524c-15.431-6.293-28.182-18.159-35.518-33.299a7.5 7.5 0 00-13.499 6.541c8.941 18.454 24.471 32.942 43.279 40.634a52.13 52.13 0 00-1.569 12.753c0 28.758 23.396 52.154 52.154 52.154 1.248 0 2.506-.046 3.767-.139a52.067 52.067 0 0040.612 19.436c13.699 0 26.174-5.317 35.49-13.985-2.541 24.27-8.085 38.9-17.241 46.348-45.733-13.727-86.895-37.893-118.814-70.244-42.346-42.925-65.67-97.699-65.67-154.235zm228.568 234.23a306.968 306.968 0 01-27.594-5.303c12.227-15.78 17.42-43.284 17.42-88.965 0-12.089-4.272-23.845-11.892-33.125 7.799-11.979 11.892-25.768 11.892-40.243 0-20.102-7.977-38.925-22.14-52.8 14.157-15.53 22.14-35.908 22.14-57.081 0-19.694-6.695-38.391-19.006-53.462 12.023-11.278 19.006-27.129 19.006-43.813 0-18.854-3.677-37.605-10.632-54.229-5.116-12.229-11.776-22.654-19.59-30.78a306.154 306.154 0 0140.396-8.659 308.567 308.567 0 0140.409 8.644c-7.82 8.128-14.485 18.557-19.604 30.794-6.955 16.623-10.631 35.375-10.631 54.229 0 16.685 6.982 32.535 19.005 43.813-12.31 15.071-19.005 33.767-19.005 53.462 0 21.174 7.982 41.551 22.139 57.081-14.162 13.875-22.139 32.699-22.139 52.8 0 14.476 4.092 28.263 11.892 40.243-7.619 9.281-11.892 21.037-11.892 33.125 0 45.681 5.193 73.185 17.42 88.965a306.338 306.338 0 01-27.594 5.304z"/></svg>