<?xml version="1.0" encoding="iso-8859-1"?>
<!-- Generator: Adobe Illustrator 19.0.0, SVG Export Plug-In . SVG Version: 6.00 Build 0)  -->
<svg xmlns="http://www.w3.org/2000/svg" xmlns:xlink="http://www.w3.org/1999/xlink" version="1.1" id="Layer_1" x="0px" y="0px" viewBox="0 0 498.613 498.613" style="enable-background:new 0 0 498.613 498.613;" xml:space="preserve" width="512" height="512">
<path d="M450.231,117.215c-2.383-3.387-7.061-4.201-10.449-1.816c-3.388,2.384-4.201,7.063-1.816,10.45  c26.108,37.095,39.908,79.786,39.908,123.458c0,56.535-23.323,111.31-65.674,154.235c-31.918,32.351-73.081,56.518-118.814,70.244  c-9.156-7.448-14.702-22.076-17.242-46.35c9.316,8.669,21.791,13.987,35.491,13.987c15.887,0,30.748-7.187,40.613-19.436  c1.26,0.092,2.518,0.139,3.766,0.139c28.758,0,52.154-23.396,52.154-52.154c0-4.346-0.526-8.614-1.57-12.759  c13.721-5.632,25.921-14.997,34.891-26.901c10.885-14.445,16.638-31.664,16.638-49.797c0-18.059-5.844-35.444-16.592-49.738  c10.449-9.786,16.5-23.512,16.5-38.064c0-25.479-18.113-46.705-42.434-51.248c-0.579-23.15-16.217-42.899-38.24-48.937  c-7.174-25.679-30.74-43.838-57.825-43.838c-13.35,0-25.692,4.383-35.674,11.78c5.504-13.186,13.173-24.236,22.343-31.533  c44.329,15.451,83.52,40.857,113.623,74.218c2.776,3.076,7.519,3.319,10.593,0.543c3.075-2.775,3.318-7.517,0.544-10.592  C385.935,43.205,321.794,10.166,250.356,0.074c-0.695-0.099-1.402-0.099-2.098,0c-66.83,9.441-128.1,39.438-172.522,84.463  c-45.138,45.75-69.996,104.266-69.996,164.77s24.858,119.02,69.996,164.77c44.423,45.025,105.692,75.021,172.522,84.463  c0.348,0.049,0.698,0.074,1.049,0.074s0.701-0.024,1.049-0.074c66.83-9.441,128.099-39.438,172.521-84.463  c45.138-45.75,69.996-104.266,69.996-164.77C492.873,202.527,478.128,156.851,450.231,117.215z M319.534,63.69  c21.584,0,40.188,15.365,44.238,36.535c0.586,3.065,3.01,5.447,6.085,5.98c17.172,2.978,29.802,17.374,30.702,34.622  c-11.921,1.2-22.974,6.42-31.56,15.006c-2.93,2.929-2.93,7.677-0.001,10.606c1.465,1.465,3.384,2.197,5.304,2.197  c1.919,0,3.839-0.732,5.303-2.197c7.019-7.018,16.35-10.882,26.273-10.882c0.178,0,0.35-0.038,0.519-0.092  c0.354,0.067,0.712,0.118,1.077,0.134c19.939,0.841,35.559,17.143,35.559,37.113c0,10.278-4.25,19.968-11.58,26.93  c-15.343-14.185-35.155-21.97-56.17-21.97c-4.143,0-7.5,3.358-7.5,7.5s3.357,7.5,7.5,7.5c18.121,0,35.158,7.057,47.971,19.871  c0.372,0.372,0.774,0.696,1.198,0.974c0.26,0.44,0.565,0.858,0.916,1.243c11.451,12.528,17.758,28.777,17.758,45.756  c0,14.849-4.709,28.947-13.617,40.77c-7.365,9.773-17.385,17.447-28.646,22.056c-9.308-15.7-26.234-25.524-44.849-25.524  c-13.931,0-27.027,5.425-36.879,15.276c-2.929,2.929-2.929,7.678,0,10.606c2.93,2.929,7.678,2.929,10.607,0  c7.018-7.018,16.348-10.882,26.271-10.882c14.968,0,28.406,8.908,34.238,22.695c0.001,0.002,0.002,0.003,0.003,0.005  c0.002,0.006,0.004,0.011,0.006,0.017c1.929,4.571,2.907,9.428,2.907,14.438c0,18.879-14.157,34.503-32.412,36.841  c1.996-5.588,3.034-11.506,3.034-17.544c0-4.142-3.357-7.5-7.5-7.5s-7.5,3.358-7.5,7.5c0,7.359-2.147,14.467-6.204,20.561  c-0.01,0.014-0.022,0.026-0.032,0.041c-6.922,10.364-18.48,16.552-30.919,16.552c-20.486,0-37.153-16.667-37.153-37.154  c0-10.333,4.151-19.936,11.688-27.039c2.816-2.654,3.151-7.016,0.772-10.069c-8.152-10.459-12.461-22.999-12.461-36.261  c0-18.289,8.286-35.255,22.734-46.549c0.067-0.052,0.126-0.113,0.191-0.167c10.42-8.076,22.909-12.347,36.137-12.347  c4.143,0,7.5-3.358,7.5-7.5s-3.357-7.5-7.5-7.5c-14.464,0-28.224,4.077-40.178,11.837c-12.054-12.865-18.884-29.913-18.884-47.655  c0-18.473,7.16-35.881,20.162-49.018c0.026-0.026,0.047-0.055,0.072-0.082c13.184-13.282,30.744-20.597,49.462-20.597  c4.143,0,7.5-3.358,7.5-7.5s-3.357-7.5-7.5-7.5c-20.503,0-39.851,7.241-55.204,20.486c-9.158-8.477-14.493-20.45-14.493-33.065  C274.481,83.901,294.692,63.69,319.534,63.69z M20.739,249.306c0-56.535,23.323-111.31,65.674-154.235  c28.917-29.309,65.419-51.906,106.035-66.105c9.151,7.297,16.803,18.334,22.299,31.498c-9.981-7.393-22.321-11.775-35.667-11.775  c-27.086,0-50.652,18.159-57.825,43.838c-22.023,6.038-37.661,25.786-38.24,48.937c-24.319,4.543-42.434,25.769-42.434,51.248  c0,14.553,6.051,28.279,16.5,38.064c-10.749,14.294-16.593,31.679-16.593,49.738c0,1.78,0.057,3.576,0.17,5.339  c0.264,4.135,3.861,7.275,7.962,7.007c4.134-0.264,7.271-3.829,7.007-7.962c-0.092-1.447-0.139-2.922-0.139-4.384  c0-16.979,6.307-33.229,17.758-45.755c0.352-0.385,0.657-0.803,0.917-1.245c0.423-0.277,0.823-0.601,1.195-0.972  c12.814-12.813,29.852-19.871,47.973-19.871c4.143,0,7.5-3.358,7.5-7.5s-3.357-7.5-7.5-7.5c-21.015,0-40.827,7.786-56.17,21.971  c-7.33-6.962-11.58-16.652-11.58-26.931c0-19.97,15.618-36.271,35.558-37.113c0.365-0.015,0.723-0.066,1.078-0.134  c0.169,0.054,0.341,0.092,0.519,0.092c9.924,0,19.254,3.865,26.272,10.882c1.464,1.465,3.384,2.197,5.303,2.197  s3.839-0.732,5.304-2.197c2.929-2.929,2.929-7.678-0.001-10.606c-8.586-8.586-19.639-13.807-31.559-15.006  c0.9-17.248,13.53-31.645,30.702-34.622c3.075-0.533,5.499-2.915,6.085-5.981c4.049-21.169,22.653-36.534,44.238-36.534  c24.843,0,45.054,20.211,45.054,45.054c0,12.615-5.335,24.588-14.492,33.065c-15.354-13.245-34.702-20.486-55.204-20.486  c-4.143,0-7.5,3.358-7.5,7.5s3.357,7.5,7.5,7.5c18.719,0,36.282,7.318,49.468,20.603c0.023,0.024,0.043,0.051,0.066,0.075  c13.002,13.138,20.162,30.546,20.162,49.018c0,17.741-6.83,34.79-18.884,47.656c-11.956-7.76-25.715-11.837-40.179-11.837  c-4.143,0-7.5,3.358-7.5,7.5s3.357,7.5,7.5,7.5c13.229,0,25.719,4.272,36.141,12.35c0.063,0.053,0.121,0.112,0.187,0.164  c14.448,11.294,22.734,28.26,22.734,46.549c0,13.263-4.309,25.802-12.461,36.261c-2.38,3.053-2.045,7.415,0.771,10.069  c7.538,7.103,11.689,16.705,11.689,27.039c0,20.487-16.667,37.154-37.154,37.154c-12.438,0-23.996-6.188-30.918-16.552  c-0.011-0.017-0.025-0.031-0.037-0.047c-4.055-6.092-6.2-13.198-6.2-20.555c0-4.142-3.357-7.5-7.5-7.5s-7.5,3.358-7.5,7.5  c0,6.039,1.038,11.956,3.033,17.544c-18.254-2.337-32.412-17.962-32.412-36.841c0-5.01,0.979-9.867,2.908-14.437  c0.003-0.007,0.005-0.014,0.008-0.021c0,0,0.001-0.001,0.001-0.002c5.831-13.786,19.27-22.694,34.237-22.694  c9.925,0,19.255,3.865,26.272,10.882c2.93,2.929,7.678,2.929,10.607,0c2.929-2.929,2.929-7.678,0-10.606  c-9.852-9.851-22.948-15.276-36.88-15.276c-18.617,0-35.541,9.823-44.849,25.524c-15.431-6.293-28.182-18.159-35.518-33.299  c-1.806-3.727-6.291-5.285-10.02-3.479c-3.728,1.806-5.285,6.292-3.479,10.02c8.941,18.454,24.471,32.942,43.279,40.634  c-1.043,4.143-1.569,8.409-1.569,12.753c0,28.758,23.396,52.154,52.154,52.154c1.248,0,2.506-0.046,3.767-0.139  c9.865,12.249,24.726,19.436,40.612,19.436c13.699,0,26.174-5.317,35.49-13.985c-2.541,24.27-8.085,38.9-17.241,46.348  c-45.733-13.727-86.895-37.893-118.814-70.244C44.063,360.616,20.739,305.842,20.739,249.306z M249.307,483.536  c-9.328-1.35-18.534-3.131-27.594-5.303c12.227-15.78,17.42-43.284,17.42-88.965c0-12.089-4.272-23.845-11.892-33.125  c7.799-11.979,11.892-25.768,11.892-40.243c0-20.102-7.977-38.925-22.14-52.8c14.157-15.53,22.14-35.908,22.14-57.081  c0-19.694-6.695-38.391-19.006-53.462c12.023-11.278,19.006-27.129,19.006-43.813c0-18.854-3.677-37.605-10.632-54.229  c-5.116-12.229-11.776-22.654-19.59-30.78c13.138-3.762,26.639-6.667,40.396-8.659c13.796,1.997,27.293,4.904,40.409,8.644  c-7.82,8.128-14.485,18.557-19.604,30.794c-6.955,16.623-10.631,35.375-10.631,54.229c0,16.685,6.982,32.535,19.005,43.813  c-12.31,15.071-19.005,33.767-19.005,53.462c0,21.174,7.982,41.551,22.139,57.081c-14.162,13.875-22.139,32.699-22.139,52.8  c0,14.476,4.092,28.263,11.892,40.243c-7.619,9.281-11.892,21.037-11.892,33.125c0,45.681,5.193,73.185,17.42,88.965  C267.841,480.406,258.634,482.186,249.307,483.536z"/>















</svg>
