<svg height="512" viewBox="0 0 511 511" width="512" xmlns="http://www.w3.org/2000/svg"><circle cx="135.5" cy="175.5" r="7.5"/><circle cx="183.5" cy="175.5" r="7.5"/><circle cx="159.5" cy="207" r="7.5"/><circle cx="207.5" cy="207" r="7.5"/><circle cx="63" cy="207" r="7.5"/><circle cx="111.5" cy="207" r="7.5"/><circle cx="159.5" cy="144" r="7.5"/><circle cx="111.5" cy="144" r="7.5"/><circle cx="88" cy="175.5" r="7.5"/><path d="M487.5 224h-71.392c-4.143 0-7.5 3.358-7.5 7.5s3.357 7.5 7.5 7.5H487.5c4.687 0 8.5 3.813 8.5 8.5v2.446a8.474 8.474 0 01-7.103 8.385l-226.631 37.771a7.5 7.5 0 00-6.267 7.398v40c0 31.154-25.346 56.5-56.5 56.5h-128C40.346 400 15 374.654 15 343.5V239h364.326c4.143 0 7.5-3.358 7.5-7.5s-3.357-7.5-7.5-7.5H268.581c-4.269-10.311-15.456-35.376-32.9-60.749C205.433 119.255 170.791 96 135.5 96s-69.933 23.255-100.181 67.251C13.056 195.635.98 227.525.478 228.867c-.015.04-.023.081-.037.121a7.54 7.54 0 00-.19.62c-.019.073-.04.146-.056.219-.05.219-.088.441-.119.666-.008.059-.021.118-.027.177a7.34 7.34 0 00-.049.83v112C0 382.925 32.075 415 71.5 415h128c39.425 0 71.5-32.075 71.5-71.5v-33.646l220.364-36.727A23.428 23.428 0 00511 249.946V247.5c0-12.958-10.542-23.5-23.5-23.5zm-352-113c61.131 0 103.635 83.529 116.725 113H18.768C31.837 194.529 74.29 111 135.5 111z"/></svg>