<svg xmlns="http://www.w3.org/2000/svg" viewBox="0 0 36.7 36.7"><path d="M35.7 3.7c-1.5.9-3.1 1.5-4.8 1.9-1.4-1.5-3.3-2.4-5.5-2.4-4.2 0-7.5 3.5-7.5 7.7 0 .6.1 1.2.2 1.8-6.3-.4-11.8-3.5-15.5-8.2-.6 1.1-1 2.5-1 3.9 0 2.7 1.3 5 3.4 6.4-1.2 0-2.4-.4-3.4-1v.2c0 3.7 2.6 6.9 6 7.6-.6.2-1.3.3-2 .3-.5 0-1 0-1.4-.1 1 3.1 3.7 5.3 7 5.4-2.6 2.1-5.8 3.3-9.4 3.3-.6 0-1.2 0-1.8-.1 3.3 2.2 7.3 3.5 11.5 3.5 13.9 0 21.4-11.8 21.4-22v-1c1.5-1.1 2.8-2.4 3.8-4-1.3.6-2.8 1-4.3 1.2 1.5-1.1 2.7-2.6 3.3-4.4" fill="#b3b3b3"/></svg>