<svg version="1.1" id="_x31_" xmlns="http://www.w3.org/2000/svg" x="0" y="0" viewBox="0 0 16 15.2" xml:space="preserve"><style>.st0{fill:#c6f7ff}</style><path class="st0" d="M2.3 9.3c0 .2.1.4.1.6 0 .8.1 2.1.1 2.1H3s0-2.1-.3-3.2c-.3-1.2-.4-3.4.3-5l-.5-.2s-.6 1.2-.6 3.1c0 1.2.1 1.7.2 2.2C1.7 8.6.6 7.6.7 5.5.9 3.1 3 .9 3 .9s3.7 3.5.4 7.4l.4.3S5.3 6.9 5.3 5c0-1.9-.8-3.5-2.3-4.8C3 .2.4 2.7.2 5.7c-.1 2.8 2 3.8 2 3.8l.1-.2z"/><path class="st0" d="M7.5 6.7C3.8 7.8 4 11.4 4.1 12.2c-1.3 1.3-1.9 2.5-1.9 2.5l.4.2c3.8-6.3 9.7-5.1 9.7-5.1v-.5c-3.6-.4-6.1 1-7.8 2.4-.1-1.3.5-4.4 4.3-4.7 4.4-.1 6.5 2.5 6.5 2.5-2.3 3.7-4.9 4.2-6.5 4.4C7.1 14.2 5 13 5 13l-.2.4s1.8 1.2 4.1 1c5-.6 6.9-5 6.9-5-.5-1-4.2-3.7-8.3-2.7z"/></svg>