<svg version="1.1" id="_x31__2_" xmlns="http://www.w3.org/2000/svg" x="0" y="0" viewBox="0 0 18.2 14.8" xml:space="preserve"><style>.st0{fill:#c6f7ff}</style><path class="st0" d="M2.9 5.7l1-.8H4c.3 0 .5-.2.5-.5 0-.2-.1-.3-.2-.4V1.9h-.5V4c-.2.1-.3.2-.3.4v.1l-1 .8.4.4z"/><path class="st0" d="M18.1 11.1V7.9c0-1-.4-1.4-.4-1.4s-1-1.3-1.6-2.1-1.4-.8-1.4-.8h-3.4v-.5c0-.7-.5-1.2-1.2-1.2H7.2C6.5.9 5.3.2 4 .2 1.8.2.1 2 .1 4.2c0 .9.3 1.7.8 2.4V11c0 .7.5 1.2 1.2 1.2h.5v.1c0 1.2 1 2.2 2.2 2.2 1.2 0 2.2-1 2.2-2.2v-.1h5v.1c0 1.2 1 2.2 2.2 2.2 1.2 0 2.2-1 2.2-2.2v-.1h.2c1.7.1 1.5-1.1 1.5-1.1zm-.5-3.5v.3h-3.9c-.2 0-.4-.2-.4-.4V5.9c0-.2.2-.4.4-.4h2.6c.3.3.6.7.8 1 .5.6.5 1.1.5 1.1zM4 .8c1.9 0 3.5 1.5 3.5 3.5S5.9 7.7 4 7.7.6 6.1.6 4.2 2.1.8 4 .8zM4.7 14c-.9 0-1.6-.7-1.6-1.6s.7-1.6 1.6-1.6 1.6.7 1.6 1.6S5.6 14 4.7 14zm2-2.3c-.3-.8-1.1-1.5-2-1.5-.9 0-1.7.6-2 1.5H2c-.3 0-.6-.3-.6-.6v-4c.7.6 1.6 1 2.6 1 2.2 0 3.9-1.8 3.9-3.9 0-.6-.2-1.2-.4-1.7h2.6c.3 0 .6.3.6.6v8c0 .3-.3.6-.6.6H6.7zm7.4 2.3c-.9 0-1.6-.7-1.6-1.6s.7-1.6 1.6-1.6 1.6.7 1.6 1.6S15 14 14.1 14zm2.5-2.2h-.4c-.3-.9-1.1-1.5-2-1.5-1 0-1.8.6-2 1.5h-1c.2-.2.3-.4.3-.7V4h3.1c.9 0 1.3.6 1.3.6s-.1.2.1.4h-2.3c-.5 0-.8.4-.8.8v1.6c0 .5.4.8.8.8h4v2.6c-.1 1.1-1.1 1-1.1 1z"/></svg>