<svg height="512" viewBox="0 0 60 60" width="512" xmlns="http://www.w3.org/2000/svg"><path d="M.47 53.848C9.168 59.285 8.592 59 9 59s-.1.239 8-4.821C25.117 59.252 24.6 59 25 59s0 .177 6.54-3.912a1.002 1.002 0 00-1.061-1.7L25 56.821l-7-4.375v-6.892l3.651-2.286a1.002 1.002 0 00-1.062-1.7L17 43.82l-7-4.374v-6.892l7-4.374c3.9 2.443 3.643 2.316 3.922 2.373a1 1 0 00.729-1.821L18 26.446v-6.892l7-4.375 7 4.375V21a1 1 0 002 0v-1.446l7-4.375 7 4.375V27a1 1 0 002 0v-8a1 1 0 00-.47-.848L42 13.446V6a1 1 0 00-.47-.848l-8-5a1 1 0 00-1.06 0L25 4.821 17.53.152a1 1 0 00-1.06 0l-8 5A1 1 0 008 6v7.446L.47 18.152A1 1 0 000 19v8a1 1 0 00.47.848L8 32.554v6.892L.47 44.152A1 1 0 000 45v8a1 1 0 00.47.848zM33 2.179l7 4.375v6.892l-7 4.375-7-4.375V6.554zm-16 0l7 4.375v6.892l-7 4.375-7-4.375V6.554zM2 19.554l7-4.375 7 4.375v6.892l-7 4.375-7-4.375zm0 26l7-4.375 7 4.375v6.892l-7 4.375-7-4.375z"/><path d="M46 30.012V29a5.987 5.987 0 00-2.1-4.553l1-2a1 1 0 00-1.79-.892l-.927 1.861a5.925 5.925 0 00-4.356 0l-.927-1.862a1 1 0 10-1.79.892l1 2A5.987 5.987 0 0034 29v1.009C33.09 30 32.1 30 31 30c-5.312 0-11 2.411-11 6 0 4.308 8.125 6.579 12.167 5.891-.092.8-.167 1.89-.167 2.609 0 7 3 12.581 7 13.389V59a1 1 0 002 0v-1.111c4-.808 7-6.393 7-13.389 0-.715-.076-1.812-.166-2.6C51.929 42.577 60 40.3 60 36c0-3.589-5.688-6-11-6-1.05 0-2.061 0-3 .012zM36 29a4 4 0 118 0v1.052a12.671 12.671 0 00-3.993.576A11.966 11.966 0 0036 30.049zm4.006 6.381A13.316 13.316 0 0041.727 38H38.27a14.211 14.211 0 001.736-2.619zM22 36c0-1.8 4.153-4 9-4 2 0 6.731-.036 7.973.358C38.631 34.763 35.146 40 31 40c-4.847 0-9-2.2-9-4zm14.214 4h7.555c.606.479 1.262.89 1.957 1.225.04.257.075.516.106.775H39a1 1 0 000 2h6.977c.044.667.031 1.336-.037 2H34.06a12.533 12.533 0 01-.037-2H35a1 1 0 000-2h-.832c.032-.265.067-.53.109-.793.688-.33 1.337-.735 1.937-1.207zM35.5 52H40a1 1 0 000-2h-5.241a18.416 18.416 0 01-.46-2H45.7c-.116.675-.27 1.342-.46 2H44a1 1 0 000 2h.5c-2.434 5.33-6.567 5.328-9 0zM58 36c0 2.487-7.435 4.99-10.992 3.61a11.025 11.025 0 01-5.978-7.237c1.437-.433 5.77-.358 7.97-.373 4.847 0 9 2.2 9 4z"/></svg>