<svg xmlns="http://www.w3.org/2000/svg" viewBox="0 0 512.001 512.001"><path d="M242.488 120.593c-3.526-4.394-9.945-5.097-14.337-1.571-5.263 4.224-11.622 6.457-18.39 6.457-6.768 0-13.127-2.232-18.39-6.457-4.392-3.527-10.811-2.823-14.337 1.571-3.526 4.392-2.823 10.811 1.571 14.337 8.795 7.058 19.859 10.946 31.156 10.946 11.297 0 22.361-3.888 31.156-10.946 4.394-3.526 5.097-9.944 1.571-14.337z"/><path d="M504.631 264.492c-8.163-22.526-22.391-41.812-41.147-55.774-13.269-9.878-28.419-16.679-44.683-20.203 3.462-32.092-6.464-65.395-27.393-90.697-22.63-27.358-55.115-42.424-91.47-42.424h-5.942c-25.451 0-50.164 9.038-71.469 26.135-3.653 2.932-8.068 4.482-12.766 4.482s-9.113-1.55-12.766-4.482c-21.304-17.099-46.018-26.135-71.469-26.135h-5.942c-26.268 0-50.843 7.958-71.069 23.014C29.76 92.37 15.532 111.657 7.369 134.182c-8.129 22.435-9.564 46.232-4.149 68.822 5.843 24.371 19.547 46.11 39.632 62.866a261.144 261.144 0 0049.861 32.725c-.727 11.66.258 23.342 2.985 34.719 5.843 24.371 19.547 46.11 39.632 62.866 46.708 38.966 105.984 60.427 166.909 60.427s120.202-21.459 166.909-60.427c20.085-16.756 33.789-38.495 39.631-62.866 5.416-22.588 3.982-46.387-4.148-68.822zM95.972 277.276a240.883 240.883 0 01-40.053-27.067c-39.007-32.542-40.749-77.682-29.372-109.077 11.446-31.588 41.898-65.34 93.039-65.34h5.942c20.758 0 41.057 7.485 58.702 21.646 7.208 5.786 16.276 8.971 25.533 8.971s18.325-3.186 25.533-8.971c17.644-14.162 37.944-21.646 58.702-21.646h5.942c30.165 0 57.068 12.44 75.754 35.029 17.351 20.974 25.637 48.509 22.887 75.049a128.576 128.576 0 00-6.163-.165h-5.942c-25.451 0-50.164 9.038-71.469 26.135-3.653 2.932-8.067 4.481-12.766 4.481s-9.113-1.55-12.766-4.481c-21.305-17.099-46.018-26.135-71.469-26.135h-5.942c-26.268 0-50.843 7.958-71.069 23.014-18.756 13.962-32.985 33.249-41.147 55.774a124.227 124.227 0 00-3.876 12.783zm360.11 103.242c-43.047 35.914-97.683 55.692-153.843 55.692s-110.796-19.779-153.843-55.692c-39.007-32.541-40.749-77.682-29.373-109.077 11.447-31.588 41.898-65.34 93.039-65.34h5.942c20.758 0 41.057 7.485 58.702 21.646 7.208 5.785 16.276 8.971 25.533 8.971s18.324-3.186 25.533-8.971c17.645-14.161 37.944-21.646 58.702-21.646h5.942c51.141 0 81.592 33.753 93.039 65.34 11.376 31.395 9.633 76.536-29.373 109.077z"/><path d="M333.342 249.52c-3.526-4.393-9.944-5.096-14.337-1.571-5.263 4.224-11.622 6.457-18.39 6.457-6.768 0-13.126-2.232-18.39-6.457-4.392-3.526-10.811-2.823-14.337 1.571-3.526 4.392-2.823 10.811 1.571 14.337 8.795 7.058 19.86 10.946 31.156 10.946s22.361-3.887 31.156-10.946c4.393-3.525 5.097-9.944 1.571-14.337zm78.732 135.412c-2.57-5.011-8.718-6.991-13.729-4.419-29.909 15.341-62.244 23.12-96.106 23.12-5.633 0-10.198 4.566-10.198 10.198 0 5.633 4.566 10.198 10.198 10.198 37.131 0 72.598-8.535 105.415-25.369 5.011-2.57 6.99-8.717 4.42-13.728zm39.534-28.871c-3.608-4.327-10.038-4.909-14.363-1.3a214.734 214.734 0 01-7.237 5.774c-4.479 3.417-5.34 9.816-1.924 14.294a10.18 10.18 0 008.116 4.014c2.157 0 4.33-.681 6.177-2.09a231.852 231.852 0 007.932-6.329c4.325-3.608 4.907-10.039 1.299-14.363z"/></svg>