<svg xmlns="http://www.w3.org/2000/svg" viewBox="0 0 442.326 442.326"><path d="M430.024 68.87l-56.568-56.568C365.523 4.369 354.976 0 343.757 0c-11.218 0-21.766 4.369-29.699 12.302a41.962 41.962 0 00-12.3 30.598 41.91 41.91 0 00-30.597 12.301 41.949 41.949 0 00-12.3 30.598c-11.206-.274-22.305 4.008-30.598 12.3a41.962 41.962 0 00-12.3 30.597c-11.214-.228-22.305 4.008-30.597 12.301h-.001L45.358 281.003l-.023.023-42.279 42.278a9.955 9.955 0 00-2.729 4.671 9.952 9.952 0 00.556 6.629l.002.003c.214.475.463.93.746 1.362a9.968 9.968 0 005.583 4.135l.019.005c.01.005.016.006.023.007l34.258 9.789 9.789 34.258a10 10 0 006.868 6.868l34.254 9.785 9.787 34.255a.328.328 0 00.006.022l.003.01.003.013.004.013.001.005a9.963 9.963 0 005.436 6.284l.012.005a9.978 9.978 0 004.144.904c.909 0 1.834-.125 2.752-.388a9.95 9.95 0 004.451-2.671l42.276-42.276a.25.25 0 00.023-.023l60.658-60.658a10 10 0 0014.142 0l72.278-72.278c3.905-3.905 3.905-10.237 0-14.143l-.85-.85a41.99 41.99 0 006.08-22.677 42 42 0 0030.597-12.3 41.949 41.949 0 0012.3-30.598c11.2.261 22.305-4.008 30.598-12.3a41.95 41.95 0 0012.3-30.598c11.205.209 22.305-4.009 30.597-12.301 7.933-7.933 12.302-18.479 12.302-29.698.001-11.217-4.368-21.764-12.301-29.698zM116.773 413.234l-6.644-23.255a10 10 0 00-6.868-6.868l-34.254-9.785-9.789-34.258a10 10 0 00-6.868-6.868l-23.259-6.646 23.338-23.338 87.681 87.682-23.337 23.336zm118.18-104.038L211.46 200.459c-1.167-5.398-6.488-8.825-11.886-7.662-5.398 1.166-8.829 6.488-7.663 11.886l23.703 109.71-61.362 61.362-87.681-87.681 125.865-125.865 94.752 94.752-52.235 52.235zm180.93-195.071a21.985 21.985 0 01-25.349 4.145 10 10 0 00-13.406 13.406 21.98 21.98 0 01-4.144 25.348 21.978 21.978 0 01-25.348 4.144 9.999 9.999 0 00-13.406 13.406 21.98 21.98 0 01-4.144 25.348 21.98 21.98 0 01-25.348 4.144 10 10 0 00-13.406 13.406 21.972 21.972 0 011.231 16.581l-84.289-84.289a21.97 21.97 0 0116.58 1.231 9.999 9.999 0 0013.406-13.406 21.978 21.978 0 014.144-25.348 21.974 21.974 0 0125.348-4.143 9.999 9.999 0 0013.406-13.406 21.981 21.981 0 014.144-25.349 21.981 21.981 0 0125.348-4.144 10 10 0 0013.406-13.406 21.976 21.976 0 014.144-25.348 21.857 21.857 0 0115.556-6.444 21.857 21.857 0 0115.556 6.444l56.569 56.568a21.857 21.857 0 016.444 15.557 21.854 21.854 0 01-6.442 15.555z"/></svg>