<svg height="512pt" viewBox="-85 0 512 512.002" width="512pt" xmlns="http://www.w3.org/2000/svg"><path d="M244.648 305.39c9.782 15.598 25.305 24.067 41.856 24.067 7.695 0 15.613-1.828 23.297-5.625l29.816-10.52-19.879-24.57c-8.297-13.234-20.761-21.137-34.441-23.289 10.367-.676 20.664-4.59 29.629-12.148l26.437-17.325-25.18-19.132c-5.73-5.551-12.23-9.348-19.023-11.77 5.668-4.328 10.61-9.953 14.38-16.894l18.269-25.774-30.391-8.62c-11.914-4.977-24.063-5.356-34.934-1.927 7.72-6.164 13.704-14.785 16.934-25.441l12.727-28.942-31.528-2.32c-26.512-5.14-50.187 9.086-58.015 34.918l-10.153 23.117a174.082 174.082 0 00-20.52-20.03l24.407-12.958c25.172-9.71 37.644-34.422 30.512-60.45l-4.645-31.26-27.918 14.82c-25.172 9.718-37.644 34.43-30.508 60.456l3.832 25.829c-8.379-6.477-17.414-12.137-26.953-16.98l11.934-21.696c15.75-21.914 12.652-49.418-7.559-67.29L126.008 0l-15.235 27.684c-15.742 21.914-12.644 49.421 7.579 67.304l9.953 11.18c-2.196-.867-4.34-1.809-6.578-2.586-3.872-1.332-7.91.207-10.172 3.395l-16.36-18.809C80.04 65.859 53.16 59.281 29.41 72.094L0 83.676l20.746 23.84c9.98 14.707 25.043 22.57 40.953 22.57 2.664 0 5.356-.305 8.047-.754-12.723 4.934-23.144 15.074-28.555 29.5l-14.55 28.07 31.308 4.328c4.723 1.243 9.414 1.844 13.965 1.844 8.137 0 15.813-1.988 22.64-5.597-2.472 7.414-3.425 15.55-2.175 24.171l.773 31.598 29.52-11.285c2.445-.613 4.695-1.504 6.945-2.395-.73 2.422-1.43 4.868-1.836 7.477l-8.547 30.426 31.536-2.114c.394.02.761-.054 1.168-.042a52.681 52.681 0 00-12.598 16.722l-16.992 26.645 30.804 7.101c3.61 1.305 7.2 2.098 10.782 2.617-13.184 1.11-25.73 7.516-35.016 19.235l-22.453 22.246 28.453 13.73c8.883 5.688 18.46 8.454 27.836 8.454 14.617 0 28.746-6.723 38.96-19.602l1.243-1.234c-28.098 67.875-88.582 117.703-168.316 132.93a9.006 9.006 0 00-7.153 10.53A9.01 9.01 0 0036.316 512c.567 0 1.125-.05 1.692-.16 81.086-15.48 143.691-64.192 176.008-131.113l-1.243 26.476c-4.464 26.613 10.442 49.938 36.465 57.067l29.258 11.921 1.477-31.558c4.46-26.621-10.442-49.945-36.465-57.063l-27.332-11.16c4.922-10.754 8.933-22.023 12.265-33.62l3.805 13.44c4.192 26.649 25.684 44.133 52.652 42.579l31.543 2.05-8.601-30.406c-4.192-26.668-25.89-44.144-52.656-42.578l-22.649-1.465c2.106-9.883 3.68-19.988 4.598-30.332zM203.16 59.935l6.965-3.618.98 6.625.243 1.141c4.941 17.297-3.067 33.164-19.914 39.465l-6.965 3.617-.985-6.617-.242-1.14c-4.941-17.298 3.07-33.165 19.918-39.473zM125.63 37.84l3.863-6.856 4.453 5.012.836.82c13.598 11.778 15.578 29.434 4.942 43.926l-3.864 6.856-4.445-5.004-.836-.82c-13.598-11.778-15.586-29.434-4.95-43.934zm104.969 371.933l.441-7.847 6.191 2.523 1.118.367c17.394 4.575 26.96 19.547 23.8 37.258l-.441 7.848-6.2-2.52-1.097-.37c-17.402-4.579-26.973-19.548-23.812-37.259zm24.558-63.855l.586-.04c17.863-1.257 31.758 10 34.367 27.794l2.063 7.586-7.266-.469-.582.035c-17.836 1.332-31.761-9.988-34.37-27.789l-2.06-7.586zm-17.07-69.8c.035-2.583.242-5.114.207-7.723-.137-8.81-.953-17.485-2.32-26.008l11.277 8.57c7.918 7.668 17.215 12.266 26.852 13.95a52.922 52.922 0 00-19.52 5.39zm-12.574-71.716l22.14 6.274c1.375.574 2.762 1.05 4.149 1.512-1.09.789-2.242 1.43-3.293 2.32l-16.192 10.617a178.035 178.035 0 00-6.804-20.723zm79.207 94.258l4.875 6.164-6.309 2.223-1.07.469c-16.047 8.117-33.145 3.293-42.54-12.043l-4.886-6.16 6.309-2.223 1.07-.469c16.055-8.129 33.144-3.293 42.55 12.04zm5.453-63.777l-5.59 3.672-.934.703c-13.652 11.754-31.39 11.125-44.18-1.531l-6.198-4.813 5.585-3.664.938-.703c13.645-11.75 31.398-11.121 44.176 1.523zm-17.324-64.336l7.539 2.215-3.867 5.453-.614.988c-8.422 15.902-25.18 21.797-41.703 14.688l-7.523-2.207 3.87-5.454.614-.988c8.402-15.91 25.16-21.832 41.684-14.695zm-71.555-33.766l.398-1.097c5.04-17.262 20.22-26.457 37.875-22.786l7.829.649-2.688 6.129-.406 1.097c-5.04 17.27-20.293 26.43-37.867 22.786l-7.84-.649zm2.105 24.532a56.255 56.255 0 0010.7 1.054c5.273 0 10.332-.828 15.093-2.332a52.653 52.653 0 00-13.652 16.246L221.762 195.7c-5.934-12.941-13.32-25.07-22.04-36.133zm-23.074 31.714l-19.976 1.34c-7.723-.387-14.903.918-21.457 3.387 1.945-6.84 2.62-14.238 1.496-22.031l-.766-31.086c16.656 13.12 30.461 29.636 40.703 48.39zM35.402 97.06l-5.093-5.985 6.226-2.445 1.055-.504c15.73-8.723 32.992-4.484 42.937 10.488l5.09 5.985-6.226 2.449-1.051.504c-15.73 8.71-32.992 4.48-42.938-10.492zm51.125 26.53l23.688-9.343c.719 2.836 2.652 5.309 5.625 6.344 15.883 5.508 30.433 13.61 43.348 23.695l-29.102 11.121c-4.356 1.09-8.29 2.782-12.016 4.727 0 0 .012-.008.012-.016l14.55-28.05-31.308-4.34c-7.351-1.934-14.535-2.16-21.347-1.141a55.999 55.999 0 006.55-2.996zm-24.414 50.134l-7.777-1.16 3.086-5.942.476-1.07c6.13-16.91 21.915-25.078 39.258-20.309l7.774 1.16-3.086 5.93-.477 1.082c-6.137 16.899-21.93 25.05-39.254 20.309zm55.77 40.882l-7.371 2.739-.164-6.688-.106-1.168c-2.773-17.773 7.125-32.523 24.613-36.71l7.368-2.735.164 6.687.11 1.168c2.776 17.774-7.122 32.524-24.614 36.707zm32.828 32.715l-7.262.485 1.809-6.434.23-1.152c2.457-16.973 15.11-27.934 31.844-27.934.816 0 1.645.028 2.473.082l.586.035 7.261-.484-1.808 6.445-.235 1.153c-2.574 17.797-16.171 29.039-34.312 27.851zm52.621-24.64l4.184-14.895c6.922 16.442 11.132 34.242 12.34 52.727l-17.864-4.121c-5.113-1.844-10.207-2.692-15.219-2.996 8.594-7.461 14.586-17.98 16.559-30.715zm-52.117 74.191l3.59-5.644.566-1.024c7.613-16.3 24.055-23.023 40.902-16.742l7.653 1.848-3.594 5.64-.566 1.016c-7.614 16.308-24.082 23.058-40.91 16.742zm37.41 53.195l-.773.883c-11.043 14.207-28.555 17.14-43.602 7.278l-7.047-3.48 4.762-4.708.773-.883c11.032-14.21 28.543-17.144 43.602-7.281l7.047 3.484zm7.074-23.578c-6.535-4.187-13.453-6.605-20.383-7.695 17.106-1.371 32.278-11.52 40.504-28.656l4.086-6.407c-.793 17.575-3.43 34.52-7.8 50.676zm0 0"/></svg>