<svg xmlns="http://www.w3.org/2000/svg" viewBox="0 0 22.3 18.9"><path d="M17.4 3.1c-2.1 0-4.8 1.5-4.7 4.6 0 0-4.1-1.3-5.3 3 0 0-.7-1.5-1.6-2.2-1-.7-2.2-2.5-2.3-3.4.1-.5.2-.5.4-.6.1 0 .1.8 1 .9.8-.1 1-.3 1.3-.7l.9-1s.9-1.2.1-1.8c-.7-.7-2-2-3.6-1.7-.9.2-1.6.9-1.6.9L.8 2.2S0 3 0 4.6C0 6 .3 8.3.3 8.3l.4 2.4c.1.6.9 4.1 2.8 6 1.2 1.4 1.9 2 2.5 2.1 1 0 1.5-.6 2.3-.6.8 0 1.6.6 3.3.6s5.5-1 7.1-5.9c1.5-.6 3.6-1.7 3.6-5s-2.9-4.8-4.9-4.8zm.7 9.2c-1.1 4.4-4.6 5.6-6.3 5.8-1.6 0-2.5-.6-3.7-.6-.7 0-1.7.6-2 .6S5 17.4 4 16.3s-1.4-2.1-1.8-2.9c-.4-.8-1.1-4-1.1-4S.8 6.2.8 4.8c0-1.3.6-2.1.6-2.1L3 1.3c.9-.7 2-.2 2-.2s1.1.7 1.5 1.1c.5.4 0 .8 0 .8S5.4 4.4 5 4.5c-.5.1-.6-1.1-.6-1.1-.5.2-1.3.4-1.6 1.3-.3 1.1 1.3 3.4 2.5 4.5 1.1 1.1 1.8 2.9 1.8 2.9l.9-.3s-.1-2.1 1.7-3.2c2-1.1 3.8.4 3.8.4-.6-5 3.8-5.1 4.1-5.1s3.8.3 4.1 3.8c-.2 4-3.6 4.6-3.6 4.6z"/></svg>