<svg xmlns="http://www.w3.org/2000/svg" viewBox="0 0 512 512"><path d="M376 16c-5.52 0-10 4.48-10 10s4.48 10 10 10 10-4.48 10-10-4.48-10-10-10zm126 460h-56.324c2.121-3.656 3.324-7.885 3.324-12.43v-23.43c0-3.558 2.641-6.14 6.28-6.14h30.15c14.651 0 26.57-12.108 26.57-26.99 0-28.472-11.083-55.235-31.208-75.361-16.923-16.922-45.361-4.599-45.361 18.791a6.577 6.577 0 01-6.57 6.57h-30.15c-3.303 0-6.53.635-9.536 1.797l-3.076-8.458c-1.227-3.37.472-7.166 3.921-8.422l22.021-8.01c13.797-5.021 20.901-20.253 15.877-34.056l-8.012-22.025a6.56 6.56 0 013.926-8.41c22.262-8.105 23.587-39.041 2.142-49.051-25.808-12.025-54.746-13.287-81.483-3.552-13.796 5.02-20.913 20.251-15.886 34.06l8.019 22.007a6.573 6.573 0 01-3.933 8.423l-13.574 4.94c.065-6.889-2.52-13.799-7.765-19.044l-16.56-16.56a6.575 6.575 0 010-9.298l16.56-16.56c10.361-10.362 10.361-27.221 0-37.583C291.226 167.083 264.465 156 236 156c-23.892 0-35.353 28.788-18.792 45.351a6.581 6.581 0 010 9.298l-16.56 16.56c-10.383 10.383-10.383 27.198 0 37.583l16.56 16.56a6.581 6.581 0 010 9.298l-6.16 6.16c-2.887-3.3-6.585-5.921-10.879-7.486l-22.01-8.01a6.538 6.538 0 01-3.712-3.401 6.525 6.525 0 01-.223-5.019l8.021-22.014c5.021-13.795-2.083-29.033-15.886-34.056-26.738-9.735-55.677-8.474-81.491 3.555-21.436 10.005-20.115 40.942 2.149 49.048 3.364 1.225 5.181 4.96 3.923 8.415l-8.009 22.019c-5.022 13.798 2.073 29.034 15.878 34.058l22.018 8.009c3.403 1.239 5.163 5.017 3.924 8.422l-3.075 8.445a26.747 26.747 0 00-9.538-1.784h-29a6.577 6.577 0 01-6.57-6.57c0-23.44-28.47-35.682-45.361-18.791C11.375 351.483 0 379.104 0 407.43 0 422.081 11.919 434 26.57 434h29c3.726 0 6.43 2.583 6.43 6.14v23.43c0 4.491 1.141 8.723 3.147 12.43H10c-5.523 0-10 4.477-10 10s4.477 10 10 10h492c5.523 0 10-4.477 10-10s-4.477-10-10-10zm-373.207-.001c-4.725-3.85-10.578-5.999-16.653-5.999H88.71c-3.7 0-6.71-2.885-6.71-6.43v-23.43C82 425.482 70.391 414 55.57 414h-29a6.577 6.577 0 01-6.57-6.57c0-23.062 9.24-45.528 25.351-61.639 4.137-4.139 11.219-1.239 11.219 4.648 0 14.651 11.919 26.57 26.57 26.57l29-.1c1.979 0 3.876.982 5.19 2.451a10.05 10.05 0 001.224 1.958c.287.717.446 1.468.446 2.251v23.44c0 14.882 11.789 26.99 26.28 26.99h23.43c3.645 0 6.29 2.583 6.29 6.14v23.43c0 4.491 1.147 8.723 3.162 12.43h-49.369zm96.488-5.997h-23.44c-3.708 0-6.84-2.945-6.84-6.43v-23.43c0-14.658-11.548-26.14-26.29-26.14h-23.43c-3.404 0-6.28-3.201-6.28-6.99v-23.44c0-3.172-.583-6.295-1.696-9.234l6.243-17.146c5.011-13.769-2.111-29.046-15.878-34.058l-22.02-8.011c-3.403-1.238-5.163-5.017-3.922-8.425l8.008-22.015c5.027-13.793-2.075-29.027-15.875-34.05-5.486-1.997-5.869-9.64-.537-12.129 20.968-9.77 44.477-10.795 66.196-2.887 3.408 1.24 5.172 5.019 3.935 8.419l-8.021 22.014c-2.428 6.67-2.111 13.886.892 20.32 3.001 6.431 8.327 11.31 14.996 13.737l22.005 8.009a6.594 6.594 0 013.755 3.526c-6.598 10.282-5.404 24.177 3.568 33.15l16.56 16.56a6.575 6.575 0 010 9.298l-16.56 16.56c-10.361 10.361-10.361 27.221 0 37.583l26.237 26.237a26.41 26.41 0 00.288 17.364l.633 1.739a25.915 25.915 0 00-2.527-.131zm14.597-34.263L214.79 410.65a6.581 6.581 0 010-9.298l16.56-16.56c10.361-10.362 10.361-27.221 0-37.583l-16.56-16.56c-2.552-2.551-2.564-6.71 0-9.298l16.56-16.56c10.362-10.361 10.362-27.221.001-37.582-15.212-16.009-18.483-16.525-18.483-21.209 0-1.757.683-3.409 1.924-4.649l16.56-16.56c10.361-10.362 10.361-27.221 0-37.583C227.23 183.088 230.105 176 236 176c23.124 0 44.861 9.003 61.208 25.351a6.575 6.575 0 010 9.298l-16.56 16.56c-10.361 10.361-10.361 27.221 0 37.583l16.56 16.56a6.581 6.581 0 010 9.298l-16.56 16.56c-10.361 10.361-10.361 27.221 0 37.583l11.481 11.481-15.26 5.56c-6.668 2.427-11.994 7.304-14.995 13.734-3.004 6.434-3.32 13.649-.891 20.315l8.019 22.018c1.239 3.405-.522 7.184-3.921 8.423l-22.015 8.008c-1.098.399-2.16.873-3.188 1.407zm59.08-100.924l-4.166-4.167a6.57 6.57 0 01-.486-8.751c.45 1.498.376 1.124 4.652 12.918zm34.537 94.872l8.01 22.021c1.23 3.38-.48 7.17-3.921 8.422l-22.021 8.01a26.393 26.393 0 00-11.21 7.857H251.23l-5.265-14.454a6.56 6.56 0 013.933-8.419l22.025-8.012c13.762-5.015 20.882-20.292 15.872-34.058l-8.021-22.021a6.504 6.504 0 01.222-5.009 6.544 6.544 0 013.716-3.402l22.021-8.024a26.512 26.512 0 009.015-5.517c.042-.039.08-.082.122-.122.088-.085.173-.171.258-.259a26.53 26.53 0 006.477-28.146l-8.019-22.018a6.572 6.572 0 013.933-8.423l22.011-8.006c13.794-5.02 20.913-20.25 15.886-34.061l-8.019-22.006a6.57 6.57 0 013.935-8.423c21.718-7.908 45.227-6.882 66.189 2.885 5.302 2.474 4.998 10.118-.531 12.131-13.785 5.018-20.906 20.247-15.877 34.045l8.011 22.021c1.24 3.406-.52 7.185-3.921 8.423l-22.022 8.01c-13.798 5.022-20.9 20.255-15.876 34.057l6.966 19.14a10.037 10.037 0 001.386 4.316 6.543 6.543 0 01-4.267 6.978l-22.018 8.019c-13.785 5.017-20.906 20.246-15.877 34.045zM429 440.14v23.43c0 3.731-3.556 5.43-6.86 5.43h-23.43c-5.917 0-11.764 2.456-16.837 7h-31.687c9.803-6.581 14.412-19.311 10.111-31.128l-8.012-22.025a6.56 6.56 0 013.927-8.41l22.018-8.019c12.199-4.44 18.892-16.667 17.241-28.561.966-.547 2.073-.946 3.239-.946h30.15c14.651 0 26.57-11.819 26.57-26.47 0-5.905 7.098-8.771 11.219-4.648C482.997 362.139 492 383.88 492 407.01c0 3.724-3.07 6.99-6.57 6.99h-30.15c-14.736 0-26.28 11.482-26.28 26.14zM306 36c-22.056 0-40 17.944-40 40s17.944 40 40 40 40-17.944 40-40-17.944-40-40-40zm0 60c-11.028 0-20-8.972-20-20s8.972-20 20-20 20 8.972 20 20-8.972 20-20 20z"/><path d="M356 136c-16.542 0-30 13.458-30 30s13.458 30 30 30 30-13.458 30-30-13.458-30-30-30zm0 40c-5.514 0-10-4.486-10-10s4.486-10 10-10 10 4.486 10 10-4.486 10-10 10z"/></svg>