<svg height="511pt" viewBox="-34 0 511 511.996" width="511pt" xmlns="http://www.w3.org/2000/svg"><path d="M437.5 216.418l-3.777-15.113-14.063 11.379c-5.05-14.032-10.324-22.489-12.75-25.938l-2.695-3.836-4.66-.355c-3.121-.23-9.965-.43-19.774.804l6.2-18.972-17.34 4.222c-4.829 1.176-10.157 2.696-15.864 4.582 0-.027.012-.046.012-.078 2.207-114.187-45.875-164.87-51.36-170.277-.097-.098-.238-.121-.347-.211-.121-.11-.168-.258-.289-.355-.656-.547-1.422-.805-2.156-1.153-.367-.168-.664-.437-1.055-.566-1.332-.446-2.723-.645-4.094-.508-.02 0-.031-.012-.05-.012-7.66.785-76.899 10.297-147.032 101.399-3.976 6.132-7.672 12.504-11.242 18.992-31.828-22.832-56.2-28.703-63.371-29.957a9.89 9.89 0 00-8.16 2.238c-3.649 3.121-25.004 22.637-41.988 64.649a9.681 9.681 0 00-.555 1.43C11.05 184.05 2.633 217.253.5 259.788c.773 24.695 4.629 49.82 11.457 74.645 6.797 24.836 16.309 48.398 28.68 70.757 28.613 43.063 54.699 53.786 75.968 53.786 12.668 0 23.622-3.805 32.38-6.836 4.609-1.598 24.585-7.204 27.824-7.95 9.898 20.125 26.992 28.442 39.425 34.465 4.391 2.125 25.598 14.2 29.664 16.883 10.614 7.016 24.895 16.457 44.633 16.457 18.754 0 42.426-8.516 72.54-35.766 16.921-18.02 31.96-38.5 44.679-60.89 12.758-22.38 22.7-45.766 29.742-70.313 11.863-58.812 6.547-102.39.008-128.609zm-64.688-11.785c9.043-1.856 15.973-2.324 20.395-2.383 2.602 4.52 6.45 12.324 9.965 23.77l-50.793 41.105zM269.746 26.605c-7.902 11.825-15.781 25.25-24.266 41.352a9.948 9.948 0 004.153 13.426 9.911 9.911 0 004.62 1.144c3.567 0 7.028-1.93 8.806-5.308 11.23-21.317 21.296-37.684 31.742-51.625 13.484 17.808 39.742 63.273 38.152 146.316a251.7 251.7 0 01-1.152 9.332c-.258.117-.516.246-.785.367a246.193 246.193 0 00-8.082 3.778 270.358 270.358 0 00-5.375 2.71c-1.043.54-2.086 1.087-3.141 1.641-10.117 5.367-20.184 11.52-30.172 18.446-.656.445-1.3.902-1.957 1.359a312.636 312.636 0 00-6.867 4.96c-.953.708-1.91 1.442-2.871 2.165a382.35 382.35 0 00-6.324 4.883c-1.352 1.074-2.711 2.207-4.075 3.32-1.765 1.45-3.547 2.871-5.316 4.371a412.224 412.224 0 00-9.59 8.387 301.833 301.833 0 00-12.324 13.965c-8.227 9.918-15.91 20.472-23.024 31.562l-.03.031a331.38 331.38 0 00-9.302 15.333c-.398.707-.754 1.46-1.152 2.168-3.39 6.039-6.539 12.171-9.512 18.363-.058.12-.136.289-.238.508l-.219.476c-.097.211-.187.43-.297.645h-.011c-.012.011 0 .03-.012.043-.348.722-.664 1.46-1.004 2.187 7.844-63.914 22.184-123.91 42.856-178.52a9.936 9.936 0 00-5.774-12.816c-5.14-1.941-10.875.645-12.812 5.774-21.891 57.828-36.848 121.46-44.7 189.238-1.789-.547-3.496-1.106-5.418-1.64-21.87-6.071-49.082-13.645-47.832-79.942 2.336-23.016 7.594-46.258 15.633-69.09 4.196-11.984 9.383-24.148 15.395-36.152.031-.051.02-.11.05-.157 4.68-9.332 9.692-18.316 15.106-26.703 41.629-54.058 81.89-76.757 107.121-86.297zM170.684 425.18c-3.797.945-21.766 5.93-28.215 8.168-21.457 7.46-48.13 16.742-84.84-38.473-11.2-20.281-20.113-42.383-26.496-65.707-6.418-23.328-10.035-46.879-10.77-69.191 1.88-37.028 8.715-66.125 17.004-88.645C52.312 170.645 67.2 168.578 81.7 165c5.328-1.313 8.586-6.695 7.262-12.023-1.313-5.336-6.738-8.606-12.024-7.266-10.117 2.496-20.453 4.156-30.859 5.117 10.457-21.324 21.32-34.035 26.984-39.742 9.036 2.336 28.504 9.055 53.04 27.172-.297.625-.547 1.262-.836 1.898-1.996 4.332-3.977 8.676-5.793 13.13a312.037 312.037 0 00-6.153 16.05c-8.547 24.297-14.152 49.082-16.707 74.484-1.597 82.504 38.43 93.633 62.34 100.282 4.703 1.312 18.703 7.265 19.043 7.265.078 0 .367-.012.426-.02-.188.548-.348 1.114-.535 1.66-1.867 5.255-3.489 10.227-4.871 15.036-.07.258-.137.527-.2.797a222.589 222.589 0 00-2.511 15.152c-.22 1.653-.309 3.184-.47 4.781-.323 3.153-.636 6.282-.773 9.204-.078 1.558-.07 3.05-.09 4.57-.05 3.02-.03 5.941.11 8.715.059 1.086.129 2.168.219 3.23.285 3.668.734 7.125 1.34 10.367.011.098.023.22.043.32zm247.515-84.864c-6.41 22.243-15.73 44.164-27.719 65.192-11.953 21.031-26.054 40.25-41.32 56.539-49.781 45.02-73.351 29.426-92.305 16.906-5.695-3.77-25.808-15.215-31.96-18.2-12.114-5.87-25.93-12.679-32.489-30.737-.047-.18 0-.356-.07-.536-4.77-13.863-4.809-32.785-.129-56.238 1.234-4.246 2.645-8.476 4.086-12.695a365.8 365.8 0 014.504-12.133c2.644-6.758 5.515-13.336 8.535-19.746.219-.477.508-1.102.527-1.133.008-.012 0-.031.008-.05l.012-.008a290.504 290.504 0 019.937-19.09c0-.012.012-.012.02-.02a323.181 323.181 0 018.746-14.422c3.09-4.82 6.3-9.488 9.59-14.05.031-.04.07-.07.09-.11.02-.027.02-.047.039-.078 7.215-9.969 14.86-19.34 22.851-27.875a352.638 352.638 0 0112.223-10.523c1.18-.977 2.363-1.91 3.547-2.864a340.1 340.1 0 018.785-6.836 268.887 268.887 0 013.61-2.683 297.88 297.88 0 019.113-6.383c.894-.605 1.789-1.242 2.683-1.836 7.922-5.227 15.563-9.723 22.836-13.578 1.485-.781 2.961-1.48 4.453-2.223 2.078-1.043 4.176-2.129 6.192-3.07 2.504-1.176 5.008-2.258 7.523-3.32 4.711-2.008 9.281-3.848 13.543-5.336l-43.058 131.726 108.851-88.097c4.09 24.55 5.602 59.464-3.254 103.507zm0 0"/><path d="M290.297 254.73c-3.078 1.848-75.496 46.41-80.008 136.391-.281 5.484 3.945 10.145 9.418 10.426.172.008.34.008.508.008a9.937 9.937 0 009.918-9.438c3.976-79.156 69.765-119.953 70.422-120.36 4.691-2.831 6.191-8.945 3.36-13.636-2.825-4.703-8.927-6.23-13.618-3.39zm0 0"/></svg>