<svg version="1.1" id="_x31_" xmlns="http://www.w3.org/2000/svg" x="0" y="0" viewBox="0 0 20.6 20.8" xml:space="preserve"><style>.st0{fill:#000}</style><path class="st0" d="M10.3.2C4.7.2.1 4.8.1 10.4s4.6 10.2 10.2 10.2S20.5 16 20.5 10.4 15.9.2 10.3.2zm0 19.6c-5.2 0-9.4-4.2-9.4-9.4S5.1 1 10.3 1s9.4 4.2 9.4 9.4-4.2 9.4-9.4 9.4z"/><path class="st0" d="M10.3 15.7c-3.5 0-5.6-3.1-5.6-3.1l-.7.5c2.8 3.6 6.3 3.5 6.3 3.5s3.5.2 6.3-3.5l-.7-.5s-2.1 3.1-5.6 3.1zm-3.4-4.2C9.3 10.4 9.7 9 9.7 8.3c0-.8-.5-1.7-1.4-1.7-1 0-1.4.5-1.4.5s-.4-.5-1.4-.5c-.9 0-1.4 1-1.4 1.7s.4 2.1 2.8 3.2zm0-3.4c.5-.8 1.9-.9 2 .1 0 1.4-2 2.4-2 2.4s-2-1-2-2.4c.1-1 1.5-.9 2-.1zm6.8 3.4c2.4-1.1 2.8-2.5 2.8-3.1 0-.8-.5-1.7-1.4-1.7-1 0-1.4.5-1.4.5s-.4-.5-1.4-.5c-.9 0-1.4 1-1.4 1.7 0 .6.4 2 2.8 3.1zm0-3.4c.5-.8 1.9-.9 2 .1 0 1.4-2 2.4-2 2.4s-2-1-2-2.4c.1-1 1.5-.9 2-.1z"/></svg>