<svg id="Capa_1" enable-background="new 0 0 511 511" height="512" viewBox="0 0 511 511" width="512" xmlns="http://www.w3.org/2000/svg"><circle cx="135.5" cy="175.5" r="7.5"/><circle cx="183.5" cy="175.5" r="7.5"/><circle cx="159.5" cy="207" r="7.5"/><circle cx="207.5" cy="207" r="7.5"/><circle cx="63" cy="207" r="7.5"/><circle cx="111.5" cy="207" r="7.5"/><circle cx="159.5" cy="144" r="7.5"/><circle cx="111.5" cy="144" r="7.5"/><circle cx="88" cy="175.5" r="7.5"/><path d="m487.5 224h-71.392c-4.143 0-7.5 3.358-7.5 7.5s3.357 7.5 7.5 7.5h71.392c4.687 0 8.5 3.813 8.5 8.5v2.446c0 4.172-2.987 7.699-7.103 8.385l-226.631 37.771c-3.616.603-6.267 3.731-6.267 7.398v40c0 31.154-25.346 56.5-56.5 56.5h-128c-31.153 0-56.499-25.346-56.499-56.5v-104.5h364.326c4.143 0 7.5-3.358 7.5-7.5s-3.357-7.5-7.5-7.5h-110.745c-4.269-10.311-15.456-35.376-32.9-60.749-30.248-43.996-64.89-67.251-100.181-67.251s-69.933 23.255-100.181 67.251c-22.263 32.384-34.339 64.274-34.841 65.616-.015.04-.023.081-.037.121-.072.203-.135.409-.19.62-.019.073-.04.146-.056.219-.05.219-.088.441-.119.666-.008.059-.021.118-.027.177-.031.273-.049.549-.049.83v112c0 39.425 32.075 71.5 71.5 71.5h128c39.425 0 71.5-32.075 71.5-71.5v-33.646l220.364-36.727c11.378-1.898 19.636-11.646 19.636-23.181v-2.446c0-12.958-10.542-23.5-23.5-23.5zm-352-113c61.131 0 103.635 83.529 116.725 113h-233.457c13.069-29.471 55.522-113 116.732-113z"/></svg>